Foldit-Bold.ufo
<glyph name="exclam.color0" format="2">
  <advance width="600"/>
  <unicode hex="0021"/>
  <outline>
    <contour>
      <point x="47" y="231" type="line"/>
      <point x="213" y="231" type="line"/>
      <point x="213" y="728" type="line"/>
      <point x="212" y="728" type="line"/>
      <point x="47" y="642" type="line"/>
    </contour>
  </outline>
</glyph>
<glyph name="exclam" format="2">
  <advance width="263"/>
  <unicode hex="0021"/>
  <outline>
    <contour>
      <point x="47" y="231" type="line"/>
      <point x="213" y="231" type="line"/>
      <point x="213" y="728" type="line"/>
      <point x="212" y="728" type="line"/>
      <point x="47" y="642" type="line"/>
    </contour>
    <component base="period" xOffset="6"/>
  </outline>
</glyph>
<glyph name="quotedbl.color0" format="2">
  <advance width="600"/>
  <unicode hex="0022"/>
  <outline>
    <contour>
      <point x="34" y="609" type="line"/>
      <point x="227" y="609" type="line"/>
      <point x="141" y="771" type="line"/>
      <point x="34" y="771" type="line"/>
    </contour>
  </outline>
</glyph>
<glyph name="numbersign.color0" format="2">
  <advance width="600"/>
  <unicode hex="0023"/>
  <outline>
    <contour>
      <point x="319" y="0" type="line"/>
      <point x="478" y="0" type="line"/>
      <point x="720" y="722" type="line"/>
      <point x="720" y="723" type="line"/>
      <point x="561" y="723" type="line"/>
      <point x="319" y="1" type="line"/>
    </contour>
  </outline>
</glyph>
<glyph name="numbersign.color1" format="2">
  <advance width="600"/>
  <unicode hex="0023"/>
  <outline>
    <contour>
      <point x="8" y="148" type="line"/>
      <point x="646" y="148" type="line"/>
      <point x="699" y="292" type="line"/>
      <point x="699" y="293" type="line"/>
      <point x="62" y="293" type="line"/>
      <point x="8" y="149" type="line"/>
    </contour>
  </outline>
</glyph>
<glyph name="numbersign.color2" format="2">
  <advance width="600"/>
  <unicode hex="0023"/>
  <outline>
    <contour>
      <point x="69" y="0" type="line"/>
      <point x="228" y="0" type="line"/>
      <point x="469" y="722" type="line"/>
      <point x="469" y="723" type="line"/>
      <point x="310" y="723" type="line"/>
      <point x="69" y="1" type="line"/>
    </contour>
  </outline>
</glyph>
<glyph name="numbersign.color3" format="2">
  <advance width="600"/>
  <unicode hex="0023"/>
  <outline>
    <contour>
      <point x="89" y="438" type="line"/>
      <point x="727" y="438" type="line"/>
      <point x="780" y="581" type="line"/>
      <point x="780" y="582" type="line"/>
      <point x="143" y="582" type="line"/>
      <point x="89" y="439" type="line"/>
    </contour>
  </outline>
</glyph>
<glyph name="numbersign" format="2">
  <advance width="790.75"/>
  <unicode hex="0023"/>
  <outline>
    <contour>
      <point x="319" y="0" type="line"/>
      <point x="478" y="0" type="line"/>
      <point x="720" y="722" type="line"/>
      <point x="720" y="723" type="line"/>
      <point x="561" y="723" type="line"/>
      <point x="319" y="1" type="line"/>
    </contour>
    <contour>
      <point x="8" y="148" type="line"/>
      <point x="646" y="148" type="line"/>
      <point x="699" y="292" type="line"/>
      <point x="699" y="293" type="line"/>
      <point x="62" y="293" type="line"/>
      <point x="8" y="149" type="line"/>
    </contour>
    <contour>
      <point x="69" y="0" type="line"/>
      <point x="228" y="0" type="line"/>
      <point x="469" y="722" type="line"/>
      <point x="469" y="723" type="line"/>
      <point x="310" y="723" type="line"/>
      <point x="69" y="1" type="line"/>
    </contour>
    <contour>
      <point x="89" y="438" type="line"/>
      <point x="727" y="438" type="line"/>
      <point x="780" y="581" type="line"/>
      <point x="780" y="582" type="line"/>
      <point x="143" y="582" type="line"/>
      <point x="89" y="439" type="line"/>
    </contour>
  </outline>
</glyph>
<glyph name="dollar.color0" format="2">
  <advance width="600"/>
  <unicode hex="0024"/>
  <outline>
    <contour>
      <point x="199" y="564" type="line"/>
      <point x="644" y="564" type="line"/>
      <point x="644" y="565" type="line"/>
      <point x="487" y="723" type="line"/>
      <point x="199" y="723" type="line"/>
    </contour>
  </outline>
</glyph>
<glyph name="dollar.color2" format="2">
  <advance width="600"/>
  <unicode hex="0024"/>
  <outline>
    <contour>
      <point x="258" y="-49" type="line"/>
      <point x="259" y="-49" type="line"/>
      <point x="424" y="-26" type="line"/>
      <point x="422" y="779" type="line"/>
      <point x="420" y="779" type="line"/>
      <point x="257" y="756" type="line"/>
    </contour>
  </outline>
</glyph>
<glyph name="dollar.color3" format="2">
  <advance width="600"/>
  <unicode hex="0024"/>
  <outline>
    <contour>
      <point x="189" y="285" type="line"/>
      <point x="478" y="285" type="line"/>
      <point x="478" y="444" type="line"/>
      <point x="32" y="444" type="line"/>
      <point x="32" y="443" type="line"/>
    </contour>
  </outline>
</glyph>
<glyph name="dollar.color4" format="2">
  <advance width="600"/>
  <unicode hex="0024"/>
  <outline>
    <contour>
      <point x="32" y="444" type="line"/>
      <point x="199" y="444" type="line"/>
      <point x="199" y="723" type="line"/>
      <point x="198" y="723" type="line"/>
      <point x="32" y="561" type="line"/>
    </contour>
  </outline>
</glyph>
<glyph name="dollar.color5" format="2">
  <advance width="600"/>
  <unicode hex="0024"/>
  <outline>
    <contour>
      <point x="478" y="0" type="line"/>
      <point x="479" y="0" type="line"/>
      <point x="644" y="150" type="line"/>
      <point x="644" y="290" type="line"/>
      <point x="479" y="444" type="line"/>
      <point x="478" y="444" type="line"/>
    </contour>
  </outline>
</glyph>
<glyph name="dollar" format="2">
  <advance width="676"/>
  <unicode hex="0024"/>
  <outline>
    <contour>
      <point x="199" y="564" type="line"/>
      <point x="644" y="564" type="line"/>
      <point x="644" y="565" type="line"/>
      <point x="487" y="723" type="line"/>
      <point x="199" y="723" type="line"/>
    </contour>
    <contour>
      <point x="189" y="0" type="line"/>
      <point x="478" y="0" type="line"/>
      <point x="478" y="159" type="line"/>
      <point x="32" y="159" type="line"/>
      <point x="32" y="158" type="line"/>
    </contour>
    <contour>
      <point x="258" y="-49" type="line"/>
      <point x="259" y="-49" type="line"/>
      <point x="424" y="-26" type="line"/>
      <point x="422" y="779" type="line"/>
      <point x="420" y="779" type="line"/>
      <point x="257" y="756" type="line"/>
    </contour>
    <contour>
      <point x="189" y="285" type="line"/>
      <point x="478" y="285" type="line"/>
      <point x="478" y="444" type="line"/>
      <point x="32" y="444" type="line"/>
      <point x="32" y="443" type="line"/>
    </contour>
    <contour>
      <point x="32" y="444" type="line"/>
      <point x="199" y="444" type="line"/>
      <point x="199" y="723" type="line"/>
      <point x="198" y="723" type="line"/>
      <point x="32" y="561" type="line"/>
    </contour>
    <contour>
      <point x="478" y="0" type="line"/>
      <point x="479" y="0" type="line"/>
      <point x="644" y="150" type="line"/>
      <point x="644" y="290" type="line"/>
      <point x="479" y="444" type="line"/>
      <point x="478" y="444" type="line"/>
    </contour>
  </outline>
</glyph>
<glyph name="percent.color1" format="2">
  <advance width="600"/>
  <unicode hex="0025"/>
  <outline>
    <contour>
      <point x="118" y="305" type="line"/>
      <point x="413" y="305" type="line"/>
      <point x="413" y="464" type="line"/>
      <point x="32" y="464" type="line"/>
      <point x="32" y="463" type="line"/>
    </contour>
  </outline>
</glyph>
<glyph name="percent.color2" format="2">
  <advance width="600"/>
  <unicode hex="0025"/>
  <outline>
    <contour>
      <point x="32" y="464" type="line"/>
      <point x="199" y="464" type="line"/>
      <point x="199" y="703" type="line"/>
      <point x="198" y="703" type="line"/>
      <point x="32" y="617" type="line"/>
    </contour>
  </outline>
</glyph>
<glyph name="percent.color3" format="2">
  <advance width="600"/>
  <unicode hex="0025"/>
  <outline>
    <contour>
      <point x="413" y="305" type="line"/>
      <point x="414" y="305" type="line"/>
      <point x="579" y="391" type="line"/>
      <point x="579" y="544" type="line"/>
      <point x="413" y="544" type="line"/>
    </contour>
  </outline>
</glyph>
<glyph name="percent.color5" format="2">
  <advance width="600"/>
  <unicode hex="0025"/>
  <outline>
    <contour>
      <point x="872" y="5" type="line"/>
      <point x="1167" y="5" type="line"/>
      <point x="1167" y="164" type="line"/>
      <point x="786" y="164" type="line"/>
      <point x="786" y="163" type="line"/>
    </contour>
  </outline>
</glyph>
<glyph name="percent.color6" format="2">
  <advance width="600"/>
  <unicode hex="0025"/>
  <outline>
    <contour>
      <point x="786" y="164" type="line"/>
      <point x="952" y="164" type="line"/>
      <point x="952" y="402" type="line"/>
      <point x="951" y="402" type="line"/>
      <point x="786" y="316" type="line"/>
    </contour>
  </outline>
</glyph>
<glyph name="percent.color7" format="2">
  <advance width="600"/>
  <unicode hex="0025"/>
  <outline>
    <contour>
      <point x="1167" y="5" type="line"/>
      <point x="1168" y="5" type="line"/>
      <point x="1333" y="91" type="line"/>
      <point x="1333" y="243" type="line"/>
      <point x="1167" y="243" type="line"/>
    </contour>
  </outline>
</glyph>
<glyph name="percent.color8" format="2">
  <advance width="600"/>
  <unicode hex="0025"/>
  <outline>
    <contour>
      <point x="952" y="243" type="line"/>
      <point x="1333" y="243" type="line"/>
      <point x="1333" y="244" type="line"/>
      <point x="1247" y="402" type="line"/>
      <point x="952" y="402" type="line"/>
    </contour>
  </outline>
</glyph>
<glyph name="percent" format="2">
  <advance width="1365.25"/>
  <unicode hex="0025"/>
  <outline>
    <contour>
      <point x="346" y="0" type="line"/>
      <point x="527" y="0" type="line"/>
      <point x="1034" y="722" type="line"/>
      <point x="1034" y="723" type="line"/>
      <point x="853" y="723" type="line"/>
      <point x="346" y="1" type="line"/>
    </contour>
    <contour>
      <point x="118" y="305" type="line"/>
      <point x="413" y="305" type="line"/>
      <point x="413" y="464" type="line"/>
      <point x="32" y="464" type="line"/>
      <point x="32" y="463" type="line"/>
    </contour>
    <contour>
      <point x="32" y="464" type="line"/>
      <point x="199" y="464" type="line"/>
      <point x="199" y="703" type="line"/>
      <point x="198" y="703" type="line"/>
      <point x="32" y="617" type="line"/>
    </contour>
    <contour>
      <point x="413" y="305" type="line"/>
      <point x="414" y="305" type="line"/>
      <point x="579" y="391" type="line"/>
      <point x="579" y="544" type="line"/>
      <point x="413" y="544" type="line"/>
    </contour>
    <contour>
      <point x="199" y="544" type="line"/>
      <point x="579" y="544" type="line"/>
      <point x="579" y="545" type="line"/>
      <point x="493" y="703" type="line"/>
      <point x="199" y="703" type="line"/>
    </contour>
    <contour>
      <point x="872" y="5" type="line"/>
      <point x="1167" y="5" type="line"/>
      <point x="1167" y="164" type="line"/>
      <point x="786" y="164" type="line"/>
      <point x="786" y="163" type="line"/>
    </contour>
    <contour>
      <point x="786" y="164" type="line"/>
      <point x="952" y="164" type="line"/>
      <point x="952" y="402" type="line"/>
      <point x="951" y="402" type="line"/>
      <point x="786" y="316" type="line"/>
    </contour>
    <contour>
      <point x="1167" y="5" type="line"/>
      <point x="1168" y="5" type="line"/>
      <point x="1333" y="91" type="line"/>
      <point x="1333" y="243" type="line"/>
      <point x="1167" y="243" type="line"/>
    </contour>
    <contour>
      <point x="952" y="243" type="line"/>
      <point x="1333" y="243" type="line"/>
      <point x="1333" y="244" type="line"/>
      <point x="1247" y="402" type="line"/>
      <point x="952" y="402" type="line"/>
    </contour>
  </outline>
</glyph>
<glyph name="ampersand.color1" format="2">
  <advance width="600"/>
  <unicode hex="0026"/>
  <outline>
    <contour>
      <point x="180" y="444" type="line"/>
      <point x="302" y="444" type="line"/>
      <point x="302" y="715" type="line"/>
      <point x="301" y="715" type="line"/>
      <point x="180" y="614" type="line"/>
    </contour>
  </outline>
</glyph>
<glyph name="ampersand.color2" format="2">
  <advance width="600"/>
  <unicode hex="0026"/>
  <outline>
    <contour>
      <point x="675" y="0" type="line"/>
      <point x="679" y="0" type="line"/>
      <point x="887" y="2" type="line"/>
      <point x="887" y="3" type="line"/>
      <point x="598" y="399" type="line"/>
      <point x="394" y="399" type="line"/>
      <point x="388" y="398" type="line"/>
    </contour>
  </outline>
</glyph>
<glyph name="ampersand.color3" format="2">
  <advance width="600"/>
  <unicode hex="0026"/>
  <outline>
    <contour>
      <point x="181" y="0" type="line"/>
      <point x="574" y="0" type="line"/>
      <point x="536" y="159" type="line"/>
      <point x="181" y="159" type="line"/>
    </contour>
  </outline>
</glyph>
<glyph name="ampersand.color4" format="2">
  <advance width="600"/>
  <unicode hex="0026"/>
  <outline>
    <contour>
      <point x="181" y="285" type="line"/>
      <point x="522" y="285" type="line"/>
      <point x="522" y="444" type="line"/>
      <point x="181" y="444" type="line"/>
    </contour>
  </outline>
</glyph>
<glyph name="ampersand.color5" format="2">
  <advance width="600"/>
  <unicode hex="0026"/>
  <outline>
    <contour>
      <point x="180" y="0" type="line"/>
      <point x="181" y="0" type="line"/>
      <point x="181" y="444" type="line"/>
      <point x="180" y="444" type="line"/>
      <point x="30" y="289" type="line"/>
      <point x="30" y="128" type="line"/>
    </contour>
  </outline>
</glyph>
<glyph name="ampersand.color6" format="2">
  <advance width="600"/>
  <unicode hex="0026"/>
  <outline>
    <contour>
      <point x="574" y="0" type="line"/>
      <point x="575" y="0" type="line"/>
      <point x="751" y="187" type="line"/>
      <point x="908" y="414" type="line"/>
      <point x="908" y="416" type="line"/>
      <point x="716" y="419" type="line"/>
      <point x="536" y="159" type="line"/>
    </contour>
  </outline>
</glyph>
<glyph name="ampersand" format="2">
  <advance width="921"/>
  <unicode hex="0026"/>
  <outline>
    <contour>
      <point x="302" y="556" type="line"/>
      <point x="522" y="556" type="line"/>
      <point x="522" y="715" type="line"/>
      <point x="302" y="715" type="line"/>
    </contour>
    <contour>
      <point x="180" y="444" type="line"/>
      <point x="302" y="444" type="line"/>
      <point x="302" y="715" type="line"/>
      <point x="301" y="715" type="line"/>
      <point x="180" y="614" type="line"/>
    </contour>
    <contour>
      <point x="675" y="0" type="line"/>
      <point x="679" y="0" type="line"/>
      <point x="887" y="2" type="line"/>
      <point x="887" y="3" type="line"/>
      <point x="598" y="399" type="line"/>
      <point x="394" y="399" type="line"/>
      <point x="388" y="398" type="line"/>
    </contour>
    <contour>
      <point x="181" y="0" type="line"/>
      <point x="574" y="0" type="line"/>
      <point x="536" y="159" type="line"/>
      <point x="181" y="159" type="line"/>
    </contour>
    <contour>
      <point x="181" y="285" type="line"/>
      <point x="522" y="285" type="line"/>
      <point x="522" y="444" type="line"/>
      <point x="181" y="444" type="line"/>
    </contour>
    <contour>
      <point x="180" y="0" type="line"/>
      <point x="181" y="0" type="line"/>
      <point x="181" y="444" type="line"/>
      <point x="180" y="444" type="line"/>
      <point x="30" y="289" type="line"/>
      <point x="30" y="128" type="line"/>
    </contour>
    <contour>
      <point x="574" y="0" type="line"/>
      <point x="575" y="0" type="line"/>
      <point x="751" y="187" type="line"/>
      <point x="908" y="414" type="line"/>
      <point x="908" y="416" type="line"/>
      <point x="716" y="419" type="line"/>
      <point x="536" y="159" type="line"/>
    </contour>
    <contour>
      <point x="522" y="285" type="line"/>
      <point x="523" y="285" type="line"/>
      <point x="642" y="444" type="line"/>
      <point x="642" y="614" type="line"/>
      <point x="523" y="715" type="line"/>
      <point x="522" y="715" type="line"/>
    </contour>
  </outline>
</glyph>
<glyph name="quotesingle.color1" format="2">
  <advance width="600"/>
  <unicode hex="0027"/>
  <outline>
    <contour>
      <point x="58" y="439" type="line"/>
      <point x="58" y="439" type="line"/>
      <point x="159" y="439" type="line"/>
      <point x="227" y="609" type="line"/>
      <point x="90" y="609" type="line"/>
    </contour>
  </outline>
</glyph>
<glyph name="parenleft.color0" format="2">
  <advance width="600"/>
  <unicode hex="0028"/>
  <outline>
    <contour>
      <point x="206" y="64" type="line"/>
      <point x="206" y="715" type="line"/>
      <point x="205" y="715" type="line"/>
      <point x="40" y="558" type="line"/>
      <point x="40" y="67" type="line"/>
    </contour>
  </outline>
</glyph>
<glyph name="parenleft.color1" format="2">
  <advance width="600"/>
  <unicode hex="0028"/>
  <outline>
    <contour>
      <point x="191" y="-89" type="line"/>
      <point x="424" y="-100" type="line"/>
      <point x="424" y="59" type="line"/>
      <point x="40" y="70" type="line"/>
      <point x="40" y="66" type="line"/>
    </contour>
  </outline>
</glyph>
<glyph name="parenleft.color2" format="2">
  <advance width="600"/>
  <unicode hex="0028"/>
  <outline>
    <contour>
      <point x="206" y="556" type="line"/>
      <point x="424" y="564" type="line"/>
      <point x="424" y="723" type="line"/>
      <point x="206" y="715" type="line"/>
    </contour>
  </outline>
</glyph>
<glyph name="parenleft" format="2">
  <advance width="450.5"/>
  <unicode hex="0028"/>
  <outline>
    <contour>
      <point x="206" y="64" type="line"/>
      <point x="206" y="715" type="line"/>
      <point x="205" y="715" type="line"/>
      <point x="40" y="558" type="line"/>
      <point x="40" y="67" type="line"/>
    </contour>
    <contour>
      <point x="191" y="-89" type="line"/>
      <point x="424" y="-100" type="line"/>
      <point x="424" y="59" type="line"/>
      <point x="40" y="70" type="line"/>
      <point x="40" y="66" type="line"/>
    </contour>
    <contour>
      <point x="206" y="556" type="line"/>
      <point x="424" y="564" type="line"/>
      <point x="424" y="723" type="line"/>
      <point x="206" y="715" type="line"/>
    </contour>
  </outline>
</glyph>
<glyph name="parenright.color0" format="2">
  <advance width="600"/>
  <unicode hex="0029"/>
  <outline>
    <contour>
      <point x="250" y="-92" type="line"/>
      <point x="251" y="-92" type="line"/>
      <point x="416" y="64" type="line"/>
      <point x="416" y="556" type="line"/>
      <point x="250" y="558" type="line"/>
    </contour>
  </outline>
</glyph>
<glyph name="parenright.color2" format="2">
  <advance width="600"/>
  <unicode hex="0029"/>
  <outline>
    <contour>
      <point x="31" y="564" type="line"/>
      <point x="416" y="552" type="line"/>
      <point x="416" y="557" type="line"/>
      <point x="265" y="711" type="line"/>
      <point x="31" y="723" type="line"/>
    </contour>
  </outline>
</glyph>
<glyph name="parenright" format="2">
  <advance width="455.5"/>
  <unicode hex="0029"/>
  <outline>
    <contour>
      <point x="250" y="-92" type="line"/>
      <point x="251" y="-92" type="line"/>
      <point x="416" y="64" type="line"/>
      <point x="416" y="556" type="line"/>
      <point x="250" y="558" type="line"/>
    </contour>
    <contour>
      <point x="31" y="-100" type="line"/>
      <point x="250" y="-92" type="line"/>
      <point x="250" y="67" type="line"/>
      <point x="31" y="59" type="line"/>
    </contour>
    <contour>
      <point x="31" y="564" type="line"/>
      <point x="416" y="552" type="line"/>
      <point x="416" y="557" type="line"/>
      <point x="265" y="711" type="line"/>
      <point x="31" y="723" type="line"/>
    </contour>
  </outline>
</glyph>
<glyph name="asterisk.color0" format="2">
  <advance width="600"/>
  <unicode hex="002A"/>
  <outline>
    <contour>
      <point x="82" y="396" type="line"/>
      <point x="177" y="396" type="line"/>
      <point x="177" y="398" type="line"/>
      <point x="192" y="477" type="line"/>
      <point x="15" y="582" type="line"/>
    </contour>
  </outline>
</glyph>
<glyph name="asterisk.color1" format="2">
  <advance width="600"/>
  <unicode hex="002A"/>
  <outline>
    <contour>
      <point x="192" y="477" type="line"/>
      <point x="225" y="730" type="line"/>
      <point x="223" y="730" type="line"/>
      <point x="15" y="583" type="line"/>
      <point x="15" y="582" type="line"/>
    </contour>
  </outline>
</glyph>
<glyph name="asterisk.color2" format="2">
  <advance width="600"/>
  <unicode hex="002A"/>
  <outline>
    <contour>
      <point x="177" y="396" type="line"/>
      <point x="362" y="396" type="line"/>
      <point x="429" y="582" type="line"/>
      <point x="429" y="583" type="line"/>
      <point x="226" y="730" type="line"/>
      <point x="225" y="730" type="line"/>
      <point x="177" y="398" type="line"/>
    </contour>
  </outline>
</glyph>
<glyph name="asterisk" format="2">
  <advance width="466"/>
  <unicode hex="002A"/>
  <outline>
    <contour>
      <point x="82" y="396" type="line"/>
      <point x="177" y="396" type="line"/>
      <point x="177" y="398" type="line"/>
      <point x="192" y="477" type="line"/>
      <point x="15" y="582" type="line"/>
    </contour>
    <contour>
      <point x="192" y="477" type="line"/>
      <point x="225" y="730" type="line"/>
      <point x="223" y="730" type="line"/>
      <point x="15" y="583" type="line"/>
      <point x="15" y="582" type="line"/>
    </contour>
    <contour>
      <point x="177" y="396" type="line"/>
      <point x="362" y="396" type="line"/>
      <point x="429" y="582" type="line"/>
      <point x="429" y="583" type="line"/>
      <point x="226" y="730" type="line"/>
      <point x="225" y="730" type="line"/>
      <point x="177" y="398" type="line"/>
    </contour>
  </outline>
</glyph>
<glyph name="plus.color0" format="2">
  <advance width="600"/>
  <unicode hex="002B"/>
  <outline>
    <contour>
      <point x="33" y="287" type="line"/>
      <point x="238" y="287" type="line"/>
      <point x="238" y="446" type="line"/>
      <point x="32" y="446" type="line"/>
    </contour>
  </outline>
</glyph>
<glyph name="plus.color1" format="2">
  <advance width="600"/>
  <unicode hex="002B"/>
  <outline>
    <contour>
      <point x="238" y="114" type="line"/>
      <point x="397" y="114" type="line"/>
      <point x="397" y="287" type="line"/>
      <point x="238" y="287" type="line"/>
    </contour>
  </outline>
</glyph>
<glyph name="plus.color2" format="2">
  <advance width="600"/>
  <unicode hex="002B"/>
  <outline>
    <contour>
      <point x="238" y="287" type="line"/>
      <point x="239" y="287" type="line"/>
      <point x="397" y="446" type="line"/>
      <point x="397" y="619" type="line"/>
      <point x="238" y="619" type="line"/>
    </contour>
  </outline>
</glyph>
<glyph name="plus.color3" format="2">
  <advance width="600"/>
  <unicode hex="002B"/>
  <outline>
    <contour>
      <point x="239" y="287" type="line"/>
      <point x="603" y="287" type="line"/>
      <point x="603" y="446" type="line"/>
      <point x="397" y="446" type="line"/>
    </contour>
  </outline>
</glyph>
<glyph name="plus" format="2">
  <advance width="634.75"/>
  <unicode hex="002B"/>
  <outline>
    <contour>
      <point x="33" y="287" type="line"/>
      <point x="238" y="287" type="line"/>
      <point x="238" y="446" type="line"/>
      <point x="32" y="446" type="line"/>
    </contour>
    <contour>
      <point x="238" y="114" type="line"/>
      <point x="397" y="114" type="line"/>
      <point x="397" y="287" type="line"/>
      <point x="238" y="287" type="line"/>
    </contour>
    <contour>
      <point x="238" y="287" type="line"/>
      <point x="239" y="287" type="line"/>
      <point x="397" y="446" type="line"/>
      <point x="397" y="619" type="line"/>
      <point x="238" y="619" type="line"/>
    </contour>
    <contour>
      <point x="239" y="287" type="line"/>
      <point x="603" y="287" type="line"/>
      <point x="603" y="446" type="line"/>
      <point x="397" y="446" type="line"/>
    </contour>
  </outline>
</glyph>
<glyph name="comma.color0" format="2">
  <advance width="600"/>
  <unicode hex="002C"/>
  <outline>
    <contour>
      <point x="34" y="13" type="line"/>
      <point x="224" y="13" type="line"/>
      <point x="138" y="172" type="line"/>
      <point x="34" y="172" type="line"/>
    </contour>
  </outline>
</glyph>
<glyph name="comma.color1" format="2">
  <advance width="600"/>
  <unicode hex="002C"/>
  <outline>
    <contour>
      <point x="87" y="-160" type="line"/>
      <point x="88" y="-160" type="line"/>
      <point x="224" y="-74" type="line"/>
      <point x="224" y="13" type="line"/>
      <point x="87" y="13" type="line"/>
    </contour>
  </outline>
</glyph>
<glyph name="comma" format="2">
  <advance width="258.25"/>
  <unicode hex="002C"/>
  <outline>
    <contour>
      <point x="34" y="13" type="line"/>
      <point x="224" y="13" type="line"/>
      <point x="138" y="172" type="line"/>
      <point x="34" y="172" type="line"/>
    </contour>
    <contour>
      <point x="87" y="-160" type="line"/>
      <point x="88" y="-160" type="line"/>
      <point x="224" y="-74" type="line"/>
      <point x="224" y="13" type="line"/>
      <point x="87" y="13" type="line"/>
    </contour>
  </outline>
</glyph>
<glyph name="hyphen" format="2">
  <advance width="367.75"/>
  <unicode hex="002D"/>
  <outline>
    <contour>
      <point x="40" y="278" type="line"/>
      <point x="328" y="278" type="line"/>
      <point x="328" y="439" type="line"/>
      <point x="40" y="439" type="line"/>
    </contour>
  </outline>
</glyph>
<glyph name="period" format="2">
  <advance width="250.75"/>
  <unicode hex="002E"/>
  <outline>
    <contour>
      <point x="34" y="0" type="line"/>
      <point x="217" y="0" type="line"/>
      <point x="217" y="159" type="line"/>
      <point x="34" y="159" type="line"/>
    </contour>
  </outline>
</glyph>
<glyph name="slash" format="2">
  <advance width="513"/>
  <unicode hex="002F"/>
  <outline>
    <contour>
      <point x="0" y="-100" type="line"/>
      <point x="181" y="-100" type="line"/>
      <point x="513" y="784" type="line"/>
      <point x="513" y="785" type="line"/>
      <point x="332" y="785" type="line"/>
      <point x="0" y="-99" type="line"/>
    </contour>
  </outline>
</glyph>
<glyph name="zero.color0" format="2">
  <advance width="600"/>
  <unicode hex="0030"/>
  <outline>
    <contour>
      <point x="364" y="159" type="line"/>
      <point x="545" y="159" type="line"/>
      <point x="545" y="160" type="line"/>
      <point x="309" y="558" type="line"/>
      <point x="128" y="558" type="line"/>
    </contour>
  </outline>
</glyph>
<glyph name="zero.color3" format="2">
  <advance width="600"/>
  <unicode hex="0030"/>
  <outline>
    <contour>
      <point x="466" y="0" type="line"/>
      <point x="467" y="0" type="line"/>
      <point x="633" y="154" type="line"/>
      <point x="633" y="556" type="line"/>
      <point x="466" y="556" type="line"/>
    </contour>
  </outline>
</glyph>
<glyph name="zero" format="2">
  <advance width="672.5"/>
  <unicode hex="0030"/>
  <outline>
    <contour>
      <point x="364" y="159" type="line"/>
      <point x="545" y="159" type="line"/>
      <point x="545" y="160" type="line"/>
      <point x="309" y="558" type="line"/>
      <point x="128" y="558" type="line"/>
    </contour>
    <contour>
      <point x="197" y="0" type="line"/>
      <point x="466" y="0" type="line"/>
      <point x="466" y="159" type="line"/>
      <point x="40" y="159" type="line"/>
      <point x="40" y="158" type="line"/>
    </contour>
    <contour>
      <point x="40" y="159" type="line"/>
      <point x="206" y="159" type="line"/>
      <point x="206" y="715" type="line"/>
      <point x="205" y="715" type="line"/>
      <point x="40" y="554" type="line"/>
    </contour>
    <contour>
      <point x="466" y="0" type="line"/>
      <point x="467" y="0" type="line"/>
      <point x="633" y="154" type="line"/>
      <point x="633" y="556" type="line"/>
      <point x="466" y="556" type="line"/>
    </contour>
    <contour>
      <point x="206" y="556" type="line"/>
      <point x="633" y="556" type="line"/>
      <point x="633" y="557" type="line"/>
      <point x="475" y="715" type="line"/>
      <point x="206" y="715" type="line"/>
    </contour>
  </outline>
</glyph>
<glyph name="one.color0" format="2">
  <advance width="600"/>
  <unicode hex="0031"/>
  <outline>
    <contour>
      <point x="275" y="0" type="line"/>
      <point x="315" y="0" type="line"/>
      <point x="442" y="159" type="line"/>
      <point x="442" y="715" type="line"/>
      <point x="402" y="715" type="line"/>
      <point x="275" y="556" type="line"/>
    </contour>
  </outline>
</glyph>
<glyph name="one.color1" format="2">
  <advance width="600"/>
  <unicode hex="0031"/>
  <outline>
    <contour>
      <point x="40" y="0" type="line"/>
      <point x="275" y="0" type="line"/>
      <point x="275" y="159" type="line"/>
      <point x="40" y="159" type="line"/>
    </contour>
  </outline>
</glyph>
<glyph name="two.color0" format="2">
  <advance width="600"/>
  <unicode hex="0032"/>
  <outline>
    <contour>
      <point x="35" y="556" type="line"/>
      <point x="478" y="556" type="line"/>
      <point x="529" y="715" type="line"/>
      <point x="192" y="715" type="line"/>
      <point x="35" y="557" type="line"/>
    </contour>
  </outline>
</glyph>
<glyph name="two.color2" format="2">
  <advance width="600"/>
  <unicode hex="0032"/>
  <outline>
    <contour>
      <point x="54" y="0" type="line"/>
      <point x="621" y="0" type="line"/>
      <point x="621" y="159" type="line"/>
      <point x="54" y="159" type="line"/>
    </contour>
  </outline>
</glyph>
<glyph name="two" format="2">
  <advance width="672.5"/>
  <unicode hex="0032"/>
  <outline>
    <contour>
      <point x="35" y="556" type="line"/>
      <point x="478" y="556" type="line"/>
      <point x="529" y="715" type="line"/>
      <point x="192" y="715" type="line"/>
      <point x="35" y="557" type="line"/>
    </contour>
    <contour>
      <point x="220" y="96" type="line"/>
      <point x="609" y="575" type="line"/>
      <point x="529" y="715" type="line"/>
      <point x="54" y="160" type="line"/>
      <point x="54" y="159" type="line"/>
    </contour>
    <contour>
      <point x="54" y="0" type="line"/>
      <point x="621" y="0" type="line"/>
      <point x="621" y="159" type="line"/>
      <point x="54" y="159" type="line"/>
    </contour>
  </outline>
</glyph>
<glyph name="three.color1" format="2">
  <advance width="600"/>
  <unicode hex="0033"/>
  <outline>
    <contour>
      <point x="177" y="0" type="line"/>
      <point x="462" y="0" type="line"/>
      <point x="462" y="159" type="line"/>
      <point x="20" y="159" type="line"/>
      <point x="20" y="158" type="line"/>
    </contour>
  </outline>
</glyph>
<glyph name="three.color2" format="2">
  <advance width="600"/>
  <unicode hex="0033"/>
  <outline>
    <contour>
      <point x="103" y="313" type="line"/>
      <point x="462" y="313" type="line"/>
      <point x="462" y="441" type="line"/>
      <point x="103" y="441" type="line"/>
    </contour>
  </outline>
</glyph>
<glyph name="three.color4" format="2">
  <advance width="600"/>
  <unicode hex="0033"/>
  <outline>
    <contour>
      <point x="462" y="0" type="line"/>
      <point x="463" y="0" type="line"/>
      <point x="628" y="150" type="line"/>
      <point x="628" y="303" type="line"/>
      <point x="463" y="441" type="line"/>
      <point x="462" y="441" type="line"/>
    </contour>
  </outline>
</glyph>
<glyph name="four.color0" format="2">
  <advance width="600"/>
  <unicode hex="0034"/>
  <outline>
    <contour>
      <point x="114" y="198" type="line"/>
      <point x="468" y="198" type="line"/>
      <point x="468" y="357" type="line"/>
      <point x="209" y="357" type="line"/>
    </contour>
  </outline>
</glyph>
<glyph name="four.color1" format="2">
  <advance width="600"/>
  <unicode hex="0034"/>
  <outline>
    <contour>
      <point x="114" y="198" type="line"/>
      <point x="535" y="714" type="line"/>
      <point x="535" y="715" type="line"/>
      <point x="327" y="715" type="line"/>
      <point x="25" y="352" type="line"/>
    </contour>
  </outline>
</glyph>
<glyph name="four.color2" format="2">
  <advance width="600"/>
  <unicode hex="0034"/>
  <outline>
    <contour>
      <point x="468" y="0" type="line"/>
      <point x="634" y="0" type="line"/>
      <point x="634" y="226" type="line"/>
      <point x="469" y="357" type="line"/>
      <point x="468" y="357" type="line"/>
    </contour>
  </outline>
</glyph>
<glyph name="five.color1" format="2">
  <advance width="600"/>
  <unicode hex="0035"/>
  <outline>
    <contour>
      <point x="66" y="295" type="line"/>
      <point x="458" y="295" type="line"/>
      <point x="458" y="454" type="line"/>
      <point x="66" y="454" type="line"/>
    </contour>
  </outline>
</glyph>
<glyph name="five" format="2">
  <advance width="672.5"/>
  <unicode hex="0035"/>
  <outline>
    <contour>
      <point x="173" y="0" type="line"/>
      <point x="458" y="0" type="line"/>
      <point x="458" y="159" type="line"/>
      <point x="16" y="159" type="line"/>
      <point x="16" y="158" type="line"/>
    </contour>
    <contour>
      <point x="66" y="295" type="line"/>
      <point x="458" y="295" type="line"/>
      <point x="458" y="454" type="line"/>
      <point x="66" y="454" type="line"/>
    </contour>
    <contour>
      <point x="66" y="454" type="line"/>
      <point x="232" y="454" type="line"/>
      <point x="232" y="693" type="line"/>
      <point x="66" y="693" type="line"/>
    </contour>
    <contour>
      <point x="458" y="0" type="line"/>
      <point x="459" y="0" type="line"/>
      <point x="624" y="146" type="line"/>
      <point x="624" y="345" type="line"/>
      <point x="459" y="454" type="line"/>
      <point x="458" y="454" type="line"/>
    </contour>
    <contour>
      <point x="232" y="534" type="line"/>
      <point x="583" y="534" type="line"/>
      <point x="583" y="693" type="line"/>
      <point x="232" y="693" type="line"/>
    </contour>
  </outline>
</glyph>
<glyph name="six.color0" format="2">
  <advance width="600"/>
  <unicode hex="0036"/>
  <outline>
    <contour>
      <point x="197" y="0" type="line"/>
      <point x="482" y="0" type="line"/>
      <point x="482" y="159" type="line"/>
      <point x="40" y="159" type="line"/>
      <point x="40" y="158" type="line"/>
    </contour>
  </outline>
</glyph>
<glyph name="six.color1" format="2">
  <advance width="600"/>
  <unicode hex="0036"/>
  <outline>
    <contour>
      <point x="40" y="159" type="line"/>
      <point x="206" y="159" type="line"/>
      <point x="206" y="285" type="line"/>
      <point x="40" y="443" type="line"/>
    </contour>
  </outline>
</glyph>
<glyph name="six.color2" format="2">
  <advance width="600"/>
  <unicode hex="0036"/>
  <outline>
    <contour>
      <point x="206" y="285" type="line"/>
      <point x="482" y="285" type="line"/>
      <point x="482" y="444" type="line"/>
      <point x="40" y="444" type="line"/>
      <point x="40" y="443" type="line"/>
    </contour>
  </outline>
</glyph>
<glyph name="six.color3" format="2">
  <advance width="600"/>
  <unicode hex="0036"/>
  <outline>
    <contour>
      <point x="40" y="444" type="line"/>
      <point x="206" y="444" type="line"/>
      <point x="206" y="715" type="line"/>
      <point x="205" y="715" type="line"/>
      <point x="40" y="554" type="line"/>
    </contour>
  </outline>
</glyph>
<glyph name="six.color5" format="2">
  <advance width="600"/>
  <unicode hex="0036"/>
  <outline>
    <contour>
      <point x="206" y="556" type="line"/>
      <point x="621" y="556" type="line"/>
      <point x="621" y="557" type="line"/>
      <point x="464" y="715" type="line"/>
      <point x="206" y="715" type="line"/>
    </contour>
  </outline>
</glyph>
<glyph name="six" format="2">
  <advance width="672.5"/>
  <unicode hex="0036"/>
  <outline>
    <contour>
      <point x="197" y="0" type="line"/>
      <point x="482" y="0" type="line"/>
      <point x="482" y="159" type="line"/>
      <point x="40" y="159" type="line"/>
      <point x="40" y="158" type="line"/>
    </contour>
    <contour>
      <point x="40" y="159" type="line"/>
      <point x="206" y="159" type="line"/>
      <point x="206" y="285" type="line"/>
      <point x="40" y="443" type="line"/>
    </contour>
    <contour>
      <point x="206" y="285" type="line"/>
      <point x="482" y="285" type="line"/>
      <point x="482" y="444" type="line"/>
      <point x="40" y="444" type="line"/>
      <point x="40" y="443" type="line"/>
    </contour>
    <contour>
      <point x="40" y="444" type="line"/>
      <point x="206" y="444" type="line"/>
      <point x="206" y="715" type="line"/>
      <point x="205" y="715" type="line"/>
      <point x="40" y="554" type="line"/>
    </contour>
    <contour>
      <point x="482" y="0" type="line"/>
      <point x="483" y="0" type="line"/>
      <point x="648" y="150" type="line"/>
      <point x="648" y="290" type="line"/>
      <point x="483" y="444" type="line"/>
      <point x="482" y="444" type="line"/>
    </contour>
    <contour>
      <point x="206" y="556" type="line"/>
      <point x="621" y="556" type="line"/>
      <point x="621" y="557" type="line"/>
      <point x="464" y="715" type="line"/>
      <point x="206" y="715" type="line"/>
    </contour>
  </outline>
</glyph>
<glyph name="eight.color0" format="2">
  <advance width="600"/>
  <unicode hex="0038"/>
  <outline>
    <contour>
      <point x="247" y="556" type="line"/>
      <point x="425" y="556" type="line"/>
      <point x="425" y="715" type="line"/>
      <point x="247" y="715" type="line"/>
    </contour>
  </outline>
</glyph>
<glyph name="eight.color2" format="2">
  <advance width="600"/>
  <unicode hex="0038"/>
  <outline>
    <contour>
      <point x="80" y="368" type="line"/>
      <point x="247" y="368" type="line"/>
      <point x="247" y="715" type="line"/>
      <point x="246" y="715" type="line"/>
      <point x="80" y="554" type="line"/>
    </contour>
  </outline>
</glyph>
<glyph name="eight.color4" format="2">
  <advance width="600"/>
  <unicode hex="0038"/>
  <outline>
    <contour>
      <point x="199" y="285" type="line"/>
      <point x="474" y="285" type="line"/>
      <point x="474" y="444" type="line"/>
      <point x="199" y="444" type="line"/>
    </contour>
  </outline>
</glyph>
<glyph name="eight.color5" format="2">
  <advance width="600"/>
  <unicode hex="0038"/>
  <outline>
    <contour>
      <point x="474" y="0" type="line"/>
      <point x="475" y="0" type="line"/>
      <point x="641" y="150" type="line"/>
      <point x="641" y="290" type="line"/>
      <point x="475" y="444" type="line"/>
      <point x="474" y="444" type="line"/>
    </contour>
  </outline>
</glyph>
<glyph name="eight.color6" format="2">
  <advance width="600"/>
  <unicode hex="0038"/>
  <outline>
    <contour>
      <point x="198" y="0" type="line"/>
      <point x="199" y="0" type="line"/>
      <point x="199" y="444" type="line"/>
      <point x="198" y="444" type="line"/>
      <point x="32" y="290" type="line"/>
      <point x="32" y="150" type="line"/>
    </contour>
  </outline>
</glyph>
<glyph name="eight" format="2">
  <advance width="672.5"/>
  <unicode hex="0038"/>
  <outline>
    <contour>
      <point x="247" y="556" type="line"/>
      <point x="425" y="556" type="line"/>
      <point x="425" y="715" type="line"/>
      <point x="247" y="715" type="line"/>
    </contour>
    <contour>
      <point x="199" y="0" type="line"/>
      <point x="474" y="0" type="line"/>
      <point x="474" y="159" type="line"/>
      <point x="199" y="159" type="line"/>
    </contour>
    <contour>
      <point x="80" y="368" type="line"/>
      <point x="247" y="368" type="line"/>
      <point x="247" y="715" type="line"/>
      <point x="246" y="715" type="line"/>
      <point x="80" y="554" type="line"/>
    </contour>
    <contour>
      <point x="425" y="368" type="line"/>
      <point x="593" y="368" type="line"/>
      <point x="593" y="554" type="line"/>
      <point x="426" y="715" type="line"/>
      <point x="425" y="715" type="line"/>
    </contour>
    <contour>
      <point x="199" y="285" type="line"/>
      <point x="474" y="285" type="line"/>
      <point x="474" y="444" type="line"/>
      <point x="199" y="444" type="line"/>
    </contour>
    <contour>
      <point x="474" y="0" type="line"/>
      <point x="475" y="0" type="line"/>
      <point x="641" y="150" type="line"/>
      <point x="641" y="290" type="line"/>
      <point x="475" y="444" type="line"/>
      <point x="474" y="444" type="line"/>
    </contour>
    <contour>
      <point x="198" y="0" type="line"/>
      <point x="199" y="0" type="line"/>
      <point x="199" y="444" type="line"/>
      <point x="198" y="444" type="line"/>
      <point x="32" y="290" type="line"/>
      <point x="32" y="150" type="line"/>
    </contour>
  </outline>
</glyph>
<glyph name="nine.color0" format="2">
  <advance width="600"/>
  <unicode hex="0039"/>
  <outline>
    <contour>
      <point x="182" y="271" type="line"/>
      <point x="458" y="271" type="line"/>
      <point x="458" y="430" type="line"/>
      <point x="182" y="430" type="line"/>
    </contour>
  </outline>
</glyph>
<glyph name="nine.color1" format="2">
  <advance width="600"/>
  <unicode hex="0039"/>
  <outline>
    <contour>
      <point x="458" y="0" type="line"/>
      <point x="459" y="0" type="line"/>
      <point x="624" y="161" type="line"/>
      <point x="624" y="556" type="line"/>
      <point x="458" y="556" type="line"/>
    </contour>
  </outline>
</glyph>
<glyph name="nine.color3" format="2">
  <advance width="600"/>
  <unicode hex="0039"/>
  <outline>
    <contour>
      <point x="181" y="271" type="line"/>
      <point x="182" y="271" type="line"/>
      <point x="182" y="715" type="line"/>
      <point x="181" y="715" type="line"/>
      <point x="16" y="561" type="line"/>
      <point x="16" y="399" type="line"/>
    </contour>
  </outline>
</glyph>
<glyph name="nine.color4" format="2">
  <advance width="600"/>
  <unicode hex="0039"/>
  <outline>
    <contour>
      <point x="182" y="556" type="line"/>
      <point x="624" y="556" type="line"/>
      <point x="624" y="557" type="line"/>
      <point x="467" y="715" type="line"/>
      <point x="182" y="715" type="line"/>
    </contour>
  </outline>
</glyph>
<glyph name="nine" format="2">
  <advance width="672.5"/>
  <unicode hex="0039"/>
  <outline>
    <contour>
      <point x="182" y="271" type="line"/>
      <point x="458" y="271" type="line"/>
      <point x="458" y="430" type="line"/>
      <point x="182" y="430" type="line"/>
    </contour>
    <contour>
      <point x="458" y="0" type="line"/>
      <point x="459" y="0" type="line"/>
      <point x="624" y="161" type="line"/>
      <point x="624" y="556" type="line"/>
      <point x="458" y="556" type="line"/>
    </contour>
    <contour>
      <point x="196" y="0" type="line"/>
      <point x="458" y="0" type="line"/>
      <point x="458" y="159" type="line"/>
      <point x="39" y="159" type="line"/>
      <point x="39" y="158" type="line"/>
    </contour>
    <contour>
      <point x="181" y="271" type="line"/>
      <point x="182" y="271" type="line"/>
      <point x="182" y="715" type="line"/>
      <point x="181" y="715" type="line"/>
      <point x="16" y="561" type="line"/>
      <point x="16" y="399" type="line"/>
    </contour>
    <contour>
      <point x="182" y="556" type="line"/>
      <point x="624" y="556" type="line"/>
      <point x="624" y="557" type="line"/>
      <point x="467" y="715" type="line"/>
      <point x="182" y="715" type="line"/>
    </contour>
  </outline>
</glyph>
<glyph name="colon.color0" format="2">
  <advance width="600"/>
  <unicode hex="003A"/>
  <outline>
    <contour>
      <point x="39" y="40" type="line"/>
      <point x="222" y="40" type="line"/>
      <point x="222" y="199" type="line"/>
      <point x="39" y="199" type="line"/>
    </contour>
  </outline>
</glyph>
<glyph name="colon.color1" format="2">
  <advance width="600"/>
  <unicode hex="003A"/>
  <outline>
    <contour>
      <point x="39" y="311" type="line"/>
      <point x="222" y="311" type="line"/>
      <point x="222" y="470" type="line"/>
      <point x="39" y="470" type="line"/>
    </contour>
  </outline>
</glyph>
<glyph name="colon" format="2">
  <advance width="265.75"/>
  <unicode hex="003A"/>
  <outline>
    <contour>
      <point x="39" y="40" type="line"/>
      <point x="222" y="40" type="line"/>
      <point x="222" y="199" type="line"/>
      <point x="39" y="199" type="line"/>
    </contour>
    <contour>
      <point x="39" y="311" type="line"/>
      <point x="222" y="311" type="line"/>
      <point x="222" y="470" type="line"/>
      <point x="39" y="470" type="line"/>
    </contour>
  </outline>
</glyph>
<glyph name="semicolon.color0" format="2">
  <advance width="600"/>
  <unicode hex="003B"/>
  <outline>
    <contour>
      <point x="34" y="284" type="line"/>
      <point x="217" y="284" type="line"/>
      <point x="217" y="443" type="line"/>
      <point x="34" y="443" type="line"/>
    </contour>
  </outline>
</glyph>
<glyph name="semicolon.color1" format="2">
  <advance width="600"/>
  <unicode hex="003B"/>
  <outline>
    <contour>
      <point x="65" y="13" type="line"/>
      <point x="255" y="13" type="line"/>
      <point x="169" y="172" type="line"/>
      <point x="65" y="172" type="line"/>
    </contour>
  </outline>
</glyph>
<glyph name="semicolon.color2" format="2">
  <advance width="600"/>
  <unicode hex="003B"/>
  <outline>
    <contour>
      <point x="118" y="-160" type="line"/>
      <point x="119" y="-160" type="line"/>
      <point x="255" y="-74" type="line"/>
      <point x="255" y="13" type="line"/>
      <point x="118" y="13" type="line"/>
    </contour>
  </outline>
</glyph>
<glyph name="semicolon" format="2">
  <advance width="259"/>
  <unicode hex="003B"/>
  <outline>
    <contour>
      <point x="34" y="284" type="line"/>
      <point x="217" y="284" type="line"/>
      <point x="217" y="443" type="line"/>
      <point x="34" y="443" type="line"/>
    </contour>
    <contour>
      <point x="65" y="13" type="line"/>
      <point x="255" y="13" type="line"/>
      <point x="169" y="172" type="line"/>
      <point x="65" y="172" type="line"/>
    </contour>
    <contour>
      <point x="118" y="-160" type="line"/>
      <point x="119" y="-160" type="line"/>
      <point x="255" y="-74" type="line"/>
      <point x="255" y="13" type="line"/>
      <point x="118" y="13" type="line"/>
    </contour>
  </outline>
</glyph>
<glyph name="less.color0" format="2">
  <advance width="600"/>
  <unicode hex="003C"/>
  <outline>
    <contour>
      <point x="43" y="336" type="line"/>
      <point x="269" y="336" type="line"/>
      <point x="553" y="564" type="line"/>
      <point x="553" y="565" type="line"/>
      <point x="327" y="565" type="line"/>
      <point x="43" y="337" type="line"/>
    </contour>
  </outline>
</glyph>
<glyph name="less.color1" format="2">
  <advance width="600"/>
  <unicode hex="003C"/>
  <outline>
    <contour>
      <point x="327" y="111" type="line"/>
      <point x="553" y="111" type="line"/>
      <point x="553" y="115" type="line"/>
      <point x="269" y="336" type="line"/>
      <point x="43" y="336" type="line"/>
      <point x="43" y="335" type="line"/>
    </contour>
  </outline>
</glyph>
<glyph name="equal.color0" format="2">
  <advance width="600"/>
  <unicode hex="003D"/>
  <outline>
    <contour>
      <point x="32" y="361" type="line"/>
      <point x="559" y="361" type="line"/>
      <point x="559" y="506" type="line"/>
      <point x="32" y="506" type="line"/>
    </contour>
  </outline>
</glyph>
<glyph name="equal.color1" format="2">
  <advance width="600"/>
  <unicode hex="003D"/>
  <outline>
    <contour>
      <point x="32" y="177" type="line"/>
      <point x="559" y="177" type="line"/>
      <point x="559" y="322" type="line"/>
      <point x="32" y="322" type="line"/>
    </contour>
  </outline>
</glyph>
<glyph name="equal" format="2">
  <advance width="591"/>
  <unicode hex="003D"/>
  <outline>
    <contour>
      <point x="32" y="361" type="line"/>
      <point x="559" y="361" type="line"/>
      <point x="559" y="506" type="line"/>
      <point x="32" y="506" type="line"/>
    </contour>
    <contour>
      <point x="32" y="177" type="line"/>
      <point x="559" y="177" type="line"/>
      <point x="559" y="322" type="line"/>
      <point x="32" y="322" type="line"/>
    </contour>
  </outline>
</glyph>
<glyph name="greater.color0" format="2">
  <advance width="600"/>
  <unicode hex="003E"/>
  <outline>
    <contour>
      <point x="51" y="105" type="line"/>
      <point x="275" y="105" type="line"/>
      <point x="560" y="334" type="line"/>
      <point x="560" y="335" type="line"/>
      <point x="335" y="335" type="line"/>
      <point x="51" y="106" type="line"/>
    </contour>
  </outline>
</glyph>
<glyph name="greater.color1" format="2">
  <advance width="600"/>
  <unicode hex="003E"/>
  <outline>
    <contour>
      <point x="335" y="335" type="line"/>
      <point x="560" y="335" type="line"/>
      <point x="560" y="336" type="line"/>
      <point x="275" y="559" type="line"/>
      <point x="51" y="559" type="line"/>
      <point x="51" y="555" type="line"/>
    </contour>
  </outline>
</glyph>
<glyph name="greater" format="2">
  <advance width="605.5"/>
  <unicode hex="003E"/>
  <outline>
    <contour>
      <point x="51" y="105" type="line"/>
      <point x="275" y="105" type="line"/>
      <point x="560" y="334" type="line"/>
      <point x="560" y="335" type="line"/>
      <point x="335" y="335" type="line"/>
      <point x="51" y="106" type="line"/>
    </contour>
    <contour>
      <point x="335" y="335" type="line"/>
      <point x="560" y="335" type="line"/>
      <point x="560" y="336" type="line"/>
      <point x="275" y="559" type="line"/>
      <point x="51" y="559" type="line"/>
      <point x="51" y="555" type="line"/>
    </contour>
  </outline>
</glyph>
<glyph name="question.color0" format="2">
  <advance width="600"/>
  <unicode hex="003F"/>
  <outline>
    <contour>
      <point x="30" y="564" type="line"/>
      <point x="497" y="564" type="line"/>
      <point x="497" y="723" type="line"/>
      <point x="187" y="723" type="line"/>
      <point x="30" y="565" type="line"/>
    </contour>
  </outline>
</glyph>
<glyph name="question.color1" format="2">
  <advance width="600"/>
  <unicode hex="003F"/>
  <outline>
    <contour>
      <point x="497" y="434" type="line"/>
      <point x="672" y="434" type="line"/>
      <point x="672" y="561" type="line"/>
      <point x="498" y="723" type="line"/>
      <point x="497" y="723" type="line"/>
    </contour>
  </outline>
</glyph>
<glyph name="question.color2" format="2">
  <advance width="600"/>
  <unicode hex="003F"/>
  <outline>
    <contour>
      <point x="351" y="304" type="line"/>
      <point x="515" y="304" type="line"/>
      <point x="672" y="433" type="line"/>
      <point x="672" y="434" type="line"/>
      <point x="351" y="434" type="line"/>
    </contour>
  </outline>
</glyph>
<glyph name="question.color4" format="2">
  <advance width="600"/>
  <unicode hex="003F"/>
  <outline>
    <contour>
      <point x="185" y="200" type="line"/>
      <point x="351" y="200" type="line"/>
      <point x="351" y="434" type="line"/>
      <point x="350" y="434" type="line"/>
      <point x="185" y="280" type="line"/>
    </contour>
  </outline>
</glyph>
<glyph name="question" format="2">
  <advance width="722.25"/>
  <unicode hex="003F"/>
  <outline>
    <contour>
      <point x="30" y="564" type="line"/>
      <point x="497" y="564" type="line"/>
      <point x="497" y="723" type="line"/>
      <point x="187" y="723" type="line"/>
      <point x="30" y="565" type="line"/>
    </contour>
    <contour>
      <point x="497" y="434" type="line"/>
      <point x="672" y="434" type="line"/>
      <point x="672" y="561" type="line"/>
      <point x="498" y="723" type="line"/>
      <point x="497" y="723" type="line"/>
    </contour>
    <contour>
      <point x="351" y="304" type="line"/>
      <point x="515" y="304" type="line"/>
      <point x="672" y="433" type="line"/>
      <point x="672" y="434" type="line"/>
      <point x="351" y="434" type="line"/>
    </contour>
    <contour>
      <point x="185" y="200" type="line"/>
      <point x="351" y="200" type="line"/>
      <point x="351" y="434" type="line"/>
      <point x="350" y="434" type="line"/>
      <point x="185" y="280" type="line"/>
    </contour>
    <component base="period" xOffset="136"/>
  </outline>
</glyph>
<glyph name="at.color0" format="2">
  <advance width="600"/>
  <unicode hex="0040"/>
  <outline>
    <contour>
      <point x="306" y="364" type="line"/>
      <point x="732" y="364" type="line"/>
      <point x="732" y="365" type="line"/>
      <point x="646" y="523" type="line"/>
      <point x="306" y="523" type="line"/>
    </contour>
  </outline>
</glyph>
<glyph name="at.color1" format="2">
  <advance width="600"/>
  <unicode hex="0040"/>
  <outline>
    <contour>
      <point x="76" y="-93" type="line"/>
      <point x="77" y="-93" type="line"/>
      <point x="77" y="591" type="line"/>
      <point x="53" y="591" type="line"/>
      <point x="53" y="-70" type="line"/>
    </contour>
  </outline>
</glyph>
<glyph name="at.color2" format="2">
  <advance width="600"/>
  <unicode hex="0040"/>
  <outline>
    <contour>
      <point x="77" y="-93" type="line"/>
      <point x="807" y="-93" type="line"/>
      <point x="807" y="-69" type="line"/>
      <point x="77" y="-69" type="line"/>
    </contour>
  </outline>
</glyph>
<glyph name="at.color3" format="2">
  <advance width="600"/>
  <unicode hex="0040"/>
  <outline>
    <contour>
      <point x="226" y="0" type="line"/>
      <point x="565" y="0" type="line"/>
      <point x="565" y="159" type="line"/>
      <point x="140" y="159" type="line"/>
      <point x="140" y="158" type="line"/>
    </contour>
  </outline>
</glyph>
<glyph name="at.color4" format="2">
  <advance width="600"/>
  <unicode hex="0040"/>
  <outline>
    <contour>
      <point x="140" y="159" type="line"/>
      <point x="306" y="159" type="line"/>
      <point x="306" y="523" type="line"/>
      <point x="305" y="523" type="line"/>
      <point x="140" y="437" type="line"/>
    </contour>
  </outline>
</glyph>
<glyph name="at.color5" format="2">
  <advance width="600"/>
  <unicode hex="0040"/>
  <outline>
    <contour>
      <point x="732" y="0" type="line"/>
      <point x="732" y="364" type="line"/>
      <point x="565" y="364" type="line"/>
      <point x="565" y="159" type="line"/>
    </contour>
  </outline>
</glyph>
<glyph name="at.color6" format="2">
  <advance width="600"/>
  <unicode hex="0040"/>
  <outline>
    <contour>
      <point x="732" y="0" type="line"/>
      <point x="807" y="0" type="line"/>
      <point x="830" y="23" type="line"/>
      <point x="830" y="24" type="line"/>
      <point x="732" y="24" type="line"/>
    </contour>
  </outline>
</glyph>
<glyph name="at.color7" format="2">
  <advance width="600"/>
  <unicode hex="0040"/>
  <outline>
    <contour>
      <point x="53" y="591" type="line"/>
      <point x="806" y="591" type="line"/>
      <point x="806" y="615" type="line"/>
      <point x="76" y="615" type="line"/>
      <point x="53" y="592" type="line"/>
    </contour>
  </outline>
</glyph>
<glyph name="at.color8" format="2">
  <advance width="600"/>
  <unicode hex="0040"/>
  <outline>
    <contour>
      <point x="806" y="24" type="line"/>
      <point x="830" y="24" type="line"/>
      <point x="830" y="592" type="line"/>
      <point x="807" y="615" type="line"/>
      <point x="806" y="615" type="line"/>
    </contour>
  </outline>
</glyph>
<glyph name="at" format="2">
  <advance width="883"/>
  <unicode hex="0040"/>
  <outline>
    <contour>
      <point x="306" y="364" type="line"/>
      <point x="732" y="364" type="line"/>
      <point x="732" y="365" type="line"/>
      <point x="646" y="523" type="line"/>
      <point x="306" y="523" type="line"/>
    </contour>
    <contour>
      <point x="76" y="-93" type="line"/>
      <point x="77" y="-93" type="line"/>
      <point x="77" y="591" type="line"/>
      <point x="53" y="591" type="line"/>
      <point x="53" y="-70" type="line"/>
    </contour>
    <contour>
      <point x="77" y="-93" type="line"/>
      <point x="807" y="-93" type="line"/>
      <point x="807" y="-69" type="line"/>
      <point x="77" y="-69" type="line"/>
    </contour>
    <contour>
      <point x="226" y="0" type="line"/>
      <point x="565" y="0" type="line"/>
      <point x="565" y="159" type="line"/>
      <point x="140" y="159" type="line"/>
      <point x="140" y="158" type="line"/>
    </contour>
    <contour>
      <point x="140" y="159" type="line"/>
      <point x="306" y="159" type="line"/>
      <point x="306" y="523" type="line"/>
      <point x="305" y="523" type="line"/>
      <point x="140" y="437" type="line"/>
    </contour>
    <contour>
      <point x="732" y="0" type="line"/>
      <point x="732" y="364" type="line"/>
      <point x="565" y="364" type="line"/>
      <point x="565" y="159" type="line"/>
    </contour>
    <contour>
      <point x="732" y="0" type="line"/>
      <point x="807" y="0" type="line"/>
      <point x="830" y="23" type="line"/>
      <point x="830" y="24" type="line"/>
      <point x="732" y="24" type="line"/>
    </contour>
    <contour>
      <point x="53" y="591" type="line"/>
      <point x="806" y="591" type="line"/>
      <point x="806" y="615" type="line"/>
      <point x="76" y="615" type="line"/>
      <point x="53" y="592" type="line"/>
    </contour>
    <contour>
      <point x="806" y="24" type="line"/>
      <point x="830" y="24" type="line"/>
      <point x="830" y="592" type="line"/>
      <point x="807" y="615" type="line"/>
      <point x="806" y="615" type="line"/>
    </contour>
  </outline>
</glyph>
<glyph name="A" format="2">
  <advance width="703.5"/>
  <unicode hex="0041"/>
  <anchor x="380" y="0" name="bottom"/>
  <anchor x="369" y="723" name="top"/>
  <outline>
    <contour>
      <point x="40" y="0" type="line"/>
      <point x="206" y="0" type="line"/>
      <point x="206" y="723" type="line"/>
      <point x="205" y="723" type="line"/>
      <point x="40" y="561" type="line"/>
    </contour>
    <contour>
      <point x="206" y="233" type="line"/>
      <point x="498" y="233" type="line"/>
      <point x="498" y="392" type="line"/>
      <point x="206" y="392" type="line"/>
    </contour>
    <contour>
      <point x="498" y="0" type="line"/>
      <point x="664" y="0" type="line"/>
      <point x="664" y="564" type="line"/>
      <point x="498" y="564" type="line"/>
    </contour>
    <contour>
      <point x="206" y="564" type="line"/>
      <point x="664" y="564" type="line"/>
      <point x="664" y="565" type="line"/>
      <point x="537" y="723" type="line"/>
      <point x="206" y="723" type="line"/>
    </contour>
  </outline>
</glyph>
<glyph name="B.color0" format="2">
  <advance width="600"/>
  <unicode hex="0042"/>
  <outline>
    <contour>
      <point x="40" y="0" type="line"/>
      <point x="580" y="0" type="line"/>
      <point x="580" y="159" type="line"/>
      <point x="40" y="159" type="line"/>
    </contour>
  </outline>
</glyph>
<glyph name="B.color2" format="2">
  <advance width="600"/>
  <unicode hex="0042"/>
  <outline>
    <contour>
      <point x="542" y="286" type="line"/>
      <point x="580" y="286" type="line"/>
      <point x="580" y="445" type="line"/>
      <point x="416" y="445" type="line"/>
      <point x="392" y="444" type="line"/>
    </contour>
  </outline>
</glyph>
<glyph name="B.color3" format="2">
  <advance width="600"/>
  <unicode hex="0042"/>
  <outline>
    <contour>
      <point x="206" y="564" type="line"/>
      <point x="416" y="564" type="line"/>
      <point x="416" y="723" type="line"/>
      <point x="206" y="723" type="line"/>
    </contour>
  </outline>
</glyph>
<glyph name="B.color4" format="2">
  <advance width="600"/>
  <unicode hex="0042"/>
  <outline>
    <contour>
      <point x="598" y="418" type="line"/>
      <point x="598" y="569" type="line"/>
      <point x="417" y="723" type="line"/>
      <point x="416" y="723" type="line"/>
      <point x="416" y="445" type="line"/>
      <point x="566" y="445" type="line"/>
    </contour>
  </outline>
</glyph>
<glyph name="B.color5" format="2">
  <advance width="600"/>
  <unicode hex="0042"/>
  <outline>
    <contour>
      <point x="580" y="0" type="line"/>
      <point x="581" y="0" type="line"/>
      <point x="746" y="150" type="line"/>
      <point x="746" y="294" type="line"/>
      <point x="581" y="445" type="line"/>
      <point x="580" y="445" type="line"/>
    </contour>
  </outline>
</glyph>
<glyph name="B" format="2">
  <advance width="754.75"/>
  <unicode hex="0042"/>
  <outline>
    <contour>
      <point x="40" y="0" type="line"/>
      <point x="580" y="0" type="line"/>
      <point x="580" y="159" type="line"/>
      <point x="40" y="159" type="line"/>
    </contour>
    <contour>
      <point x="40" y="159" type="line"/>
      <point x="206" y="159" type="line"/>
      <point x="206" y="723" type="line"/>
      <point x="40" y="723" type="line"/>
    </contour>
    <contour>
      <point x="542" y="286" type="line"/>
      <point x="580" y="286" type="line"/>
      <point x="580" y="445" type="line"/>
      <point x="416" y="445" type="line"/>
      <point x="392" y="444" type="line"/>
    </contour>
    <contour>
      <point x="206" y="564" type="line"/>
      <point x="416" y="564" type="line"/>
      <point x="416" y="723" type="line"/>
      <point x="206" y="723" type="line"/>
    </contour>
    <contour>
      <point x="598" y="418" type="line"/>
      <point x="598" y="569" type="line"/>
      <point x="417" y="723" type="line"/>
      <point x="416" y="723" type="line"/>
      <point x="416" y="445" type="line"/>
      <point x="566" y="445" type="line"/>
    </contour>
    <contour>
      <point x="580" y="0" type="line"/>
      <point x="581" y="0" type="line"/>
      <point x="746" y="150" type="line"/>
      <point x="746" y="294" type="line"/>
      <point x="581" y="445" type="line"/>
      <point x="580" y="445" type="line"/>
    </contour>
  </outline>
</glyph>
<glyph name="C" format="2">
  <advance width="675.25"/>
  <unicode hex="0043"/>
  <anchor x="397" y="0" name="bottom"/>
  <anchor x="362" y="723" name="top"/>
  <outline>
    <contour>
      <point x="189" y="0" type="line"/>
      <point x="514" y="0" type="line"/>
      <point x="671" y="158" type="line"/>
      <point x="671" y="159" type="line"/>
      <point x="32" y="159" type="line"/>
      <point x="32" y="158" type="line"/>
    </contour>
    <contour>
      <point x="32" y="159" type="line"/>
      <point x="199" y="159" type="line"/>
      <point x="199" y="723" type="line"/>
      <point x="198" y="723" type="line"/>
      <point x="32" y="561" type="line"/>
    </contour>
    <contour>
      <point x="199" y="564" type="line"/>
      <point x="671" y="564" type="line"/>
      <point x="671" y="565" type="line"/>
      <point x="514" y="723" type="line"/>
      <point x="199" y="723" type="line"/>
    </contour>
  </outline>
</glyph>
<glyph name="D.color1" format="2">
  <advance width="600"/>
  <unicode hex="0044"/>
  <outline>
    <contour>
      <point x="40" y="-3" type="line"/>
      <point x="521" y="-3" type="line"/>
      <point x="521" y="156" type="line"/>
      <point x="40" y="156" type="line"/>
    </contour>
  </outline>
</glyph>
<glyph name="D.color3" format="2">
  <advance width="600"/>
  <unicode hex="0044"/>
  <outline>
    <contour>
      <point x="521" y="-3" type="line"/>
      <point x="522" y="-3" type="line"/>
      <point x="687" y="150" type="line"/>
      <point x="687" y="564" type="line"/>
      <point x="521" y="564" type="line"/>
    </contour>
  </outline>
</glyph>
<glyph name="D" format="2">
  <advance width="719"/>
  <unicode hex="0044"/>
  <anchor x="141" y="362" name="stroke"/>
  <anchor x="354" y="723" name="top"/>
  <outline>
    <contour>
      <point x="206" y="564" type="line"/>
      <point x="687" y="564" type="line"/>
      <point x="687" y="565" type="line"/>
      <point x="559" y="723" type="line"/>
      <point x="206" y="723" type="line"/>
    </contour>
    <contour>
      <point x="40" y="-3" type="line"/>
      <point x="521" y="-3" type="line"/>
      <point x="521" y="156" type="line"/>
      <point x="40" y="156" type="line"/>
    </contour>
    <contour>
      <point x="40" y="156" type="line"/>
      <point x="206" y="156" type="line"/>
      <point x="206" y="723" type="line"/>
      <point x="40" y="723" type="line"/>
    </contour>
    <contour>
      <point x="521" y="-3" type="line"/>
      <point x="522" y="-3" type="line"/>
      <point x="687" y="150" type="line"/>
      <point x="687" y="564" type="line"/>
      <point x="521" y="564" type="line"/>
    </contour>
  </outline>
</glyph>
<glyph name="E.color1" format="2">
  <advance width="600"/>
  <unicode hex="0045"/>
  <outline>
    <contour>
      <point x="40" y="159" type="line"/>
      <point x="206" y="159" type="line"/>
      <point x="206" y="723" type="line"/>
      <point x="40" y="723" type="line"/>
    </contour>
  </outline>
</glyph>
<glyph name="F.color0" format="2">
  <advance width="600"/>
  <unicode hex="0046"/>
  <outline>
    <contour>
      <point x="206" y="564" type="line"/>
      <point x="492" y="564" type="line"/>
      <point x="649" y="722" type="line"/>
      <point x="649" y="723" type="line"/>
      <point x="206" y="723" type="line"/>
    </contour>
  </outline>
</glyph>
<glyph name="F.color1" format="2">
  <advance width="600"/>
  <unicode hex="0046"/>
  <outline>
    <contour>
      <point x="40" y="0" type="line"/>
      <point x="206" y="0" type="line"/>
      <point x="206" y="233" type="line"/>
      <point x="40" y="391" type="line"/>
    </contour>
  </outline>
</glyph>
<glyph name="F.color2" format="2">
  <advance width="600"/>
  <unicode hex="0046"/>
  <outline>
    <contour>
      <point x="206" y="233" type="line"/>
      <point x="528" y="233" type="line"/>
      <point x="528" y="392" type="line"/>
      <point x="40" y="392" type="line"/>
      <point x="40" y="391" type="line"/>
    </contour>
  </outline>
</glyph>
<glyph name="F.color3" format="2">
  <advance width="600"/>
  <unicode hex="0046"/>
  <outline>
    <contour>
      <point x="40" y="392" type="line"/>
      <point x="206" y="392" type="line"/>
      <point x="206" y="723" type="line"/>
      <point x="40" y="723" type="line"/>
    </contour>
  </outline>
</glyph>
<glyph name="F" format="2">
  <advance width="645.25"/>
  <unicode hex="0046"/>
  <outline>
    <contour>
      <point x="206" y="564" type="line"/>
      <point x="492" y="564" type="line"/>
      <point x="649" y="722" type="line"/>
      <point x="649" y="723" type="line"/>
      <point x="206" y="723" type="line"/>
    </contour>
    <contour>
      <point x="40" y="0" type="line"/>
      <point x="206" y="0" type="line"/>
      <point x="206" y="233" type="line"/>
      <point x="40" y="391" type="line"/>
    </contour>
    <contour>
      <point x="206" y="233" type="line"/>
      <point x="528" y="233" type="line"/>
      <point x="528" y="392" type="line"/>
      <point x="40" y="392" type="line"/>
      <point x="40" y="391" type="line"/>
    </contour>
    <contour>
      <point x="40" y="392" type="line"/>
      <point x="206" y="392" type="line"/>
      <point x="206" y="723" type="line"/>
      <point x="40" y="723" type="line"/>
    </contour>
  </outline>
</glyph>
<glyph name="G.color3" format="2">
  <advance width="600"/>
  <unicode hex="0047"/>
  <outline>
    <contour>
      <point x="254" y="286" type="line"/>
      <point x="565" y="286" type="line"/>
      <point x="565" y="445" type="line"/>
      <point x="254" y="445" type="line"/>
    </contour>
  </outline>
</glyph>
<glyph name="H.color2" format="2">
  <advance width="600"/>
  <unicode hex="0048"/>
  <outline>
    <contour>
      <point x="206" y="286" type="line"/>
      <point x="503" y="286" type="line"/>
      <point x="503" y="445" type="line"/>
      <point x="206" y="445" type="line"/>
    </contour>
  </outline>
</glyph>
<glyph name="I.color0" format="2">
  <advance width="600"/>
  <unicode hex="0049"/>
  <outline>
    <contour>
      <point x="209" y="0" type="line"/>
      <point x="249" y="0" type="line"/>
      <point x="377" y="159" type="line"/>
      <point x="377" y="723" type="line"/>
      <point x="337" y="723" type="line"/>
      <point x="209" y="564" type="line"/>
    </contour>
  </outline>
</glyph>
<glyph name="I.color2" format="2">
  <advance width="600"/>
  <unicode hex="0049"/>
  <outline>
    <contour>
      <point x="249" y="0" type="line"/>
      <point x="526" y="0" type="line"/>
      <point x="526" y="159" type="line"/>
      <point x="377" y="159" type="line"/>
    </contour>
  </outline>
</glyph>
<glyph name="I.color3" format="2">
  <advance width="600"/>
  <unicode hex="0049"/>
  <outline>
    <contour>
      <point x="24" y="564" type="line"/>
      <point x="209" y="564" type="line"/>
      <point x="337" y="723" type="line"/>
      <point x="24" y="723" type="line"/>
    </contour>
  </outline>
</glyph>
<glyph name="I.color4" format="2">
  <advance width="600"/>
  <unicode hex="0049"/>
  <outline>
    <contour>
      <point x="377" y="564" type="line"/>
      <point x="525" y="564" type="line"/>
      <point x="525" y="723" type="line"/>
      <point x="377" y="723" type="line"/>
    </contour>
  </outline>
</glyph>
<glyph name="J" format="2">
  <advance width="556.25"/>
  <unicode hex="004A"/>
  <anchor x="304" y="723" name="top"/>
  <outline>
    <contour>
      <point x="265" y="156" type="line"/>
      <point x="431" y="156" type="line"/>
      <point x="431" y="723" type="line"/>
      <point x="392" y="723" type="line"/>
      <point x="265" y="564" type="line"/>
    </contour>
    <contour>
      <point x="40" y="-3" type="line"/>
      <point x="303" y="-3" type="line"/>
      <point x="431" y="155" type="line"/>
      <point x="431" y="156" type="line"/>
      <point x="40" y="156" type="line"/>
    </contour>
    <contour>
      <point x="29" y="564" type="line"/>
      <point x="265" y="564" type="line"/>
      <point x="392" y="723" type="line"/>
      <point x="29" y="723" type="line"/>
    </contour>
    <contour>
      <point x="431" y="564" type="line"/>
      <point x="531" y="564" type="line"/>
      <point x="531" y="723" type="line"/>
      <point x="431" y="723" type="line"/>
    </contour>
  </outline>
</glyph>
<glyph name="K.color0" format="2">
  <advance width="600"/>
  <unicode hex="004B"/>
  <outline>
    <contour>
      <point x="512" y="0" type="line"/>
      <point x="722" y="0" type="line"/>
      <point x="722" y="1" type="line"/>
      <point x="494" y="373" type="line"/>
      <point x="359" y="276" type="line"/>
    </contour>
  </outline>
</glyph>
<glyph name="K.color2" format="2">
  <advance width="600"/>
  <unicode hex="004B"/>
  <outline>
    <contour>
      <point x="206" y="271" type="line"/>
      <point x="460" y="271" type="line"/>
      <point x="460" y="430" type="line"/>
      <point x="206" y="430" type="line"/>
    </contour>
  </outline>
</glyph>
<glyph name="K.color3" format="2">
  <advance width="600"/>
  <unicode hex="004B"/>
  <outline>
    <contour>
      <point x="460" y="271" type="line"/>
      <point x="461" y="271" type="line"/>
      <point x="626" y="409" type="line"/>
      <point x="626" y="723" type="line"/>
      <point x="460" y="723" type="line"/>
    </contour>
  </outline>
</glyph>
<glyph name="K" format="2">
  <advance width="727.25"/>
  <unicode hex="004B"/>
  <anchor x="350" y="0" name="bottom"/>
  <outline>
    <contour>
      <point x="512" y="0" type="line"/>
      <point x="722" y="0" type="line"/>
      <point x="722" y="1" type="line"/>
      <point x="494" y="373" type="line"/>
      <point x="359" y="276" type="line"/>
    </contour>
    <contour>
      <point x="40" y="0" type="line"/>
      <point x="206" y="0" type="line"/>
      <point x="206" y="723" type="line"/>
      <point x="40" y="723" type="line"/>
    </contour>
    <contour>
      <point x="206" y="271" type="line"/>
      <point x="460" y="271" type="line"/>
      <point x="460" y="430" type="line"/>
      <point x="206" y="430" type="line"/>
    </contour>
    <contour>
      <point x="460" y="271" type="line"/>
      <point x="461" y="271" type="line"/>
      <point x="626" y="409" type="line"/>
      <point x="626" y="723" type="line"/>
      <point x="460" y="723" type="line"/>
    </contour>
  </outline>
</glyph>
<glyph name="L" format="2">
  <advance width="628.75"/>
  <unicode hex="004C"/>
  <anchor x="341" y="0" name="bottom"/>
  <anchor x="148" y="723" name="top"/>
  <outline>
    <contour>
      <point x="197" y="0" type="line"/>
      <point x="610" y="0" type="line"/>
      <point x="610" y="159" type="line"/>
      <point x="40" y="159" type="line"/>
      <point x="40" y="158" type="line"/>
    </contour>
    <contour>
      <point x="40" y="159" type="line"/>
      <point x="206" y="159" type="line"/>
      <point x="206" y="723" type="line"/>
      <point x="40" y="723" type="line"/>
    </contour>
  </outline>
</glyph>
<glyph name="M.color2" format="2">
  <advance width="600"/>
  <unicode hex="004D"/>
  <outline>
    <contour>
      <point x="383" y="-5" type="line"/>
      <point x="542" y="-5" type="line"/>
      <point x="542" y="-4" type="line"/>
      <point x="206" y="728" type="line"/>
      <point x="205" y="728" type="line"/>
      <point x="40" y="722" type="line"/>
    </contour>
  </outline>
</glyph>
<glyph name="M.color3" format="2">
  <advance width="600"/>
  <unicode hex="004D"/>
  <outline>
    <contour>
      <point x="712" y="0" type="line"/>
      <point x="879" y="0" type="line"/>
      <point x="887" y="722" type="line"/>
      <point x="713" y="728" type="line"/>
      <point x="712" y="728" type="line"/>
    </contour>
  </outline>
</glyph>
<glyph name="M" format="2">
  <advance width="927"/>
  <unicode hex="004D"/>
  <outline>
    <contour>
      <point x="448" y="119" type="line"/>
      <point x="542" y="-5" type="line"/>
      <point x="801" y="518" type="line"/>
      <point x="712" y="728" type="line"/>
    </contour>
    <contour>
      <point x="40" y="0" type="line"/>
      <point x="206" y="0" type="line"/>
      <point x="206" y="432" type="line"/>
      <point x="40" y="722" type="line"/>
    </contour>
    <contour>
      <point x="383" y="-5" type="line"/>
      <point x="542" y="-5" type="line"/>
      <point x="542" y="-4" type="line"/>
      <point x="206" y="728" type="line"/>
      <point x="205" y="728" type="line"/>
      <point x="40" y="722" type="line"/>
    </contour>
    <contour>
      <point x="712" y="0" type="line"/>
      <point x="879" y="0" type="line"/>
      <point x="887" y="722" type="line"/>
      <point x="713" y="728" type="line"/>
      <point x="712" y="728" type="line"/>
    </contour>
  </outline>
</glyph>
<glyph name="P.color0" format="2">
  <advance width="600"/>
  <unicode hex="0050"/>
  <outline>
    <contour>
      <point x="40" y="0" type="line"/>
      <point x="206" y="0" type="line"/>
      <point x="206" y="723" type="line"/>
      <point x="205" y="723" type="line"/>
      <point x="40" y="717" type="line"/>
    </contour>
  </outline>
</glyph>
<glyph name="P.color2" format="2">
  <advance width="600"/>
  <unicode hex="0050"/>
  <outline>
    <contour>
      <point x="498" y="218" type="line"/>
      <point x="499" y="218" type="line"/>
      <point x="664" y="372" type="line"/>
      <point x="664" y="564" type="line"/>
      <point x="498" y="564" type="line"/>
    </contour>
  </outline>
</glyph>
<glyph name="P.color3" format="2">
  <advance width="600"/>
  <unicode hex="0050"/>
  <outline>
    <contour>
      <point x="206" y="564" type="line"/>
      <point x="664" y="564" type="line"/>
      <point x="664" y="565" type="line"/>
      <point x="507" y="723" type="line"/>
      <point x="206" y="723" type="line"/>
    </contour>
  </outline>
</glyph>
<glyph name="P" format="2">
  <advance width="677.5"/>
  <unicode hex="0050"/>
  <outline>
    <contour>
      <point x="40" y="0" type="line"/>
      <point x="206" y="0" type="line"/>
      <point x="206" y="723" type="line"/>
      <point x="205" y="723" type="line"/>
      <point x="40" y="717" type="line"/>
    </contour>
    <contour>
      <point x="206" y="218" type="line"/>
      <point x="498" y="218" type="line"/>
      <point x="498" y="377" type="line"/>
      <point x="206" y="377" type="line"/>
    </contour>
    <contour>
      <point x="498" y="218" type="line"/>
      <point x="499" y="218" type="line"/>
      <point x="664" y="372" type="line"/>
      <point x="664" y="564" type="line"/>
      <point x="498" y="564" type="line"/>
    </contour>
    <contour>
      <point x="206" y="564" type="line"/>
      <point x="664" y="564" type="line"/>
      <point x="664" y="565" type="line"/>
      <point x="507" y="723" type="line"/>
      <point x="206" y="723" type="line"/>
    </contour>
  </outline>
</glyph>
<glyph name="Q.color0" format="2">
  <advance width="600"/>
  <unicode hex="0051"/>
  <outline>
    <contour>
      <point x="609" y="83" type="line"/>
      <point x="657" y="150" type="line"/>
      <point x="657" y="564" type="line"/>
      <point x="490" y="564" type="line"/>
      <point x="490" y="159" type="line"/>
      <point x="548" y="159" type="line"/>
    </contour>
  </outline>
</glyph>
<glyph name="Q.color1" format="2">
  <advance width="600"/>
  <unicode hex="0051"/>
  <outline>
    <contour>
      <point x="189" y="0" type="line"/>
      <point x="723" y="0" type="line"/>
      <point x="723" y="1" type="line"/>
      <point x="565" y="159" type="line"/>
      <point x="32" y="159" type="line"/>
      <point x="32" y="158" type="line"/>
    </contour>
  </outline>
</glyph>
<glyph name="Q.color3" format="2">
  <advance width="600"/>
  <unicode hex="0051"/>
  <outline>
    <contour>
      <point x="199" y="564" type="line"/>
      <point x="657" y="564" type="line"/>
      <point x="657" y="565" type="line"/>
      <point x="499" y="723" type="line"/>
      <point x="199" y="723" type="line"/>
    </contour>
  </outline>
</glyph>
<glyph name="Q" format="2">
  <advance width="719.25"/>
  <unicode hex="0051"/>
  <outline>
    <contour>
      <point x="609" y="83" type="line"/>
      <point x="657" y="150" type="line"/>
      <point x="657" y="564" type="line"/>
      <point x="490" y="564" type="line"/>
      <point x="490" y="159" type="line"/>
      <point x="548" y="159" type="line"/>
    </contour>
    <contour>
      <point x="189" y="0" type="line"/>
      <point x="723" y="0" type="line"/>
      <point x="723" y="1" type="line"/>
      <point x="565" y="159" type="line"/>
      <point x="32" y="159" type="line"/>
      <point x="32" y="158" type="line"/>
    </contour>
    <contour>
      <point x="32" y="159" type="line"/>
      <point x="199" y="159" type="line"/>
      <point x="199" y="723" type="line"/>
      <point x="198" y="723" type="line"/>
      <point x="32" y="561" type="line"/>
    </contour>
    <contour>
      <point x="199" y="564" type="line"/>
      <point x="657" y="564" type="line"/>
      <point x="657" y="565" type="line"/>
      <point x="499" y="723" type="line"/>
      <point x="199" y="723" type="line"/>
    </contour>
  </outline>
</glyph>
<glyph name="R.color0" format="2">
  <advance width="600"/>
  <unicode hex="0052"/>
  <outline>
    <contour>
      <point x="40" y="0" type="line"/>
      <point x="206" y="0" type="line"/>
      <point x="206" y="723" type="line"/>
      <point x="40" y="723" type="line"/>
    </contour>
  </outline>
</glyph>
<glyph name="R" format="2">
  <advance width="706"/>
  <unicode hex="0052"/>
  <anchor x="346" y="0" name="bottom"/>
  <anchor x="346" y="723" name="top"/>
  <outline>
    <contour>
      <point x="40" y="0" type="line"/>
      <point x="206" y="0" type="line"/>
      <point x="206" y="723" type="line"/>
      <point x="40" y="723" type="line"/>
    </contour>
    <contour>
      <point x="470" y="0" type="line"/>
      <point x="679" y="0" type="line"/>
      <point x="679" y="1" type="line"/>
      <point x="505" y="340" type="line"/>
      <point x="365" y="246" type="line"/>
    </contour>
    <contour>
      <point x="206" y="233" type="line"/>
      <point x="490" y="233" type="line"/>
      <point x="490" y="392" type="line"/>
      <point x="206" y="392" type="line"/>
    </contour>
    <contour>
      <point x="490" y="233" type="line"/>
      <point x="491" y="233" type="line"/>
      <point x="657" y="372" type="line"/>
      <point x="657" y="564" type="line"/>
      <point x="490" y="564" type="line"/>
    </contour>
    <contour>
      <point x="206" y="564" type="line"/>
      <point x="657" y="564" type="line"/>
      <point x="657" y="565" type="line"/>
      <point x="499" y="723" type="line"/>
      <point x="206" y="723" type="line"/>
    </contour>
  </outline>
</glyph>
<glyph name="S.color4" format="2">
  <advance width="600"/>
  <unicode hex="0053"/>
  <outline>
    <contour>
      <point x="475" y="0" type="line"/>
      <point x="476" y="0" type="line"/>
      <point x="641" y="150" type="line"/>
      <point x="641" y="290" type="line"/>
      <point x="476" y="444" type="line"/>
      <point x="475" y="444" type="line"/>
    </contour>
  </outline>
</glyph>
<glyph name="T.color0" format="2">
  <advance width="600"/>
  <unicode hex="0054"/>
  <outline>
    <contour>
      <point x="265" y="0" type="line"/>
      <point x="432" y="0" type="line"/>
      <point x="432" y="723" type="line"/>
      <point x="392" y="723" type="line"/>
      <point x="266" y="564" type="line"/>
    </contour>
  </outline>
</glyph>
<glyph name="T.color1" format="2">
  <advance width="600"/>
  <unicode hex="0054"/>
  <outline>
    <contour>
      <point x="24" y="564" type="line"/>
      <point x="266" y="564" type="line"/>
      <point x="392" y="723" type="line"/>
      <point x="24" y="723" type="line"/>
    </contour>
  </outline>
</glyph>
<glyph name="T.color2" format="2">
  <advance width="600"/>
  <unicode hex="0054"/>
  <outline>
    <contour>
      <point x="432" y="564" type="line"/>
      <point x="688" y="564" type="line"/>
      <point x="688" y="723" type="line"/>
      <point x="432" y="723" type="line"/>
    </contour>
  </outline>
</glyph>
<glyph name="T" format="2">
  <advance width="712.25"/>
  <unicode hex="0054"/>
  <anchor x="349" y="0" name="bottom"/>
  <anchor x="363" y="365" name="stroke"/>
  <anchor x="366" y="723" name="top"/>
  <outline>
    <contour>
      <point x="265" y="0" type="line"/>
      <point x="432" y="0" type="line"/>
      <point x="432" y="723" type="line"/>
      <point x="392" y="723" type="line"/>
      <point x="266" y="564" type="line"/>
    </contour>
    <contour>
      <point x="24" y="564" type="line"/>
      <point x="266" y="564" type="line"/>
      <point x="392" y="723" type="line"/>
      <point x="24" y="723" type="line"/>
    </contour>
    <contour>
      <point x="432" y="564" type="line"/>
      <point x="688" y="564" type="line"/>
      <point x="688" y="723" type="line"/>
      <point x="432" y="723" type="line"/>
    </contour>
  </outline>
</glyph>
<glyph name="U" format="2">
  <advance width="696"/>
  <unicode hex="0055"/>
  <anchor x="365" y="0" name="bottom"/>
  <anchor x="657" y="723" name="horn"/>
  <anchor x="363" y="723" name="top"/>
  <outline>
    <contour>
      <point x="490" y="0" type="line"/>
      <point x="491" y="0" type="line"/>
      <point x="657" y="161" type="line"/>
      <point x="657" y="723" type="line"/>
      <point x="490" y="723" type="line"/>
    </contour>
    <contour>
      <point x="197" y="0" type="line"/>
      <point x="490" y="0" type="line"/>
      <point x="490" y="159" type="line"/>
      <point x="40" y="159" type="line"/>
      <point x="40" y="158" type="line"/>
    </contour>
    <contour>
      <point x="40" y="159" type="line"/>
      <point x="206" y="159" type="line"/>
      <point x="206" y="723" type="line"/>
      <point x="40" y="723" type="line"/>
    </contour>
  </outline>
</glyph>
<glyph name="V.color0" format="2">
  <advance width="600"/>
  <unicode hex="0056"/>
  <outline>
    <contour>
      <point x="265" y="0" type="line"/>
      <point x="266" y="0" type="line"/>
      <point x="375" y="147" type="line"/>
      <point x="195" y="723" type="line"/>
      <point x="5" y="723" type="line"/>
      <point x="5" y="722" type="line"/>
    </contour>
  </outline>
</glyph>
<glyph name="V.color1" format="2">
  <advance width="600"/>
  <unicode hex="0056"/>
  <outline>
    <contour>
      <point x="266" y="0" type="line"/>
      <point x="425" y="0" type="line"/>
      <point x="705" y="722" type="line"/>
      <point x="705" y="723" type="line"/>
      <point x="516" y="723" type="line"/>
    </contour>
  </outline>
</glyph>
<glyph name="V" format="2">
  <advance width="710"/>
  <unicode hex="0056"/>
  <outline>
    <contour>
      <point x="265" y="0" type="line"/>
      <point x="266" y="0" type="line"/>
      <point x="375" y="147" type="line"/>
      <point x="195" y="723" type="line"/>
      <point x="5" y="723" type="line"/>
      <point x="5" y="722" type="line"/>
    </contour>
    <contour>
      <point x="266" y="0" type="line"/>
      <point x="425" y="0" type="line"/>
      <point x="705" y="722" type="line"/>
      <point x="705" y="723" type="line"/>
      <point x="516" y="723" type="line"/>
    </contour>
  </outline>
</glyph>
<glyph name="W.color0" format="2">
  <advance width="600"/>
  <unicode hex="0057"/>
  <outline>
    <contour>
      <point x="642" y="0" type="line"/>
      <point x="643" y="0" type="line"/>
      <point x="745" y="147" type="line"/>
      <point x="580" y="723" type="line"/>
      <point x="421" y="723" type="line"/>
    </contour>
  </outline>
</glyph>
<glyph name="W.color2" format="2">
  <advance width="600"/>
  <unicode hex="0057"/>
  <outline>
    <contour>
      <point x="206" y="0" type="line"/>
      <point x="349" y="0" type="line"/>
      <point x="580" y="723" type="line"/>
      <point x="421" y="723" type="line"/>
    </contour>
  </outline>
</glyph>
<glyph name="W.color3" format="2">
  <advance width="600"/>
  <unicode hex="0057"/>
  <outline>
    <contour>
      <point x="643" y="0" type="line"/>
      <point x="782" y="0" type="line"/>
      <point x="996" y="722" type="line"/>
      <point x="996" y="723" type="line"/>
      <point x="808" y="723" type="line"/>
    </contour>
  </outline>
</glyph>
<glyph name="X.color0" format="2">
  <advance width="600"/>
  <unicode hex="0058"/>
  <outline>
    <contour>
      <point x="237" y="361" type="line"/>
      <point x="238" y="361" type="line"/>
      <point x="339" y="496" type="line"/>
      <point x="211" y="723" type="line"/>
      <point x="22" y="723" type="line"/>
      <point x="22" y="722" type="line"/>
    </contour>
  </outline>
</glyph>
<glyph name="X.color1" format="2">
  <advance width="600"/>
  <unicode hex="0058"/>
  <outline>
    <contour>
      <point x="443" y="0" type="line"/>
      <point x="632" y="0" type="line"/>
      <point x="632" y="1" type="line"/>
      <point x="417" y="361" type="line"/>
      <point x="416" y="361" type="line"/>
      <point x="315" y="227" type="line"/>
    </contour>
  </outline>
</glyph>
<glyph name="X.color2" format="2">
  <advance width="600"/>
  <unicode hex="0058"/>
  <outline>
    <contour>
      <point x="8" y="0" type="line"/>
      <point x="203" y="0" type="line"/>
      <point x="416" y="361" type="line"/>
      <point x="237" y="361" type="line"/>
      <point x="8" y="1" type="line"/>
    </contour>
  </outline>
</glyph>
<glyph name="X.color3" format="2">
  <advance width="600"/>
  <unicode hex="0058"/>
  <outline>
    <contour>
      <point x="238" y="361" type="line"/>
      <point x="417" y="361" type="line"/>
      <point x="644" y="722" type="line"/>
      <point x="644" y="723" type="line"/>
      <point x="449" y="723" type="line"/>
    </contour>
  </outline>
</glyph>
<glyph name="X" format="2">
  <advance width="652"/>
  <unicode hex="0058"/>
  <outline>
    <contour>
      <point x="237" y="361" type="line"/>
      <point x="238" y="361" type="line"/>
      <point x="339" y="496" type="line"/>
      <point x="211" y="723" type="line"/>
      <point x="22" y="723" type="line"/>
      <point x="22" y="722" type="line"/>
    </contour>
    <contour>
      <point x="443" y="0" type="line"/>
      <point x="632" y="0" type="line"/>
      <point x="632" y="1" type="line"/>
      <point x="417" y="361" type="line"/>
      <point x="416" y="361" type="line"/>
      <point x="315" y="227" type="line"/>
    </contour>
    <contour>
      <point x="8" y="0" type="line"/>
      <point x="203" y="0" type="line"/>
      <point x="416" y="361" type="line"/>
      <point x="237" y="361" type="line"/>
      <point x="8" y="1" type="line"/>
    </contour>
    <contour>
      <point x="238" y="361" type="line"/>
      <point x="417" y="361" type="line"/>
      <point x="644" y="722" type="line"/>
      <point x="644" y="723" type="line"/>
      <point x="449" y="723" type="line"/>
    </contour>
  </outline>
</glyph>
<glyph name="Y.color0" format="2">
  <advance width="600"/>
  <unicode hex="0059"/>
  <outline>
    <contour>
      <point x="249" y="301" type="line"/>
      <point x="250" y="301" type="line"/>
      <point x="332" y="439" type="line"/>
      <point x="187" y="723" type="line"/>
      <point x="5" y="723" type="line"/>
      <point x="5" y="722" type="line"/>
    </contour>
  </outline>
</glyph>
<glyph name="Y.color2" format="2">
  <advance width="600"/>
  <unicode hex="0059"/>
  <outline>
    <contour>
      <point x="250" y="301" type="line"/>
      <point x="416" y="301" type="line"/>
      <point x="641" y="722" type="line"/>
      <point x="641" y="723" type="line"/>
      <point x="460" y="723" type="line"/>
    </contour>
  </outline>
</glyph>
<glyph name="Y" format="2">
  <advance width="646"/>
  <unicode hex="0059"/>
  <anchor x="330" y="0" name="bottom"/>
  <anchor x="332" y="723" name="top"/>
  <outline>
    <contour>
      <point x="249" y="301" type="line"/>
      <point x="250" y="301" type="line"/>
      <point x="332" y="439" type="line"/>
      <point x="187" y="723" type="line"/>
      <point x="5" y="723" type="line"/>
      <point x="5" y="722" type="line"/>
    </contour>
    <contour>
      <point x="249" y="0" type="line"/>
      <point x="416" y="0" type="line"/>
      <point x="416" y="301" type="line"/>
      <point x="249" y="301" type="line"/>
    </contour>
    <contour>
      <point x="250" y="301" type="line"/>
      <point x="416" y="301" type="line"/>
      <point x="641" y="722" type="line"/>
      <point x="641" y="723" type="line"/>
      <point x="460" y="723" type="line"/>
    </contour>
  </outline>
</glyph>
<glyph name="Z.color0" format="2">
  <advance width="600"/>
  <unicode hex="005A"/>
  <outline>
    <contour>
      <point x="34" y="564" type="line"/>
      <point x="474" y="564" type="line"/>
      <point x="495" y="723" type="line"/>
      <point x="34" y="723" type="line"/>
    </contour>
  </outline>
</glyph>
<glyph name="Z.color1" format="2">
  <advance width="600"/>
  <unicode hex="005A"/>
  <outline>
    <contour>
      <point x="197" y="87" type="line"/>
      <point x="605" y="591" type="line"/>
      <point x="495" y="723" type="line"/>
      <point x="39" y="160" type="line"/>
      <point x="39" y="159" type="line"/>
    </contour>
  </outline>
</glyph>
<glyph name="Z.color2" format="2">
  <advance width="600"/>
  <unicode hex="005A"/>
  <outline>
    <contour>
      <point x="45" y="0" type="line"/>
      <point x="610" y="0" type="line"/>
      <point x="610" y="159" type="line"/>
      <point x="39" y="159" type="line"/>
    </contour>
  </outline>
</glyph>
<glyph name="Z" format="2">
  <advance width="644.25"/>
  <unicode hex="005A"/>
  <anchor x="319" y="723" name="top"/>
  <outline>
    <contour>
      <point x="34" y="564" type="line"/>
      <point x="474" y="564" type="line"/>
      <point x="495" y="723" type="line"/>
      <point x="34" y="723" type="line"/>
    </contour>
    <contour>
      <point x="197" y="87" type="line"/>
      <point x="605" y="591" type="line"/>
      <point x="495" y="723" type="line"/>
      <point x="39" y="160" type="line"/>
      <point x="39" y="159" type="line"/>
    </contour>
    <contour>
      <point x="45" y="0" type="line"/>
      <point x="610" y="0" type="line"/>
      <point x="610" y="159" type="line"/>
      <point x="39" y="159" type="line"/>
    </contour>
  </outline>
</glyph>
<glyph name="bracketleft.color0" format="2">
  <advance width="600"/>
  <unicode hex="005B"/>
  <outline>
    <contour>
      <point x="54" y="59" type="line"/>
      <point x="221" y="59" type="line"/>
      <point x="221" y="723" type="line"/>
      <point x="54" y="723" type="line"/>
    </contour>
  </outline>
</glyph>
<glyph name="bracketleft.color2" format="2">
  <advance width="600"/>
  <unicode hex="005B"/>
  <outline>
    <contour>
      <point x="221" y="564" type="line"/>
      <point x="439" y="564" type="line"/>
      <point x="439" y="723" type="line"/>
      <point x="221" y="723" type="line"/>
    </contour>
  </outline>
</glyph>
<glyph name="bracketleft" format="2">
  <advance width="480.5"/>
  <unicode hex="005B"/>
  <outline>
    <contour>
      <point x="54" y="59" type="line"/>
      <point x="221" y="59" type="line"/>
      <point x="221" y="723" type="line"/>
      <point x="54" y="723" type="line"/>
    </contour>
    <contour>
      <point x="54" y="-100" type="line"/>
      <point x="439" y="-100" type="line"/>
      <point x="439" y="59" type="line"/>
      <point x="54" y="59" type="line"/>
    </contour>
    <contour>
      <point x="221" y="564" type="line"/>
      <point x="439" y="564" type="line"/>
      <point x="439" y="723" type="line"/>
      <point x="221" y="723" type="line"/>
    </contour>
  </outline>
</glyph>
<glyph name="backslash" format="2">
  <advance width="513"/>
  <unicode hex="005C"/>
  <outline>
    <contour>
      <point x="335" y="-100" type="line"/>
      <point x="517" y="-100" type="line"/>
      <point x="517" y="-99" type="line"/>
      <point x="185" y="785" type="line"/>
      <point x="4" y="785" type="line"/>
      <point x="4" y="784" type="line"/>
    </contour>
  </outline>
</glyph>
<glyph name="bracketright.color0" format="2">
  <advance width="600"/>
  <unicode hex="005D"/>
  <outline>
    <contour>
      <point x="250" y="-100" type="line"/>
      <point x="416" y="-100" type="line"/>
      <point x="416" y="564" type="line"/>
      <point x="250" y="564" type="line"/>
    </contour>
  </outline>
</glyph>
<glyph name="bracketright.color2" format="2">
  <advance width="600"/>
  <unicode hex="005D"/>
  <outline>
    <contour>
      <point x="31" y="564" type="line"/>
      <point x="416" y="564" type="line"/>
      <point x="416" y="723" type="line"/>
      <point x="31" y="723" type="line"/>
    </contour>
  </outline>
</glyph>
<glyph name="bracketright" format="2">
  <advance width="470.5"/>
  <unicode hex="005D"/>
  <outline>
    <contour>
      <point x="250" y="-100" type="line"/>
      <point x="416" y="-100" type="line"/>
      <point x="416" y="564" type="line"/>
      <point x="250" y="564" type="line"/>
    </contour>
    <contour>
      <point x="31" y="-100" type="line"/>
      <point x="250" y="-100" type="line"/>
      <point x="250" y="59" type="line"/>
      <point x="31" y="59" type="line"/>
    </contour>
    <contour>
      <point x="31" y="564" type="line"/>
      <point x="416" y="564" type="line"/>
      <point x="416" y="723" type="line"/>
      <point x="31" y="723" type="line"/>
    </contour>
  </outline>
</glyph>
<glyph name="asciicircum.color0" format="2">
  <advance width="600"/>
  <unicode hex="005E"/>
  <outline>
    <contour>
      <point x="40" y="348" type="line"/>
      <point x="215" y="348" type="line"/>
      <point x="418" y="723" type="line"/>
      <point x="261" y="723" type="line"/>
      <point x="40" y="349" type="line"/>
    </contour>
  </outline>
</glyph>
<glyph name="asciicircum.color1" format="2">
  <advance width="600"/>
  <unicode hex="005E"/>
  <outline>
    <contour>
      <point x="442" y="348" type="line"/>
      <point x="617" y="348" type="line"/>
      <point x="617" y="349" type="line"/>
      <point x="418" y="723" type="line"/>
      <point x="261" y="723" type="line"/>
    </contour>
  </outline>
</glyph>
<glyph name="asciicircum" format="2">
  <advance width="656.5"/>
  <unicode hex="005E"/>
  <outline>
    <contour>
      <point x="40" y="348" type="line"/>
      <point x="215" y="348" type="line"/>
      <point x="418" y="723" type="line"/>
      <point x="261" y="723" type="line"/>
      <point x="40" y="349" type="line"/>
    </contour>
    <contour>
      <point x="442" y="348" type="line"/>
      <point x="617" y="348" type="line"/>
      <point x="617" y="349" type="line"/>
      <point x="418" y="723" type="line"/>
      <point x="261" y="723" type="line"/>
    </contour>
  </outline>
</glyph>
<glyph name="underscore" format="2">
  <advance width="961.5"/>
  <unicode hex="005F"/>
  <outline>
    <contour>
      <point x="40" y="-144" type="line"/>
      <point x="922" y="-144" type="line"/>
      <point x="922" y="0" type="line"/>
      <point x="40" y="0" type="line"/>
    </contour>
  </outline>
</glyph>
<glyph name="grave" format="2">
  <advance width="600"/>
  <unicode hex="0060"/>
  <anchor x="332" y="523" name="_top"/>
  <outline>
    <contour>
      <point x="293" y="585" type="line"/>
      <point x="379" y="585" type="line"/>
      <point x="346" y="790" type="line"/>
      <point x="206" y="790" type="line"/>
      <point x="206" y="789" type="line"/>
    </contour>
  </outline>
</glyph>
<glyph name="a.color0" format="2">
  <advance width="600"/>
  <unicode hex="0061"/>
  <outline>
    <contour>
      <point x="205" y="364" type="line"/>
      <point x="631" y="364" type="line"/>
      <point x="631" y="365" type="line"/>
      <point x="545" y="523" type="line"/>
      <point x="205" y="523" type="line"/>
    </contour>
  </outline>
</glyph>
<glyph name="b.color0" format="2">
  <advance width="600"/>
  <unicode hex="0062"/>
  <outline>
    <contour>
      <point x="39" y="159" type="line"/>
      <point x="206" y="159" type="line"/>
      <point x="205" y="778" type="line"/>
      <point x="39" y="778" type="line"/>
    </contour>
  </outline>
</glyph>
<glyph name="b.color1" format="2">
  <advance width="600"/>
  <unicode hex="0062"/>
  <outline>
    <contour>
      <point x="121" y="0" type="line"/>
      <point x="450" y="0" type="line"/>
      <point x="450" y="159" type="line"/>
      <point x="39" y="159" type="line"/>
      <point x="39" y="158" type="line"/>
    </contour>
  </outline>
</glyph>
<glyph name="b" format="2">
  <advance width="655.5"/>
  <unicode hex="0062"/>
  <outline>
    <contour>
      <point x="39" y="159" type="line"/>
      <point x="206" y="159" type="line"/>
      <point x="205" y="778" type="line"/>
      <point x="39" y="778" type="line"/>
    </contour>
    <contour>
      <point x="121" y="0" type="line"/>
      <point x="450" y="0" type="line"/>
      <point x="450" y="159" type="line"/>
      <point x="39" y="159" type="line"/>
      <point x="39" y="158" type="line"/>
    </contour>
    <contour>
      <point x="450" y="0" type="line"/>
      <point x="451" y="0" type="line"/>
      <point x="616" y="86" type="line"/>
      <point x="616" y="364" type="line"/>
      <point x="450" y="364" type="line"/>
    </contour>
    <contour>
      <point x="206" y="364" type="line"/>
      <point x="616" y="364" type="line"/>
      <point x="616" y="365" type="line"/>
      <point x="535" y="523" type="line"/>
      <point x="206" y="523" type="line"/>
    </contour>
  </outline>
</glyph>
<glyph name="c.color2" format="2">
  <advance width="600"/>
  <unicode hex="0063"/>
  <outline>
    <contour>
      <point x="209" y="364" type="line"/>
      <point x="597" y="364" type="line"/>
      <point x="597" y="365" type="line"/>
      <point x="511" y="523" type="line"/>
      <point x="209" y="523" type="line"/>
    </contour>
  </outline>
</glyph>
<glyph name="c" format="2">
  <advance width="609.5"/>
  <unicode hex="0063"/>
  <anchor x="333" y="0" name="bottom"/>
  <anchor x="345" y="523" name="top"/>
  <outline>
    <contour>
      <point x="128" y="0" type="line"/>
      <point x="509" y="0" type="line"/>
      <point x="595" y="158" type="line"/>
      <point x="595" y="159" type="line"/>
      <point x="42" y="159" type="line"/>
      <point x="42" y="158" type="line"/>
    </contour>
    <contour>
      <point x="42" y="159" type="line"/>
      <point x="209" y="159" type="line"/>
      <point x="209" y="523" type="line"/>
      <point x="208" y="523" type="line"/>
      <point x="42" y="437" type="line"/>
    </contour>
    <contour>
      <point x="209" y="364" type="line"/>
      <point x="597" y="364" type="line"/>
      <point x="597" y="365" type="line"/>
      <point x="511" y="523" type="line"/>
      <point x="209" y="523" type="line"/>
    </contour>
  </outline>
</glyph>
<glyph name="d.color1" format="2">
  <advance width="600"/>
  <unicode hex="0064"/>
  <outline>
    <contour>
      <point x="213" y="364" type="line"/>
      <point x="624" y="364" type="line"/>
      <point x="624" y="365" type="line"/>
      <point x="497" y="523" type="line"/>
      <point x="213" y="523" type="line"/>
    </contour>
  </outline>
</glyph>
<glyph name="d.color4" format="2">
  <advance width="600"/>
  <unicode hex="0064"/>
  <outline>
    <contour>
      <point x="457" y="0" type="line"/>
      <point x="458" y="0" type="line"/>
      <point x="624" y="86" type="line"/>
      <point x="624" y="364" type="line"/>
      <point x="457" y="364" type="line"/>
    </contour>
  </outline>
</glyph>
<glyph name="d" format="2">
  <advance width="662.75"/>
  <unicode hex="0064"/>
  <anchor x="427" y="637" name="stroke"/>
  <anchor x="549" y="778" name="top"/>
  <outline>
    <contour>
      <point x="623" y="366" type="line"/>
      <point x="624" y="366" type="line"/>
      <point x="624" y="778" type="line"/>
      <point x="457" y="778" type="line"/>
      <point x="457" y="523" type="line"/>
    </contour>
    <contour>
      <point x="213" y="364" type="line"/>
      <point x="624" y="364" type="line"/>
      <point x="624" y="365" type="line"/>
      <point x="497" y="523" type="line"/>
      <point x="213" y="523" type="line"/>
    </contour>
    <contour>
      <point x="128" y="0" type="line"/>
      <point x="457" y="0" type="line"/>
      <point x="457" y="159" type="line"/>
      <point x="46" y="159" type="line"/>
      <point x="46" y="158" type="line"/>
    </contour>
    <contour>
      <point x="46" y="159" type="line"/>
      <point x="213" y="159" type="line"/>
      <point x="213" y="523" type="line"/>
      <point x="212" y="523" type="line"/>
      <point x="46" y="437" type="line"/>
    </contour>
    <contour>
      <point x="457" y="0" type="line"/>
      <point x="458" y="0" type="line"/>
      <point x="624" y="86" type="line"/>
      <point x="624" y="364" type="line"/>
      <point x="457" y="364" type="line"/>
    </contour>
  </outline>
</glyph>
<glyph name="f.color0" format="2">
  <advance width="600"/>
  <unicode hex="0066"/>
  <outline>
    <contour>
      <point x="205" y="218" type="line"/>
      <point x="470" y="218" type="line"/>
      <point x="470" y="377" type="line"/>
      <point x="40" y="377" type="line"/>
    </contour>
  </outline>
</glyph>
<glyph name="f.color1" format="2">
  <advance width="600"/>
  <unicode hex="0066"/>
  <outline>
    <contour>
      <point x="39" y="0" type="line"/>
      <point x="205" y="0" type="line"/>
      <point x="205" y="218" type="line"/>
      <point x="40" y="377" type="line"/>
      <point x="39" y="377" type="line"/>
    </contour>
  </outline>
</glyph>
<glyph name="f.color2" format="2">
  <advance width="600"/>
  <unicode hex="0066"/>
  <outline>
    <contour>
      <point x="39" y="377" type="line"/>
      <point x="205" y="377" type="line"/>
      <point x="205" y="702" type="line"/>
      <point x="204" y="702" type="line"/>
      <point x="39" y="616" type="line"/>
    </contour>
  </outline>
</glyph>
<glyph name="f.color3" format="2">
  <advance width="600"/>
  <unicode hex="0066"/>
  <outline>
    <contour>
      <point x="205" y="543" type="line"/>
      <point x="472" y="543" type="line"/>
      <point x="472" y="544" type="line"/>
      <point x="449" y="702" type="line"/>
      <point x="205" y="702" type="line"/>
    </contour>
  </outline>
</glyph>
<glyph name="f" format="2">
  <advance width="502.75"/>
  <unicode hex="0066"/>
  <outline>
    <contour>
      <point x="205" y="218" type="line"/>
      <point x="470" y="218" type="line"/>
      <point x="470" y="377" type="line"/>
      <point x="40" y="377" type="line"/>
    </contour>
    <contour>
      <point x="39" y="0" type="line"/>
      <point x="205" y="0" type="line"/>
      <point x="205" y="218" type="line"/>
      <point x="40" y="377" type="line"/>
      <point x="39" y="377" type="line"/>
    </contour>
    <contour>
      <point x="39" y="377" type="line"/>
      <point x="205" y="377" type="line"/>
      <point x="205" y="702" type="line"/>
      <point x="204" y="702" type="line"/>
      <point x="39" y="616" type="line"/>
    </contour>
    <contour>
      <point x="205" y="543" type="line"/>
      <point x="472" y="543" type="line"/>
      <point x="472" y="544" type="line"/>
      <point x="449" y="702" type="line"/>
      <point x="205" y="702" type="line"/>
    </contour>
  </outline>
</glyph>
<glyph name="g.color0" format="2">
  <advance width="600"/>
  <unicode hex="0067"/>
  <outline>
    <contour>
      <point x="205" y="364" type="line"/>
      <point x="599" y="364" type="line"/>
      <point x="669" y="522" type="line"/>
      <point x="669" y="523" type="line"/>
      <point x="205" y="523" type="line"/>
    </contour>
  </outline>
</glyph>
<glyph name="g.color1" format="2">
  <advance width="600"/>
  <unicode hex="0067"/>
  <outline>
    <contour>
      <point x="115" y="-204" type="line"/>
      <point x="429" y="-204" type="line"/>
      <point x="429" y="-63" type="line"/>
      <point x="39" y="-63" type="line"/>
      <point x="39" y="-64" type="line"/>
    </contour>
  </outline>
</glyph>
<glyph name="g.color3" format="2">
  <advance width="600"/>
  <unicode hex="0067"/>
  <outline>
    <contour>
      <point x="39" y="159" type="line"/>
      <point x="205" y="159" type="line"/>
      <point x="205" y="523" type="line"/>
      <point x="204" y="523" type="line"/>
      <point x="39" y="437" type="line"/>
    </contour>
  </outline>
</glyph>
<glyph name="g.color4" format="2">
  <advance width="600"/>
  <unicode hex="0067"/>
  <outline>
    <contour>
      <point x="429" y="-204" type="line"/>
      <point x="430" y="-204" type="line"/>
      <point x="595" y="-123" type="line"/>
      <point x="595" y="364" type="line"/>
      <point x="429" y="364" type="line"/>
    </contour>
  </outline>
</glyph>
<glyph name="h.color0" format="2">
  <advance width="600"/>
  <unicode hex="0068"/>
  <outline>
    <contour>
      <point x="39" y="0" type="line"/>
      <point x="205" y="0" type="line"/>
      <point x="205" y="778" type="line"/>
      <point x="39" y="778" type="line"/>
    </contour>
  </outline>
</glyph>
<glyph name="h" format="2">
  <advance width="654.5"/>
  <unicode hex="0068"/>
  <anchor x="241" y="633" name="stroke"/>
  <anchor x="416" y="523" name="top"/>
  <outline>
    <contour>
      <point x="39" y="0" type="line"/>
      <point x="205" y="0" type="line"/>
      <point x="205" y="778" type="line"/>
      <point x="39" y="778" type="line"/>
    </contour>
    <contour>
      <point x="449" y="-5" type="line"/>
      <point x="450" y="-5" type="line"/>
      <point x="615" y="36" type="line"/>
      <point x="615" y="364" type="line"/>
      <point x="449" y="364" type="line"/>
    </contour>
    <contour>
      <point x="205" y="364" type="line"/>
      <point x="615" y="364" type="line"/>
      <point x="615" y="365" type="line"/>
      <point x="529" y="523" type="line"/>
      <point x="205" y="523" type="line"/>
    </contour>
  </outline>
</glyph>
<glyph name="i.color0" format="2">
  <advance width="600"/>
  <unicode hex="0069"/>
  <outline>
    <contour>
      <point x="46" y="0" type="line"/>
      <point x="213" y="0" type="line"/>
      <point x="213" y="503" type="line"/>
      <point x="212" y="503" type="line"/>
      <point x="46" y="415" type="line"/>
    </contour>
  </outline>
</glyph>
<glyph name="j.color0" format="2">
  <advance width="600"/>
  <unicode hex="006A"/>
  <outline>
    <contour>
      <point x="59" y="-204" type="line"/>
      <point x="60" y="-204" type="line"/>
      <point x="210" y="-118" type="line"/>
      <point x="210" y="503" type="line"/>
      <point x="209" y="503" type="line"/>
      <point x="59" y="415" type="line"/>
    </contour>
  </outline>
</glyph>
<glyph name="j.color1" format="2">
  <advance width="600"/>
  <unicode hex="006A"/>
  <outline>
    <contour>
      <point x="-115" y="-204" type="line"/>
      <point x="59" y="-204" type="line"/>
      <point x="59" y="-63" type="line"/>
      <point x="-115" y="-63" type="line"/>
    </contour>
  </outline>
</glyph>
<glyph name="j.color2" format="2">
  <advance width="600"/>
  <unicode hex="006A"/>
  <outline>
    <contour>
      <point x="59" y="488" type="line"/>
      <point x="60" y="488" type="line"/>
      <point x="210" y="574" type="line"/>
      <point x="210" y="665" type="line"/>
      <point x="59" y="665" type="line"/>
    </contour>
  </outline>
</glyph>
<glyph name="j" format="2">
  <advance width="256.75"/>
  <unicode hex="006A"/>
  <outline>
    <contour>
      <point x="59" y="-204" type="line"/>
      <point x="60" y="-204" type="line"/>
      <point x="210" y="-118" type="line"/>
      <point x="210" y="503" type="line"/>
      <point x="209" y="503" type="line"/>
      <point x="59" y="415" type="line"/>
    </contour>
    <contour>
      <point x="-115" y="-204" type="line"/>
      <point x="59" y="-204" type="line"/>
      <point x="59" y="-63" type="line"/>
      <point x="-115" y="-63" type="line"/>
    </contour>
    <contour>
      <point x="59" y="488" type="line"/>
      <point x="60" y="488" type="line"/>
      <point x="210" y="574" type="line"/>
      <point x="210" y="665" type="line"/>
      <point x="59" y="665" type="line"/>
    </contour>
  </outline>
</glyph>
<glyph name="k.color1" format="2">
  <advance width="600"/>
  <unicode hex="006B"/>
  <outline>
    <contour>
      <point x="455" y="0" type="line"/>
      <point x="621" y="0" type="line"/>
      <point x="621" y="233" type="line"/>
      <point x="455" y="233" type="line"/>
    </contour>
  </outline>
</glyph>
<glyph name="k.color2" format="2">
  <advance width="600"/>
  <unicode hex="006B"/>
  <outline>
    <contour>
      <point x="205" y="233" type="line"/>
      <point x="621" y="233" type="line"/>
      <point x="621" y="234" type="line"/>
      <point x="535" y="392" type="line"/>
      <point x="205" y="392" type="line"/>
    </contour>
  </outline>
</glyph>
<glyph name="l" format="2">
  <advance width="398.5"/>
  <unicode hex="006C"/>
  <anchor x="218" y="0" name="bottom"/>
  <anchor x="130" y="778" name="top"/>
  <outline>
    <contour>
      <point x="204" y="0" type="line"/>
      <point x="205" y="0" type="line"/>
      <point x="205" y="778" type="line"/>
      <point x="39" y="778" type="line"/>
      <point x="39" y="86" type="line"/>
    </contour>
    <contour>
      <point x="205" y="0" type="line"/>
      <point x="379" y="0" type="line"/>
      <point x="379" y="159" type="line"/>
      <point x="205" y="159" type="line"/>
    </contour>
  </outline>
</glyph>
<glyph name="m.color1" format="2">
  <advance width="600"/>
  <unicode hex="006D"/>
  <outline>
    <contour>
      <point x="404" y="0" type="line"/>
      <point x="556" y="0" type="line"/>
      <point x="556" y="364" type="line"/>
      <point x="404" y="364" type="line"/>
    </contour>
  </outline>
</glyph>
<glyph name="m.color3" format="2">
  <advance width="600"/>
  <unicode hex="006D"/>
  <outline>
    <contour>
      <point x="754" y="-5" type="line"/>
      <point x="755" y="-5" type="line"/>
      <point x="922" y="36" type="line"/>
      <point x="922" y="364" type="line"/>
      <point x="754" y="364" type="line"/>
    </contour>
  </outline>
</glyph>
<glyph name="m.color4" format="2">
  <advance width="600"/>
  <unicode hex="006D"/>
  <outline>
    <contour>
      <point x="556" y="364" type="line"/>
      <point x="922" y="364" type="line"/>
      <point x="922" y="365" type="line"/>
      <point x="836" y="523" type="line"/>
      <point x="556" y="523" type="line"/>
    </contour>
  </outline>
</glyph>
<glyph name="m" format="2">
  <advance width="960"/>
  <unicode hex="006D"/>
  <outline>
    <contour>
      <point x="39" y="0" type="line"/>
      <point x="205" y="0" type="line"/>
      <point x="205" y="523" type="line"/>
      <point x="204" y="523" type="line"/>
      <point x="39" y="437" type="line"/>
    </contour>
    <contour>
      <point x="404" y="0" type="line"/>
      <point x="556" y="0" type="line"/>
      <point x="556" y="364" type="line"/>
      <point x="404" y="364" type="line"/>
    </contour>
    <contour>
      <point x="205" y="364" type="line"/>
      <point x="556" y="364" type="line"/>
      <point x="556" y="365" type="line"/>
      <point x="500" y="523" type="line"/>
      <point x="205" y="523" type="line"/>
    </contour>
    <contour>
      <point x="754" y="-5" type="line"/>
      <point x="755" y="-5" type="line"/>
      <point x="922" y="36" type="line"/>
      <point x="922" y="364" type="line"/>
      <point x="754" y="364" type="line"/>
    </contour>
    <contour>
      <point x="556" y="364" type="line"/>
      <point x="922" y="364" type="line"/>
      <point x="922" y="365" type="line"/>
      <point x="836" y="523" type="line"/>
      <point x="556" y="523" type="line"/>
    </contour>
  </outline>
</glyph>
<glyph name="p.color4" format="2">
  <advance width="600"/>
  <unicode hex="0070"/>
  <outline>
    <contour>
      <point x="450" y="0" type="line"/>
      <point x="451" y="0" type="line"/>
      <point x="616" y="86" type="line"/>
      <point x="616" y="364" type="line"/>
      <point x="450" y="364" type="line"/>
    </contour>
  </outline>
</glyph>
<glyph name="p" format="2">
  <advance width="655.25"/>
  <unicode hex="0070"/>
  <outline>
    <contour>
      <point x="205" y="364" type="line"/>
      <point x="616" y="364" type="line"/>
      <point x="616" y="365" type="line"/>
      <point x="534" y="523" type="line"/>
      <point x="205" y="523" type="line"/>
    </contour>
    <contour>
      <point x="39" y="-200" type="line"/>
      <point x="205" y="-200" type="line"/>
      <point x="205" y="0" type="line"/>
      <point x="40" y="157" type="line"/>
      <point x="39" y="157" type="line"/>
    </contour>
    <contour>
      <point x="166" y="0" type="line"/>
      <point x="450" y="0" type="line"/>
      <point x="450" y="159" type="line"/>
      <point x="39" y="159" type="line"/>
      <point x="39" y="158" type="line"/>
    </contour>
    <contour>
      <point x="39" y="159" type="line"/>
      <point x="205" y="159" type="line"/>
      <point x="205" y="523" type="line"/>
      <point x="204" y="523" type="line"/>
      <point x="39" y="437" type="line"/>
    </contour>
    <contour>
      <point x="450" y="0" type="line"/>
      <point x="451" y="0" type="line"/>
      <point x="616" y="86" type="line"/>
      <point x="616" y="364" type="line"/>
      <point x="450" y="364" type="line"/>
    </contour>
  </outline>
</glyph>
<glyph name="q.color0" format="2">
  <advance width="600"/>
  <unicode hex="0071"/>
  <outline>
    <contour>
      <point x="451" y="-200" type="line"/>
      <point x="616" y="-200" type="line"/>
      <point x="616" y="364" type="line"/>
      <point x="450" y="364" type="line"/>
      <point x="450" y="119" type="line"/>
    </contour>
  </outline>
</glyph>
<glyph name="q" format="2">
  <advance width="655.25"/>
  <unicode hex="0071"/>
  <outline>
    <contour>
      <point x="451" y="-200" type="line"/>
      <point x="616" y="-200" type="line"/>
      <point x="616" y="364" type="line"/>
      <point x="450" y="364" type="line"/>
      <point x="450" y="119" type="line"/>
    </contour>
    <contour>
      <point x="121" y="0" type="line"/>
      <point x="450" y="0" type="line"/>
      <point x="450" y="159" type="line"/>
      <point x="39" y="159" type="line"/>
      <point x="39" y="158" type="line"/>
    </contour>
    <contour>
      <point x="39" y="159" type="line"/>
      <point x="205" y="159" type="line"/>
      <point x="205" y="523" type="line"/>
      <point x="204" y="523" type="line"/>
      <point x="39" y="437" type="line"/>
    </contour>
    <contour>
      <point x="205" y="364" type="line"/>
      <point x="616" y="364" type="line"/>
      <point x="616" y="365" type="line"/>
      <point x="534" y="523" type="line"/>
      <point x="205" y="523" type="line"/>
    </contour>
  </outline>
</glyph>
<glyph name="r.color0" format="2">
  <advance width="600"/>
  <unicode hex="0072"/>
  <outline>
    <contour>
      <point x="39" y="0" type="line"/>
      <point x="205" y="0" type="line"/>
      <point x="205" y="523" type="line"/>
      <point x="204" y="523" type="line"/>
      <point x="39" y="437" type="line"/>
    </contour>
  </outline>
</glyph>
<glyph name="r" format="2">
  <advance width="493.75"/>
  <unicode hex="0072"/>
  <anchor x="116" y="0" name="bottom"/>
  <anchor x="281" y="523" name="top"/>
  <outline>
    <contour>
      <point x="39" y="0" type="line"/>
      <point x="205" y="0" type="line"/>
      <point x="205" y="523" type="line"/>
      <point x="204" y="523" type="line"/>
      <point x="39" y="437" type="line"/>
    </contour>
    <contour>
      <point x="205" y="364" type="line"/>
      <point x="489" y="364" type="line"/>
      <point x="489" y="365" type="line"/>
      <point x="403" y="523" type="line"/>
      <point x="205" y="523" type="line"/>
    </contour>
  </outline>
</glyph>
<glyph name="s.color1" format="2">
  <advance width="600"/>
  <unicode hex="0073"/>
  <outline>
    <contour>
      <point x="315" y="118" type="line"/>
      <point x="522" y="141" type="line"/>
      <point x="522" y="142" type="line"/>
      <point x="106" y="523" type="line"/>
      <point x="33" y="391" type="line"/>
    </contour>
  </outline>
</glyph>
<glyph name="t" format="2">
  <advance width="493.25"/>
  <unicode hex="0074"/>
  <anchor x="277" y="0" name="bottom"/>
  <anchor x="135" y="763" name="top"/>
  <outline>
    <contour>
      <point x="39" y="364" type="line"/>
      <point x="40" y="364" type="line"/>
      <point x="205" y="523" type="line"/>
      <point x="205" y="695" type="line"/>
      <point x="39" y="695" type="line"/>
    </contour>
    <contour>
      <point x="40" y="364" type="line"/>
      <point x="405" y="364" type="line"/>
      <point x="405" y="523" type="line"/>
      <point x="205" y="523" type="line"/>
    </contour>
    <contour>
      <point x="204" y="0" type="line"/>
      <point x="205" y="0" type="line"/>
      <point x="205" y="364" type="line"/>
      <point x="39" y="364" type="line"/>
      <point x="39" y="86" type="line"/>
    </contour>
    <contour>
      <point x="205" y="0" type="line"/>
      <point x="470" y="0" type="line"/>
      <point x="493" y="158" type="line"/>
      <point x="493" y="159" type="line"/>
      <point x="205" y="159" type="line"/>
    </contour>
  </outline>
</glyph>
<glyph name="u" format="2">
  <advance width="654.5"/>
  <unicode hex="0075"/>
  <anchor x="342" y="0" name="bottom"/>
  <anchor x="609" y="523" name="horn"/>
  <anchor x="342" y="523" name="top"/>
  <outline>
    <contour>
      <point x="449" y="0" type="line"/>
      <point x="450" y="0" type="line"/>
      <point x="615" y="0" type="line"/>
      <point x="615" y="523" type="line"/>
      <point x="449" y="523" type="line"/>
    </contour>
    <contour>
      <point x="125" y="0" type="line"/>
      <point x="449" y="0" type="line"/>
      <point x="449" y="159" type="line"/>
      <point x="39" y="159" type="line"/>
      <point x="39" y="158" type="line"/>
    </contour>
    <contour>
      <point x="39" y="159" type="line"/>
      <point x="205" y="159" type="line"/>
      <point x="205" y="529" type="line"/>
      <point x="204" y="529" type="line"/>
      <point x="39" y="488" type="line"/>
    </contour>
  </outline>
</glyph>
<glyph name="v.color0" format="2">
  <advance width="600"/>
  <unicode hex="0076"/>
  <outline>
    <contour>
      <point x="427" y="0" type="line"/>
      <point x="428" y="0" type="line"/>
      <point x="593" y="158" type="line"/>
      <point x="593" y="523" type="line"/>
      <point x="427" y="523" type="line"/>
    </contour>
  </outline>
</glyph>
<glyph name="v.color1" format="2">
  <advance width="600"/>
  <unicode hex="0076"/>
  <outline>
    <contour>
      <point x="95" y="0" type="line"/>
      <point x="427" y="0" type="line"/>
      <point x="427" y="159" type="line"/>
      <point x="39" y="159" type="line"/>
      <point x="39" y="158" type="line"/>
    </contour>
  </outline>
</glyph>
<glyph name="v.color2" format="2">
  <advance width="600"/>
  <unicode hex="0076"/>
  <outline>
    <contour>
      <point x="39" y="159" type="line"/>
      <point x="205" y="159" type="line"/>
      <point x="205" y="523" type="line"/>
      <point x="204" y="523" type="line"/>
      <point x="39" y="517" type="line"/>
    </contour>
  </outline>
</glyph>
<glyph name="v" format="2">
  <advance width="632"/>
  <unicode hex="0076"/>
  <outline>
    <contour>
      <point x="427" y="0" type="line"/>
      <point x="428" y="0" type="line"/>
      <point x="593" y="158" type="line"/>
      <point x="593" y="523" type="line"/>
      <point x="427" y="523" type="line"/>
    </contour>
    <contour>
      <point x="95" y="0" type="line"/>
      <point x="427" y="0" type="line"/>
      <point x="427" y="159" type="line"/>
      <point x="39" y="159" type="line"/>
      <point x="39" y="158" type="line"/>
    </contour>
    <contour>
      <point x="39" y="159" type="line"/>
      <point x="205" y="159" type="line"/>
      <point x="205" y="523" type="line"/>
      <point x="204" y="523" type="line"/>
      <point x="39" y="517" type="line"/>
    </contour>
  </outline>
</glyph>
<glyph name="w.color1" format="2">
  <advance width="600"/>
  <unicode hex="0077"/>
  <outline>
    <contour>
      <point x="125" y="0" type="line"/>
      <point x="404" y="0" type="line"/>
      <point x="404" y="159" type="line"/>
      <point x="39" y="159" type="line"/>
      <point x="39" y="158" type="line"/>
    </contour>
  </outline>
</glyph>
<glyph name="w.color2" format="2">
  <advance width="600"/>
  <unicode hex="0077"/>
  <outline>
    <contour>
      <point x="39" y="159" type="line"/>
      <point x="205" y="159" type="line"/>
      <point x="205" y="529" type="line"/>
      <point x="204" y="529" type="line"/>
      <point x="39" y="488" type="line"/>
    </contour>
  </outline>
</glyph>
<glyph name="x.color0" format="2">
  <advance width="600"/>
  <unicode hex="0078"/>
  <outline>
    <contour>
      <point x="221" y="261" type="line"/>
      <point x="222" y="261" type="line"/>
      <point x="342" y="349" type="line"/>
      <point x="209" y="523" type="line"/>
      <point x="5" y="523" type="line"/>
      <point x="5" y="522" type="line"/>
    </contour>
  </outline>
</glyph>
<glyph name="x.color1" format="2">
  <advance width="600"/>
  <unicode hex="0078"/>
  <outline>
    <contour>
      <point x="428" y="0" type="line"/>
      <point x="632" y="0" type="line"/>
      <point x="632" y="1" type="line"/>
      <point x="410" y="261" type="line"/>
      <point x="409" y="261" type="line"/>
      <point x="297" y="174" type="line"/>
    </contour>
  </outline>
</glyph>
<glyph name="x.color2" format="2">
  <advance width="600"/>
  <unicode hex="0078"/>
  <outline>
    <contour>
      <point x="7" y="0" type="line"/>
      <point x="195" y="0" type="line"/>
      <point x="409" y="261" type="line"/>
      <point x="221" y="261" type="line"/>
      <point x="7" y="1" type="line"/>
    </contour>
  </outline>
</glyph>
<glyph name="x.color3" format="2">
  <advance width="600"/>
  <unicode hex="0078"/>
  <outline>
    <contour>
      <point x="222" y="261" type="line"/>
      <point x="410" y="261" type="line"/>
      <point x="624" y="522" type="line"/>
      <point x="624" y="523" type="line"/>
      <point x="436" y="523" type="line"/>
    </contour>
  </outline>
</glyph>
<glyph name="x" format="2">
  <advance width="637"/>
  <unicode hex="0078"/>
  <outline>
    <contour>
      <point x="221" y="261" type="line"/>
      <point x="222" y="261" type="line"/>
      <point x="342" y="349" type="line"/>
      <point x="209" y="523" type="line"/>
      <point x="5" y="523" type="line"/>
      <point x="5" y="522" type="line"/>
    </contour>
    <contour>
      <point x="428" y="0" type="line"/>
      <point x="632" y="0" type="line"/>
      <point x="632" y="1" type="line"/>
      <point x="410" y="261" type="line"/>
      <point x="409" y="261" type="line"/>
      <point x="297" y="174" type="line"/>
    </contour>
    <contour>
      <point x="7" y="0" type="line"/>
      <point x="195" y="0" type="line"/>
      <point x="409" y="261" type="line"/>
      <point x="221" y="261" type="line"/>
      <point x="7" y="1" type="line"/>
    </contour>
    <contour>
      <point x="222" y="261" type="line"/>
      <point x="410" y="261" type="line"/>
      <point x="624" y="522" type="line"/>
      <point x="624" y="523" type="line"/>
      <point x="436" y="523" type="line"/>
    </contour>
  </outline>
</glyph>
<glyph name="y.color3" format="2">
  <advance width="600"/>
  <unicode hex="0079"/>
  <outline>
    <contour>
      <point x="39" y="159" type="line"/>
      <point x="205" y="159" type="line"/>
      <point x="205" y="528" type="line"/>
      <point x="204" y="528" type="line"/>
      <point x="39" y="486" type="line"/>
    </contour>
  </outline>
</glyph>
<glyph name="y" format="2">
  <advance width="633.5"/>
  <unicode hex="0079"/>
  <anchor x="326" y="-200" name="bottom"/>
  <anchor x="342" y="523" name="top"/>
  <outline>
    <contour>
      <point x="429" y="-204" type="line"/>
      <point x="430" y="-204" type="line"/>
      <point x="595" y="-123" type="line"/>
      <point x="595" y="523" type="line"/>
      <point x="429" y="523" type="line"/>
    </contour>
    <contour>
      <point x="115" y="-204" type="line"/>
      <point x="429" y="-204" type="line"/>
      <point x="429" y="-63" type="line"/>
      <point x="39" y="-63" type="line"/>
      <point x="39" y="-64" type="line"/>
    </contour>
    <contour>
      <point x="125" y="0" type="line"/>
      <point x="428" y="0" type="line"/>
      <point x="428" y="159" type="line"/>
      <point x="39" y="159" type="line"/>
      <point x="39" y="158" type="line"/>
    </contour>
    <contour>
      <point x="39" y="159" type="line"/>
      <point x="205" y="159" type="line"/>
      <point x="205" y="528" type="line"/>
      <point x="204" y="528" type="line"/>
      <point x="39" y="486" type="line"/>
    </contour>
  </outline>
</glyph>
<glyph name="z.color0" format="2">
  <advance width="600"/>
  <unicode hex="007A"/>
  <outline>
    <contour>
      <point x="32" y="382" type="line"/>
      <point x="516" y="382" type="line"/>
      <point x="536" y="523" type="line"/>
      <point x="113" y="523" type="line"/>
      <point x="32" y="383" type="line"/>
    </contour>
  </outline>
</glyph>
<glyph name="z.color1" format="2">
  <advance width="600"/>
  <unicode hex="007A"/>
  <outline>
    <contour>
      <point x="217" y="118" type="line"/>
      <point x="609" y="391" type="line"/>
      <point x="536" y="523" type="line"/>
      <point x="28" y="142" type="line"/>
      <point x="28" y="141" type="line"/>
    </contour>
  </outline>
</glyph>
<glyph name="z.color2" format="2">
  <advance width="600"/>
  <unicode hex="007A"/>
  <outline>
    <contour>
      <point x="114" y="0" type="line"/>
      <point x="605" y="0" type="line"/>
      <point x="605" y="141" type="line"/>
      <point x="28" y="141" type="line"/>
    </contour>
  </outline>
</glyph>
<glyph name="z" format="2">
  <advance width="637"/>
  <unicode hex="007A"/>
  <anchor x="334" y="523" name="top"/>
  <outline>
    <contour>
      <point x="32" y="382" type="line"/>
      <point x="516" y="382" type="line"/>
      <point x="536" y="523" type="line"/>
      <point x="113" y="523" type="line"/>
      <point x="32" y="383" type="line"/>
    </contour>
    <contour>
      <point x="217" y="118" type="line"/>
      <point x="609" y="391" type="line"/>
      <point x="536" y="523" type="line"/>
      <point x="28" y="142" type="line"/>
      <point x="28" y="141" type="line"/>
    </contour>
    <contour>
      <point x="114" y="0" type="line"/>
      <point x="605" y="0" type="line"/>
      <point x="605" y="141" type="line"/>
      <point x="28" y="141" type="line"/>
    </contour>
  </outline>
</glyph>
<glyph name="braceleft.color0" format="2">
  <advance width="600"/>
  <unicode hex="007B"/>
  <outline>
    <contour>
      <point x="347" y="-100" type="line"/>
      <point x="527" y="-100" type="line"/>
      <point x="527" y="59" type="line"/>
      <point x="347" y="59" type="line"/>
    </contour>
  </outline>
</glyph>
<glyph name="braceleft.color1" format="2">
  <advance width="600"/>
  <unicode hex="007B"/>
  <outline>
    <contour>
      <point x="54" y="234" type="line"/>
      <point x="179" y="234" type="line"/>
      <point x="179" y="393" type="line"/>
      <point x="54" y="393" type="line"/>
    </contour>
  </outline>
</glyph>
<glyph name="braceleft.color2" format="2">
  <advance width="600"/>
  <unicode hex="007B"/>
  <outline>
    <contour>
      <point x="347" y="564" type="line"/>
      <point x="527" y="564" type="line"/>
      <point x="527" y="723" type="line"/>
      <point x="347" y="723" type="line"/>
    </contour>
  </outline>
</glyph>
<glyph name="braceleft.color3" format="2">
  <advance width="600"/>
  <unicode hex="007B"/>
  <outline>
    <contour>
      <point x="179" y="-94" type="line"/>
      <point x="347" y="-100" type="line"/>
      <point x="347" y="243" type="line"/>
      <point x="180" y="391" type="line"/>
      <point x="179" y="391" type="line"/>
    </contour>
  </outline>
</glyph>
<glyph name="braceleft.color4" format="2">
  <advance width="600"/>
  <unicode hex="007B"/>
  <outline>
    <contour>
      <point x="179" y="234" type="line"/>
      <point x="180" y="234" type="line"/>
      <point x="347" y="381" type="line"/>
      <point x="347" y="723" type="line"/>
      <point x="179" y="717" type="line"/>
    </contour>
  </outline>
</glyph>
<glyph name="braceleft" format="2">
  <advance width="568.25"/>
  <unicode hex="007B"/>
  <outline>
    <contour>
      <point x="347" y="-100" type="line"/>
      <point x="527" y="-100" type="line"/>
      <point x="527" y="59" type="line"/>
      <point x="347" y="59" type="line"/>
    </contour>
    <contour>
      <point x="54" y="234" type="line"/>
      <point x="179" y="234" type="line"/>
      <point x="179" y="393" type="line"/>
      <point x="54" y="393" type="line"/>
    </contour>
    <contour>
      <point x="347" y="564" type="line"/>
      <point x="527" y="564" type="line"/>
      <point x="527" y="723" type="line"/>
      <point x="347" y="723" type="line"/>
    </contour>
    <contour>
      <point x="179" y="-94" type="line"/>
      <point x="347" y="-100" type="line"/>
      <point x="347" y="243" type="line"/>
      <point x="180" y="391" type="line"/>
      <point x="179" y="391" type="line"/>
    </contour>
    <contour>
      <point x="179" y="234" type="line"/>
      <point x="180" y="234" type="line"/>
      <point x="347" y="381" type="line"/>
      <point x="347" y="723" type="line"/>
      <point x="179" y="717" type="line"/>
    </contour>
  </outline>
</glyph>
<glyph name="bar" format="2">
  <advance width="233"/>
  <unicode hex="007C"/>
  <outline>
    <contour>
      <point x="40" y="-100" type="line"/>
      <point x="193" y="-100" type="line"/>
      <point x="193" y="790" type="line"/>
      <point x="40" y="790" type="line"/>
    </contour>
  </outline>
</glyph>
<glyph name="braceright.color0" format="2">
  <advance width="600"/>
  <unicode hex="007D"/>
  <outline>
    <contour>
      <point x="393" y="231" type="line"/>
      <point x="394" y="231" type="line"/>
      <point x="394" y="717" type="line"/>
      <point x="227" y="723" type="line"/>
      <point x="227" y="379" type="line"/>
    </contour>
  </outline>
</glyph>
<glyph name="braceright.color1" format="2">
  <advance width="600"/>
  <unicode hex="007D"/>
  <outline>
    <contour>
      <point x="47" y="-100" type="line"/>
      <point x="227" y="-100" type="line"/>
      <point x="227" y="59" type="line"/>
      <point x="47" y="59" type="line"/>
    </contour>
  </outline>
</glyph>
<glyph name="braceright.color2" format="2">
  <advance width="600"/>
  <unicode hex="007D"/>
  <outline>
    <contour>
      <point x="47" y="564" type="line"/>
      <point x="227" y="564" type="line"/>
      <point x="227" y="723" type="line"/>
      <point x="47" y="723" type="line"/>
    </contour>
  </outline>
</glyph>
<glyph name="braceright.color3" format="2">
  <advance width="600"/>
  <unicode hex="007D"/>
  <outline>
    <contour>
      <point x="394" y="230" type="line"/>
      <point x="519" y="230" type="line"/>
      <point x="519" y="389" type="line"/>
      <point x="394" y="389" type="line"/>
    </contour>
  </outline>
</glyph>
<glyph name="braceright.color4" format="2">
  <advance width="600"/>
  <unicode hex="007D"/>
  <outline>
    <contour>
      <point x="227" y="-100" type="line"/>
      <point x="394" y="-94" type="line"/>
      <point x="394" y="389" type="line"/>
      <point x="393" y="389" type="line"/>
      <point x="227" y="242" type="line"/>
    </contour>
  </outline>
</glyph>
<glyph name="braceright" format="2">
  <advance width="573.25"/>
  <unicode hex="007D"/>
  <outline>
    <contour>
      <point x="393" y="231" type="line"/>
      <point x="394" y="231" type="line"/>
      <point x="394" y="717" type="line"/>
      <point x="227" y="723" type="line"/>
      <point x="227" y="379" type="line"/>
    </contour>
    <contour>
      <point x="47" y="-100" type="line"/>
      <point x="227" y="-100" type="line"/>
      <point x="227" y="59" type="line"/>
      <point x="47" y="59" type="line"/>
    </contour>
    <contour>
      <point x="47" y="564" type="line"/>
      <point x="227" y="564" type="line"/>
      <point x="227" y="723" type="line"/>
      <point x="47" y="723" type="line"/>
    </contour>
    <contour>
      <point x="394" y="230" type="line"/>
      <point x="519" y="230" type="line"/>
      <point x="519" y="389" type="line"/>
      <point x="394" y="389" type="line"/>
    </contour>
    <contour>
      <point x="227" y="-100" type="line"/>
      <point x="394" y="-94" type="line"/>
      <point x="394" y="389" type="line"/>
      <point x="393" y="389" type="line"/>
      <point x="227" y="242" type="line"/>
    </contour>
  </outline>
</glyph>
<glyph name="asciitilde.color0" format="2">
  <advance width="600"/>
  <unicode hex="007E"/>
  <outline>
    <contour>
      <point x="32" y="228" type="line"/>
      <point x="168" y="228" type="line"/>
      <point x="168" y="517" type="line"/>
      <point x="32" y="468" type="line"/>
    </contour>
  </outline>
</glyph>
<glyph name="asciitilde.color1" format="2">
  <advance width="600"/>
  <unicode hex="007E"/>
  <outline>
    <contour>
      <point x="451" y="271" type="line"/>
      <point x="588" y="270" type="line"/>
      <point x="588" y="507" type="line"/>
      <point x="451" y="507" type="line"/>
    </contour>
  </outline>
</glyph>
<glyph name="asciitilde.color2" format="2">
  <advance width="600"/>
  <unicode hex="007E"/>
  <outline>
    <contour>
      <point x="458" y="205" type="line"/>
      <point x="459" y="205" type="line"/>
      <point x="588" y="270" type="line"/>
      <point x="588" y="271" type="line"/>
      <point x="169" y="517" type="line"/>
      <point x="168" y="517" type="line"/>
      <point x="32" y="469" type="line"/>
      <point x="32" y="468" type="line"/>
    </contour>
  </outline>
</glyph>
<glyph name="asciitilde" format="2">
  <advance width="619.5"/>
  <unicode hex="007E"/>
  <outline>
    <contour>
      <point x="32" y="228" type="line"/>
      <point x="168" y="228" type="line"/>
      <point x="168" y="517" type="line"/>
      <point x="32" y="468" type="line"/>
    </contour>
    <contour>
      <point x="451" y="271" type="line"/>
      <point x="588" y="270" type="line"/>
      <point x="588" y="507" type="line"/>
      <point x="451" y="507" type="line"/>
    </contour>
    <contour>
      <point x="458" y="205" type="line"/>
      <point x="459" y="205" type="line"/>
      <point x="588" y="270" type="line"/>
      <point x="588" y="271" type="line"/>
      <point x="169" y="517" type="line"/>
      <point x="168" y="517" type="line"/>
      <point x="32" y="469" type="line"/>
      <point x="32" y="468" type="line"/>
    </contour>
  </outline>
</glyph>
<glyph name="exclamdown.color0" format="2">
  <advance width="600"/>
  <unicode hex="00A1"/>
  <outline>
    <contour>
      <point x="47" y="-35" type="line"/>
      <point x="48" y="-35" type="line"/>
      <point x="214" y="51" type="line"/>
      <point x="214" y="461" type="line"/>
      <point x="47" y="461" type="line"/>
    </contour>
  </outline>
</glyph>
<glyph name="exclamdown.color1" format="2">
  <advance width="600"/>
  <unicode hex="00A1"/>
  <outline>
    <contour>
      <point x="40" y="534" type="line"/>
      <point x="221" y="534" type="line"/>
      <point x="221" y="693" type="line"/>
      <point x="40" y="693" type="line"/>
    </contour>
  </outline>
</glyph>
<glyph name="exclamdown" format="2">
  <advance width="260.75"/>
  <unicode hex="00A1"/>
  <outline>
    <contour>
      <point x="47" y="-35" type="line"/>
      <point x="48" y="-35" type="line"/>
      <point x="214" y="51" type="line"/>
      <point x="214" y="461" type="line"/>
      <point x="47" y="461" type="line"/>
    </contour>
    <contour>
      <point x="40" y="534" type="line"/>
      <point x="221" y="534" type="line"/>
      <point x="221" y="693" type="line"/>
      <point x="40" y="693" type="line"/>
    </contour>
  </outline>
</glyph>
<glyph name="cent.color0" format="2">
  <advance width="600"/>
  <unicode hex="00A2"/>
  <outline>
    <contour>
      <point x="273" y="479" type="line"/>
      <point x="439" y="479" type="line"/>
      <point x="438" y="576" type="line"/>
      <point x="436" y="576" type="line"/>
      <point x="272" y="553" type="line"/>
    </contour>
  </outline>
</glyph>
<glyph name="cent.color1" format="2">
  <advance width="600"/>
  <unicode hex="00A2"/>
  <outline>
    <contour>
      <point x="273" y="-55" type="line"/>
      <point x="275" y="-55" type="line"/>
      <point x="439" y="-32" type="line"/>
      <point x="439" y="30" type="line"/>
      <point x="273" y="30" type="line"/>
    </contour>
  </outline>
</glyph>
<glyph name="cent.color2" format="2">
  <advance width="600"/>
  <unicode hex="00A2"/>
  <outline>
    <contour>
      <point x="124" y="0" type="line"/>
      <point x="505" y="0" type="line"/>
      <point x="591" y="158" type="line"/>
      <point x="591" y="159" type="line"/>
      <point x="38" y="159" type="line"/>
      <point x="38" y="158" type="line"/>
    </contour>
  </outline>
</glyph>
<glyph name="cent.color3" format="2">
  <advance width="600"/>
  <unicode hex="00A2"/>
  <outline>
    <contour>
      <point x="38" y="159" type="line"/>
      <point x="205" y="159" type="line"/>
      <point x="205" y="523" type="line"/>
      <point x="204" y="523" type="line"/>
      <point x="38" y="437" type="line"/>
    </contour>
  </outline>
</glyph>
<glyph name="cent.color4" format="2">
  <advance width="600"/>
  <unicode hex="00A2"/>
  <outline>
    <contour>
      <point x="205" y="364" type="line"/>
      <point x="593" y="364" type="line"/>
      <point x="593" y="365" type="line"/>
      <point x="507" y="523" type="line"/>
      <point x="205" y="523" type="line"/>
    </contour>
  </outline>
</glyph>
<glyph name="cent" format="2">
  <advance width="626"/>
  <unicode hex="00A2"/>
  <anchor x="329" y="0" name="bottom"/>
  <anchor x="341" y="523" name="top"/>
  <outline>
    <contour>
      <point x="273" y="479" type="line"/>
      <point x="439" y="479" type="line"/>
      <point x="438" y="576" type="line"/>
      <point x="436" y="576" type="line"/>
      <point x="272" y="553" type="line"/>
    </contour>
    <contour>
      <point x="273" y="-55" type="line"/>
      <point x="275" y="-55" type="line"/>
      <point x="439" y="-32" type="line"/>
      <point x="439" y="30" type="line"/>
      <point x="273" y="30" type="line"/>
    </contour>
    <contour>
      <point x="124" y="0" type="line"/>
      <point x="505" y="0" type="line"/>
      <point x="591" y="158" type="line"/>
      <point x="591" y="159" type="line"/>
      <point x="38" y="159" type="line"/>
      <point x="38" y="158" type="line"/>
    </contour>
    <contour>
      <point x="38" y="159" type="line"/>
      <point x="205" y="159" type="line"/>
      <point x="205" y="523" type="line"/>
      <point x="204" y="523" type="line"/>
      <point x="38" y="437" type="line"/>
    </contour>
    <contour>
      <point x="205" y="364" type="line"/>
      <point x="593" y="364" type="line"/>
      <point x="593" y="365" type="line"/>
      <point x="507" y="523" type="line"/>
      <point x="205" y="523" type="line"/>
    </contour>
  </outline>
</glyph>
<glyph name="sterling.color0" format="2">
  <advance width="600"/>
  <unicode hex="00A3"/>
  <outline>
    <contour>
      <point x="40" y="0" type="line"/>
      <point x="779" y="0" type="line"/>
      <point x="779" y="159" type="line"/>
      <point x="40" y="159" type="line"/>
    </contour>
  </outline>
</glyph>
<glyph name="sterling.color1" format="2">
  <advance width="600"/>
  <unicode hex="00A3"/>
  <outline>
    <contour>
      <point x="66" y="289" type="line"/>
      <point x="707" y="290" type="line"/>
      <point x="707" y="448" type="line"/>
      <point x="66" y="447" type="line"/>
    </contour>
  </outline>
</glyph>
<glyph name="sterling.color2" format="2">
  <advance width="600"/>
  <unicode hex="00A3"/>
  <outline>
    <contour>
      <point x="127" y="159" type="line"/>
      <point x="293" y="159" type="line"/>
      <point x="294" y="723" type="line"/>
      <point x="293" y="723" type="line"/>
      <point x="127" y="561" type="line"/>
    </contour>
  </outline>
</glyph>
<glyph name="sterling.color3" format="2">
  <advance width="600"/>
  <unicode hex="00A3"/>
  <outline>
    <contour>
      <point x="294" y="564" type="line"/>
      <point x="772" y="564" type="line"/>
      <point x="772" y="565" type="line"/>
      <point x="615" y="723" type="line"/>
      <point x="294" y="723" type="line"/>
    </contour>
  </outline>
</glyph>
<glyph name="sterling" format="2">
  <advance width="818.5"/>
  <unicode hex="00A3"/>
  <outline>
    <contour>
      <point x="40" y="0" type="line"/>
      <point x="779" y="0" type="line"/>
      <point x="779" y="159" type="line"/>
      <point x="40" y="159" type="line"/>
    </contour>
    <contour>
      <point x="66" y="289" type="line"/>
      <point x="707" y="290" type="line"/>
      <point x="707" y="448" type="line"/>
      <point x="66" y="447" type="line"/>
    </contour>
    <contour>
      <point x="127" y="159" type="line"/>
      <point x="293" y="159" type="line"/>
      <point x="294" y="723" type="line"/>
      <point x="293" y="723" type="line"/>
      <point x="127" y="561" type="line"/>
    </contour>
    <contour>
      <point x="294" y="564" type="line"/>
      <point x="772" y="564" type="line"/>
      <point x="772" y="565" type="line"/>
      <point x="615" y="723" type="line"/>
      <point x="294" y="723" type="line"/>
    </contour>
  </outline>
</glyph>
<glyph name="currency.color0" format="2">
  <advance width="600"/>
  <unicode hex="00A4"/>
  <outline>
    <contour>
      <point x="306" y="414" type="line"/>
      <point x="754" y="414" type="line"/>
      <point x="654" y="573" type="line"/>
      <point x="306" y="573" type="line"/>
    </contour>
  </outline>
</glyph>
<glyph name="currency.color1" format="2">
  <advance width="600"/>
  <unicode hex="00A4"/>
  <outline>
    <contour>
      <point x="126" y="73" type="line"/>
      <point x="241" y="150" type="line"/>
      <point x="139" y="309" type="line"/>
      <point x="25" y="232" type="line"/>
    </contour>
  </outline>
</glyph>
<glyph name="currency.color2" format="2">
  <advance width="600"/>
  <unicode hex="00A4"/>
  <outline>
    <contour>
      <point x="241" y="150" type="line"/>
      <point x="588" y="150" type="line"/>
      <point x="588" y="309" type="line"/>
      <point x="139" y="309" type="line"/>
    </contour>
  </outline>
</glyph>
<glyph name="currency.color3" format="2">
  <advance width="600"/>
  <unicode hex="00A4"/>
  <outline>
    <contour>
      <point x="139" y="309" type="line"/>
      <point x="306" y="309" type="line"/>
      <point x="306" y="573" type="line"/>
      <point x="139" y="472" type="line"/>
    </contour>
  </outline>
</glyph>
<glyph name="currency.color4" format="2">
  <advance width="600"/>
  <unicode hex="00A4"/>
  <outline>
    <contour>
      <point x="139" y="472" type="line"/>
      <point x="306" y="573" type="line"/>
      <point x="229" y="680" type="line"/>
      <point x="62" y="580" type="line"/>
    </contour>
  </outline>
</glyph>
<glyph name="currency.color5" format="2">
  <advance width="600"/>
  <unicode hex="00A4"/>
  <outline>
    <contour>
      <point x="666" y="43" type="line"/>
      <point x="832" y="143" type="line"/>
      <point x="754" y="251" type="line"/>
      <point x="588" y="150" type="line"/>
    </contour>
  </outline>
</glyph>
<glyph name="currency.color6" format="2">
  <advance width="600"/>
  <unicode hex="00A4"/>
  <outline>
    <contour>
      <point x="588" y="150" type="line"/>
      <point x="754" y="251" type="line"/>
      <point x="754" y="414" type="line"/>
      <point x="588" y="414" type="line"/>
    </contour>
  </outline>
</glyph>
<glyph name="currency.color7" format="2">
  <advance width="600"/>
  <unicode hex="00A4"/>
  <outline>
    <contour>
      <point x="754" y="414" type="line"/>
      <point x="870" y="490" type="line"/>
      <point x="768" y="649" type="line"/>
      <point x="654" y="573" type="line"/>
    </contour>
  </outline>
</glyph>
<glyph name="currency" format="2">
  <advance width="893.75"/>
  <unicode hex="00A4"/>
  <outline>
    <contour>
      <point x="306" y="414" type="line"/>
      <point x="754" y="414" type="line"/>
      <point x="654" y="573" type="line"/>
      <point x="306" y="573" type="line"/>
    </contour>
    <contour>
      <point x="126" y="73" type="line"/>
      <point x="241" y="150" type="line"/>
      <point x="139" y="309" type="line"/>
      <point x="25" y="232" type="line"/>
    </contour>
    <contour>
      <point x="241" y="150" type="line"/>
      <point x="588" y="150" type="line"/>
      <point x="588" y="309" type="line"/>
      <point x="139" y="309" type="line"/>
    </contour>
    <contour>
      <point x="139" y="309" type="line"/>
      <point x="306" y="309" type="line"/>
      <point x="306" y="573" type="line"/>
      <point x="139" y="472" type="line"/>
    </contour>
    <contour>
      <point x="139" y="472" type="line"/>
      <point x="306" y="573" type="line"/>
      <point x="229" y="680" type="line"/>
      <point x="62" y="580" type="line"/>
    </contour>
    <contour>
      <point x="666" y="43" type="line"/>
      <point x="832" y="143" type="line"/>
      <point x="754" y="251" type="line"/>
      <point x="588" y="150" type="line"/>
    </contour>
    <contour>
      <point x="588" y="150" type="line"/>
      <point x="754" y="251" type="line"/>
      <point x="754" y="414" type="line"/>
      <point x="588" y="414" type="line"/>
    </contour>
    <contour>
      <point x="754" y="414" type="line"/>
      <point x="870" y="490" type="line"/>
      <point x="768" y="649" type="line"/>
      <point x="654" y="573" type="line"/>
    </contour>
  </outline>
</glyph>
<glyph name="yen.color0" format="2">
  <advance width="600"/>
  <unicode hex="00A5"/>
  <outline>
    <contour>
      <point x="50" y="303" type="line"/>
      <point x="659" y="304" type="line"/>
      <point x="659" y="305" type="line"/>
      <point x="636" y="328" type="line"/>
      <point x="27" y="327" type="line"/>
      <point x="27" y="326" type="line"/>
    </contour>
  </outline>
</glyph>
<glyph name="yen.color1" format="2">
  <advance width="600"/>
  <unicode hex="00A5"/>
  <outline>
    <contour>
      <point x="50" y="214" type="line"/>
      <point x="659" y="215" type="line"/>
      <point x="659" y="216" type="line"/>
      <point x="636" y="239" type="line"/>
      <point x="27" y="238" type="line"/>
      <point x="27" y="237" type="line"/>
    </contour>
  </outline>
</glyph>
<glyph name="yen.color2" format="2">
  <advance width="600"/>
  <unicode hex="00A5"/>
  <outline>
    <contour>
      <point x="250" y="301" type="line"/>
      <point x="251" y="301" type="line"/>
      <point x="333" y="439" type="line"/>
      <point x="188" y="723" type="line"/>
      <point x="6" y="723" type="line"/>
      <point x="6" y="722" type="line"/>
    </contour>
  </outline>
</glyph>
<glyph name="yen.color3" format="2">
  <advance width="600"/>
  <unicode hex="00A5"/>
  <outline>
    <contour>
      <point x="250" y="0" type="line"/>
      <point x="417" y="0" type="line"/>
      <point x="417" y="301" type="line"/>
      <point x="250" y="301" type="line"/>
    </contour>
  </outline>
</glyph>
<glyph name="yen.color4" format="2">
  <advance width="600"/>
  <unicode hex="00A5"/>
  <outline>
    <contour>
      <point x="251" y="301" type="line"/>
      <point x="417" y="301" type="line"/>
      <point x="642" y="722" type="line"/>
      <point x="642" y="723" type="line"/>
      <point x="461" y="723" type="line"/>
    </contour>
  </outline>
</glyph>
<glyph name="yen" format="2">
  <advance width="686"/>
  <unicode hex="00A5"/>
  <anchor x="331" y="0" name="bottom"/>
  <anchor x="333" y="723" name="top"/>
  <outline>
    <contour>
      <point x="50" y="303" type="line"/>
      <point x="659" y="304" type="line"/>
      <point x="659" y="305" type="line"/>
      <point x="636" y="328" type="line"/>
      <point x="27" y="327" type="line"/>
      <point x="27" y="326" type="line"/>
    </contour>
    <contour>
      <point x="50" y="214" type="line"/>
      <point x="659" y="215" type="line"/>
      <point x="659" y="216" type="line"/>
      <point x="636" y="239" type="line"/>
      <point x="27" y="238" type="line"/>
      <point x="27" y="237" type="line"/>
    </contour>
    <contour>
      <point x="250" y="301" type="line"/>
      <point x="251" y="301" type="line"/>
      <point x="333" y="439" type="line"/>
      <point x="188" y="723" type="line"/>
      <point x="6" y="723" type="line"/>
      <point x="6" y="722" type="line"/>
    </contour>
    <contour>
      <point x="250" y="0" type="line"/>
      <point x="417" y="0" type="line"/>
      <point x="417" y="301" type="line"/>
      <point x="250" y="301" type="line"/>
    </contour>
    <contour>
      <point x="251" y="301" type="line"/>
      <point x="417" y="301" type="line"/>
      <point x="642" y="722" type="line"/>
      <point x="642" y="723" type="line"/>
      <point x="461" y="723" type="line"/>
    </contour>
  </outline>
</glyph>
<glyph name="brokenbar.color0" format="2">
  <advance width="600"/>
  <unicode hex="00A6"/>
  <outline>
    <contour>
      <point x="32" y="437" type="line"/>
      <point x="185" y="437" type="line"/>
      <point x="185" y="727" type="line"/>
      <point x="32" y="727" type="line"/>
    </contour>
  </outline>
</glyph>
<glyph name="brokenbar" format="2">
  <advance width="217"/>
  <unicode hex="00A6"/>
  <outline>
    <contour>
      <point x="32" y="437" type="line"/>
      <point x="185" y="437" type="line"/>
      <point x="185" y="727" type="line"/>
      <point x="32" y="727" type="line"/>
    </contour>
    <contour>
      <point x="32" y="0" type="line"/>
      <point x="185" y="0" type="line"/>
      <point x="185" y="290" type="line"/>
      <point x="32" y="290" type="line"/>
    </contour>
  </outline>
</glyph>
<glyph name="section.color0" format="2">
  <advance width="600"/>
  <unicode hex="00A7"/>
  <outline>
    <contour>
      <point x="184" y="219" type="line"/>
      <point x="343" y="430" type="line"/>
      <point x="193" y="508" type="line"/>
      <point x="128" y="432" type="line"/>
    </contour>
  </outline>
</glyph>
<glyph name="section.color1" format="2">
  <advance width="600"/>
  <unicode hex="00A7"/>
  <outline>
    <contour>
      <point x="475" y="124" type="line"/>
      <point x="560" y="237" type="line"/>
      <point x="437" y="344" type="line"/>
      <point x="358" y="245" type="line"/>
    </contour>
  </outline>
</glyph>
<glyph name="section.color2" format="2">
  <advance width="600"/>
  <unicode hex="00A7"/>
  <outline>
    <contour>
      <point x="197" y="-67" type="line"/>
      <point x="526" y="-67" type="line"/>
      <point x="506" y="92" type="line"/>
      <point x="39" y="92" type="line"/>
      <point x="39" y="91" type="line"/>
    </contour>
  </outline>
</glyph>
<glyph name="section.color3" format="2">
  <advance width="600"/>
  <unicode hex="00A7"/>
  <outline>
    <contour>
      <point x="192" y="564" type="line"/>
      <point x="657" y="564" type="line"/>
      <point x="657" y="565" type="line"/>
      <point x="500" y="723" type="line"/>
      <point x="172" y="723" type="line"/>
    </contour>
  </outline>
</glyph>
<glyph name="section.color4" format="2">
  <advance width="600"/>
  <unicode hex="00A7"/>
  <outline>
    <contour>
      <point x="526" y="-67" type="line"/>
      <point x="621" y="70" type="line"/>
      <point x="128" y="432" type="line"/>
      <point x="32" y="290" type="line"/>
      <point x="32" y="289" type="line"/>
    </contour>
  </outline>
</glyph>
<glyph name="section.color5" format="2">
  <advance width="600"/>
  <unicode hex="00A7"/>
  <outline>
    <contour>
      <point x="560" y="237" type="line"/>
      <point x="656" y="373" type="line"/>
      <point x="656" y="374" type="line"/>
      <point x="172" y="723" type="line"/>
      <point x="76" y="586" type="line"/>
    </contour>
  </outline>
</glyph>
<glyph name="section" format="2">
  <advance width="692.75"/>
  <unicode hex="00A7"/>
  <outline>
    <contour>
      <point x="184" y="219" type="line"/>
      <point x="343" y="430" type="line"/>
      <point x="193" y="508" type="line"/>
      <point x="128" y="432" type="line"/>
    </contour>
    <contour>
      <point x="475" y="124" type="line"/>
      <point x="560" y="237" type="line"/>
      <point x="437" y="344" type="line"/>
      <point x="358" y="245" type="line"/>
    </contour>
    <contour>
      <point x="197" y="-67" type="line"/>
      <point x="526" y="-67" type="line"/>
      <point x="506" y="92" type="line"/>
      <point x="39" y="92" type="line"/>
      <point x="39" y="91" type="line"/>
    </contour>
    <contour>
      <point x="192" y="564" type="line"/>
      <point x="657" y="564" type="line"/>
      <point x="657" y="565" type="line"/>
      <point x="500" y="723" type="line"/>
      <point x="172" y="723" type="line"/>
    </contour>
    <contour>
      <point x="526" y="-67" type="line"/>
      <point x="621" y="70" type="line"/>
      <point x="128" y="432" type="line"/>
      <point x="32" y="290" type="line"/>
      <point x="32" y="289" type="line"/>
    </contour>
    <contour>
      <point x="560" y="237" type="line"/>
      <point x="656" y="373" type="line"/>
      <point x="656" y="374" type="line"/>
      <point x="172" y="723" type="line"/>
      <point x="76" y="586" type="line"/>
    </contour>
  </outline>
</glyph>
<glyph name="dieresis.color0" format="2">
  <advance width="600"/>
  <unicode hex="00A8"/>
  <outline>
    <contour>
      <point x="328" y="630" type="line"/>
      <point x="468" y="630" type="line"/>
      <point x="468" y="738" type="line"/>
      <point x="328" y="738" type="line"/>
    </contour>
  </outline>
</glyph>
<glyph name="dieresis.color1" format="2">
  <advance width="600"/>
  <unicode hex="00A8"/>
  <outline>
    <contour>
      <point x="128" y="630" type="line"/>
      <point x="268" y="630" type="line"/>
      <point x="268" y="738" type="line"/>
      <point x="128" y="738" type="line"/>
    </contour>
  </outline>
</glyph>
<glyph name="dieresis" format="2">
  <advance width="600"/>
  <unicode hex="00A8"/>
  <anchor x="305" y="523" name="_top"/>
  <anchor x="304" y="710" name="top"/>
  <outline>
    <contour>
      <point x="328" y="630" type="line"/>
      <point x="468" y="630" type="line"/>
      <point x="468" y="738" type="line"/>
      <point x="328" y="738" type="line"/>
    </contour>
    <contour>
      <point x="128" y="630" type="line"/>
      <point x="268" y="630" type="line"/>
      <point x="268" y="738" type="line"/>
      <point x="128" y="738" type="line"/>
    </contour>
  </outline>
</glyph>
<glyph name="copyright.color0" format="2">
  <advance width="600"/>
  <unicode hex="00A9"/>
  <outline>
    <contour>
      <point x="231" y="35" type="line"/>
      <point x="611" y="35" type="line"/>
      <point x="697" y="190" type="line"/>
      <point x="697" y="191" type="line"/>
      <point x="145" y="191" type="line"/>
      <point x="145" y="190" type="line"/>
    </contour>
  </outline>
</glyph>
<glyph name="copyright.color1" format="2">
  <advance width="600"/>
  <unicode hex="00A9"/>
  <outline>
    <contour>
      <point x="76" y="-48" type="line"/>
      <point x="77" y="-48" type="line"/>
      <point x="77" y="643" type="line"/>
      <point x="53" y="643" type="line"/>
      <point x="53" y="-25" type="line"/>
    </contour>
  </outline>
</glyph>
<glyph name="copyright.color2" format="2">
  <advance width="600"/>
  <unicode hex="00A9"/>
  <outline>
    <contour>
      <point x="77" y="-48" type="line"/>
      <point x="758" y="-48" type="line"/>
      <point x="781" y="-25" type="line"/>
      <point x="781" y="-24" type="line"/>
      <point x="77" y="-24" type="line"/>
    </contour>
  </outline>
</glyph>
<glyph name="copyright.color3" format="2">
  <advance width="600"/>
  <unicode hex="00A9"/>
  <outline>
    <contour>
      <point x="145" y="191" type="line"/>
      <point x="311" y="191" type="line"/>
      <point x="311" y="583" type="line"/>
      <point x="310" y="583" type="line"/>
      <point x="145" y="497" type="line"/>
    </contour>
  </outline>
</glyph>
<glyph name="copyright.color4" format="2">
  <advance width="600"/>
  <unicode hex="00A9"/>
  <outline>
    <contour>
      <point x="311" y="443" type="line"/>
      <point x="699" y="443" type="line"/>
      <point x="699" y="444" type="line"/>
      <point x="613" y="583" type="line"/>
      <point x="311" y="583" type="line"/>
    </contour>
  </outline>
</glyph>
<glyph name="copyright.color5" format="2">
  <advance width="600"/>
  <unicode hex="00A9"/>
  <outline>
    <contour>
      <point x="53" y="643" type="line"/>
      <point x="757" y="643" type="line"/>
      <point x="757" y="667" type="line"/>
      <point x="76" y="667" type="line"/>
      <point x="53" y="644" type="line"/>
    </contour>
  </outline>
</glyph>
<glyph name="copyright.color6" format="2">
  <advance width="600"/>
  <unicode hex="00A9"/>
  <outline>
    <contour>
      <point x="757" y="-24" type="line"/>
      <point x="781" y="-24" type="line"/>
      <point x="781" y="644" type="line"/>
      <point x="758" y="667" type="line"/>
      <point x="757" y="667" type="line"/>
    </contour>
  </outline>
</glyph>
<glyph name="copyright" format="2">
  <advance width="833.5"/>
  <unicode hex="00A9"/>
  <outline>
    <contour>
      <point x="231" y="35" type="line"/>
      <point x="611" y="35" type="line"/>
      <point x="697" y="190" type="line"/>
      <point x="697" y="191" type="line"/>
      <point x="145" y="191" type="line"/>
      <point x="145" y="190" type="line"/>
    </contour>
    <contour>
      <point x="76" y="-48" type="line"/>
      <point x="77" y="-48" type="line"/>
      <point x="77" y="643" type="line"/>
      <point x="53" y="643" type="line"/>
      <point x="53" y="-25" type="line"/>
    </contour>
    <contour>
      <point x="77" y="-48" type="line"/>
      <point x="758" y="-48" type="line"/>
      <point x="781" y="-25" type="line"/>
      <point x="781" y="-24" type="line"/>
      <point x="77" y="-24" type="line"/>
    </contour>
    <contour>
      <point x="145" y="191" type="line"/>
      <point x="311" y="191" type="line"/>
      <point x="311" y="583" type="line"/>
      <point x="310" y="583" type="line"/>
      <point x="145" y="497" type="line"/>
    </contour>
    <contour>
      <point x="311" y="443" type="line"/>
      <point x="699" y="443" type="line"/>
      <point x="699" y="444" type="line"/>
      <point x="613" y="583" type="line"/>
      <point x="311" y="583" type="line"/>
    </contour>
    <contour>
      <point x="53" y="643" type="line"/>
      <point x="757" y="643" type="line"/>
      <point x="757" y="667" type="line"/>
      <point x="76" y="667" type="line"/>
      <point x="53" y="644" type="line"/>
    </contour>
    <contour>
      <point x="757" y="-24" type="line"/>
      <point x="781" y="-24" type="line"/>
      <point x="781" y="644" type="line"/>
      <point x="758" y="667" type="line"/>
      <point x="757" y="667" type="line"/>
    </contour>
  </outline>
</glyph>
<glyph name="ordfeminine.color0" format="2">
  <advance width="600"/>
  <unicode hex="00AA"/>
  <outline>
    <contour>
      <point x="146" y="691" type="line"/>
      <point x="418" y="691" type="line"/>
      <point x="418" y="692" type="line"/>
      <point x="332" y="783" type="line"/>
      <point x="146" y="783" type="line"/>
    </contour>
  </outline>
</glyph>
<glyph name="ordfeminine.color2" format="2">
  <advance width="600"/>
  <unicode hex="00AA"/>
  <outline>
    <contour>
      <point x="47" y="584" type="line"/>
      <point x="146" y="584" type="line"/>
      <point x="146" y="783" type="line"/>
      <point x="145" y="783" type="line"/>
      <point x="47" y="697" type="line"/>
    </contour>
  </outline>
</glyph>
<glyph name="ordfeminine.color3" format="2">
  <advance width="600"/>
  <unicode hex="00AA"/>
  <outline>
    <contour>
      <point x="320" y="493" type="line"/>
      <point x="418" y="493" type="line"/>
      <point x="418" y="691" type="line"/>
      <point x="320" y="691" type="line"/>
    </contour>
  </outline>
</glyph>
<glyph name="guillemetleft.color1" format="2">
  <advance width="600"/>
  <unicode hex="00AB"/>
  <outline>
    <contour>
      <point x="254" y="25" type="line"/>
      <point x="440" y="25" type="line"/>
      <point x="440" y="29" type="line"/>
      <point x="223" y="265" type="line"/>
      <point x="37" y="265" type="line"/>
      <point x="37" y="264" type="line"/>
    </contour>
  </outline>
</glyph>
<glyph name="guillemetleft.color2" format="2">
  <advance width="600"/>
  <unicode hex="00AB"/>
  <outline>
    <contour>
      <point x="37" y="265" type="line"/>
      <point x="223" y="265" type="line"/>
      <point x="440" y="510" type="line"/>
      <point x="440" y="511" type="line"/>
      <point x="254" y="511" type="line"/>
      <point x="37" y="266" type="line"/>
    </contour>
  </outline>
</glyph>
<glyph name="guillemetleft.color3" format="2">
  <advance width="600"/>
  <unicode hex="00AB"/>
  <outline>
    <contour>
      <point x="491" y="25" type="line"/>
      <point x="676" y="25" type="line"/>
      <point x="676" y="29" type="line"/>
      <point x="459" y="265" type="line"/>
      <point x="274" y="265" type="line"/>
      <point x="274" y="264" type="line"/>
    </contour>
  </outline>
</glyph>
<glyph name="guillemetleft" format="2">
  <advance width="705.5"/>
  <unicode hex="00AB"/>
  <outline>
    <contour>
      <point x="274" y="265" type="line"/>
      <point x="459" y="265" type="line"/>
      <point x="676" y="510" type="line"/>
      <point x="676" y="511" type="line"/>
      <point x="491" y="511" type="line"/>
      <point x="274" y="266" type="line"/>
    </contour>
    <contour>
      <point x="254" y="25" type="line"/>
      <point x="440" y="25" type="line"/>
      <point x="440" y="29" type="line"/>
      <point x="223" y="265" type="line"/>
      <point x="37" y="265" type="line"/>
      <point x="37" y="264" type="line"/>
    </contour>
    <contour>
      <point x="37" y="265" type="line"/>
      <point x="223" y="265" type="line"/>
      <point x="440" y="510" type="line"/>
      <point x="440" y="511" type="line"/>
      <point x="254" y="511" type="line"/>
      <point x="37" y="266" type="line"/>
    </contour>
    <contour>
      <point x="491" y="25" type="line"/>
      <point x="676" y="25" type="line"/>
      <point x="676" y="29" type="line"/>
      <point x="459" y="265" type="line"/>
      <point x="274" y="265" type="line"/>
      <point x="274" y="264" type="line"/>
    </contour>
  </outline>
</glyph>
<glyph name="logicalnot.color0" format="2">
  <advance width="600"/>
  <unicode hex="00AC"/>
  <outline>
    <contour>
      <point x="32" y="327" type="line"/>
      <point x="455" y="327" type="line"/>
      <point x="369" y="456" type="line"/>
      <point x="32" y="456" type="line"/>
    </contour>
  </outline>
</glyph>
<glyph name="logicalnot.color1" format="2">
  <advance width="600"/>
  <unicode hex="00AC"/>
  <outline>
    <contour>
      <point x="319" y="154" type="line"/>
      <point x="320" y="154" type="line"/>
      <point x="455" y="240" type="line"/>
      <point x="455" y="327" type="line"/>
      <point x="319" y="327" type="line"/>
    </contour>
  </outline>
</glyph>
<glyph name="logicalnot" format="2">
  <advance width="486.75"/>
  <unicode hex="00AC"/>
  <outline>
    <contour>
      <point x="32" y="327" type="line"/>
      <point x="455" y="327" type="line"/>
      <point x="369" y="456" type="line"/>
      <point x="32" y="456" type="line"/>
    </contour>
    <contour>
      <point x="319" y="154" type="line"/>
      <point x="320" y="154" type="line"/>
      <point x="455" y="240" type="line"/>
      <point x="455" y="327" type="line"/>
      <point x="319" y="327" type="line"/>
    </contour>
  </outline>
</glyph>
<glyph name="softhyphen" format="2">
  <advance width="352.75"/>
  <unicode hex="00AD"/>
  <outline>
    <contour>
      <point x="40" y="278" type="line"/>
      <point x="328" y="278" type="line"/>
      <point x="328" y="439" type="line"/>
      <point x="40" y="439" type="line"/>
    </contour>
  </outline>
</glyph>
<glyph name="registered.color0" format="2">
  <advance width="600"/>
  <unicode hex="00AE"/>
  <outline>
    <contour>
      <point x="102" y="477" type="line"/>
      <point x="223" y="477" type="line"/>
      <point x="223" y="724" type="line"/>
      <point x="222" y="724" type="line"/>
      <point x="102" y="718" type="line"/>
    </contour>
  </outline>
</glyph>
<glyph name="registered.color2" format="2">
  <advance width="600"/>
  <unicode hex="00AE"/>
  <outline>
    <contour>
      <point x="58" y="426" type="line"/>
      <point x="516" y="426" type="line"/>
      <point x="539" y="449" type="line"/>
      <point x="539" y="450" type="line"/>
      <point x="58" y="450" type="line"/>
    </contour>
  </outline>
</glyph>
<glyph name="registered.color3" format="2">
  <advance width="600"/>
  <unicode hex="00AE"/>
  <outline>
    <contour>
      <point x="310" y="477" type="line"/>
      <point x="483" y="477" type="line"/>
      <point x="483" y="478" type="line"/>
      <point x="392" y="593" type="line"/>
      <point x="228" y="590" type="line"/>
    </contour>
  </outline>
</glyph>
<glyph name="registered.color4" format="2">
  <advance width="600"/>
  <unicode hex="00AE"/>
  <outline>
    <contour>
      <point x="223" y="530" type="line"/>
      <point x="340" y="530" type="line"/>
      <point x="340" y="607" type="line"/>
      <point x="223" y="607" type="line"/>
    </contour>
  </outline>
</glyph>
<glyph name="registered.color5" format="2">
  <advance width="600"/>
  <unicode hex="00AE"/>
  <outline>
    <contour>
      <point x="340" y="530" type="line"/>
      <point x="341" y="530" type="line"/>
      <point x="461" y="571" type="line"/>
      <point x="461" y="648" type="line"/>
      <point x="340" y="648" type="line"/>
    </contour>
  </outline>
</glyph>
<glyph name="registered.color6" format="2">
  <advance width="600"/>
  <unicode hex="00AE"/>
  <outline>
    <contour>
      <point x="223" y="648" type="line"/>
      <point x="461" y="648" type="line"/>
      <point x="461" y="649" type="line"/>
      <point x="380" y="724" type="line"/>
      <point x="223" y="724" type="line"/>
    </contour>
  </outline>
</glyph>
<glyph name="registered.color7" format="2">
  <advance width="600"/>
  <unicode hex="00AE"/>
  <outline>
    <contour>
      <point x="34" y="751" type="line"/>
      <point x="515" y="751" type="line"/>
      <point x="515" y="775" type="line"/>
      <point x="57" y="775" type="line"/>
      <point x="34" y="752" type="line"/>
    </contour>
  </outline>
</glyph>
<glyph name="registered.color8" format="2">
  <advance width="600"/>
  <unicode hex="00AE"/>
  <outline>
    <contour>
      <point x="515" y="450" type="line"/>
      <point x="539" y="450" type="line"/>
      <point x="539" y="752" type="line"/>
      <point x="516" y="775" type="line"/>
      <point x="515" y="775" type="line"/>
    </contour>
  </outline>
</glyph>
<glyph name="registered" format="2">
  <advance width="572.75"/>
  <unicode hex="00AE"/>
  <outline>
    <contour>
      <point x="102" y="477" type="line"/>
      <point x="223" y="477" type="line"/>
      <point x="223" y="724" type="line"/>
      <point x="222" y="724" type="line"/>
      <point x="102" y="718" type="line"/>
    </contour>
    <contour>
      <point x="57" y="426" type="line"/>
      <point x="58" y="426" type="line"/>
      <point x="58" y="751" type="line"/>
      <point x="34" y="751" type="line"/>
      <point x="34" y="449" type="line"/>
    </contour>
    <contour>
      <point x="58" y="426" type="line"/>
      <point x="516" y="426" type="line"/>
      <point x="539" y="449" type="line"/>
      <point x="539" y="450" type="line"/>
      <point x="58" y="450" type="line"/>
    </contour>
    <contour>
      <point x="310" y="477" type="line"/>
      <point x="483" y="477" type="line"/>
      <point x="483" y="478" type="line"/>
      <point x="392" y="593" type="line"/>
      <point x="228" y="590" type="line"/>
    </contour>
    <contour>
      <point x="223" y="530" type="line"/>
      <point x="340" y="530" type="line"/>
      <point x="340" y="607" type="line"/>
      <point x="223" y="607" type="line"/>
    </contour>
    <contour>
      <point x="340" y="530" type="line"/>
      <point x="341" y="530" type="line"/>
      <point x="461" y="571" type="line"/>
      <point x="461" y="648" type="line"/>
      <point x="340" y="648" type="line"/>
    </contour>
    <contour>
      <point x="223" y="648" type="line"/>
      <point x="461" y="648" type="line"/>
      <point x="461" y="649" type="line"/>
      <point x="380" y="724" type="line"/>
      <point x="223" y="724" type="line"/>
    </contour>
    <contour>
      <point x="34" y="751" type="line"/>
      <point x="515" y="751" type="line"/>
      <point x="515" y="775" type="line"/>
      <point x="57" y="775" type="line"/>
      <point x="34" y="752" type="line"/>
    </contour>
    <contour>
      <point x="515" y="450" type="line"/>
      <point x="539" y="450" type="line"/>
      <point x="539" y="752" type="line"/>
      <point x="516" y="775" type="line"/>
      <point x="515" y="775" type="line"/>
    </contour>
  </outline>
</glyph>
<glyph name="macron" format="2">
  <advance width="600"/>
  <unicode hex="00AF"/>
  <anchor x="308" y="523" name="_top"/>
  <outline>
    <contour>
      <point x="124" y="624" type="line"/>
      <point x="470" y="624" type="line"/>
      <point x="470" y="714" type="line"/>
      <point x="124" y="714" type="line"/>
    </contour>
  </outline>
</glyph>
<glyph name="degree.color0" format="2">
  <advance width="600"/>
  <unicode hex="00B0"/>
  <outline>
    <contour>
      <point x="92" y="694" type="line"/>
      <point x="317" y="694" type="line"/>
      <point x="317" y="695" type="line"/>
      <point x="257" y="775" type="line"/>
      <point x="92" y="775" type="line"/>
    </contour>
  </outline>
</glyph>
<glyph name="degree.color1" format="2">
  <advance width="600"/>
  <unicode hex="00B0"/>
  <outline>
    <contour>
      <point x="59" y="548" type="line"/>
      <point x="224" y="548" type="line"/>
      <point x="224" y="627" type="line"/>
      <point x="0" y="627" type="line"/>
      <point x="0" y="626" type="line"/>
    </contour>
  </outline>
</glyph>
<glyph name="degree.color2" format="2">
  <advance width="600"/>
  <unicode hex="00B0"/>
  <outline>
    <contour>
      <point x="0" y="627" type="line"/>
      <point x="92" y="627" type="line"/>
      <point x="92" y="775" type="line"/>
      <point x="90" y="775" type="line"/>
      <point x="0" y="714" type="line"/>
    </contour>
  </outline>
</glyph>
<glyph name="degree.color3" format="2">
  <advance width="600"/>
  <unicode hex="00B0"/>
  <outline>
    <contour>
      <point x="224" y="548" type="line"/>
      <point x="225" y="548" type="line"/>
      <point x="317" y="604" type="line"/>
      <point x="317" y="694" type="line"/>
      <point x="224" y="694" type="line"/>
    </contour>
  </outline>
</glyph>
<glyph name="degree" format="2">
  <advance width="348.25"/>
  <unicode hex="00B0"/>
  <outline>
    <contour>
      <point x="92" y="694" type="line"/>
      <point x="317" y="694" type="line"/>
      <point x="317" y="695" type="line"/>
      <point x="257" y="775" type="line"/>
      <point x="92" y="775" type="line"/>
    </contour>
    <contour>
      <point x="59" y="548" type="line"/>
      <point x="224" y="548" type="line"/>
      <point x="224" y="627" type="line"/>
      <point x="0" y="627" type="line"/>
      <point x="0" y="626" type="line"/>
    </contour>
    <contour>
      <point x="0" y="627" type="line"/>
      <point x="92" y="627" type="line"/>
      <point x="92" y="775" type="line"/>
      <point x="90" y="775" type="line"/>
      <point x="0" y="714" type="line"/>
    </contour>
    <contour>
      <point x="224" y="548" type="line"/>
      <point x="225" y="548" type="line"/>
      <point x="317" y="604" type="line"/>
      <point x="317" y="694" type="line"/>
      <point x="224" y="694" type="line"/>
    </contour>
  </outline>
</glyph>
<glyph name="plusminus.color0" format="2">
  <advance width="600"/>
  <unicode hex="00B1"/>
  <outline>
    <contour>
      <point x="32" y="71" type="line"/>
      <point x="562" y="72" type="line"/>
      <point x="562" y="230" type="line"/>
      <point x="32" y="230" type="line"/>
    </contour>
  </outline>
</glyph>
<glyph name="plusminus.color1" format="2">
  <advance width="600"/>
  <unicode hex="00B1"/>
  <outline>
    <contour>
      <point x="32" y="416" type="line"/>
      <point x="232" y="416" type="line"/>
      <point x="232" y="544" type="line"/>
      <point x="32" y="544" type="line"/>
    </contour>
  </outline>
</glyph>
<glyph name="plusminus.color2" format="2">
  <advance width="600"/>
  <unicode hex="00B1"/>
  <outline>
    <contour>
      <point x="232" y="270" type="line"/>
      <point x="361" y="270" type="line"/>
      <point x="361" y="416" type="line"/>
      <point x="232" y="416" type="line"/>
    </contour>
  </outline>
</glyph>
<glyph name="plusminus.color3" format="2">
  <advance width="600"/>
  <unicode hex="00B1"/>
  <outline>
    <contour>
      <point x="232" y="416" type="line"/>
      <point x="233" y="416" type="line"/>
      <point x="361" y="544" type="line"/>
      <point x="361" y="690" type="line"/>
      <point x="232" y="690" type="line"/>
    </contour>
  </outline>
</glyph>
<glyph name="plusminus.color4" format="2">
  <advance width="600"/>
  <unicode hex="00B1"/>
  <outline>
    <contour>
      <point x="233" y="416" type="line"/>
      <point x="562" y="416" type="line"/>
      <point x="562" y="544" type="line"/>
      <point x="361" y="544" type="line"/>
    </contour>
  </outline>
</glyph>
<glyph name="plusminus" format="2">
  <advance width="624"/>
  <unicode hex="00B1"/>
  <outline>
    <contour>
      <point x="32" y="71" type="line"/>
      <point x="562" y="72" type="line"/>
      <point x="562" y="230" type="line"/>
      <point x="32" y="230" type="line"/>
    </contour>
    <contour>
      <point x="32" y="416" type="line"/>
      <point x="232" y="416" type="line"/>
      <point x="232" y="544" type="line"/>
      <point x="32" y="544" type="line"/>
    </contour>
    <contour>
      <point x="232" y="270" type="line"/>
      <point x="361" y="270" type="line"/>
      <point x="361" y="416" type="line"/>
      <point x="232" y="416" type="line"/>
    </contour>
    <contour>
      <point x="232" y="416" type="line"/>
      <point x="233" y="416" type="line"/>
      <point x="361" y="544" type="line"/>
      <point x="361" y="690" type="line"/>
      <point x="232" y="690" type="line"/>
    </contour>
    <contour>
      <point x="233" y="416" type="line"/>
      <point x="562" y="416" type="line"/>
      <point x="562" y="544" type="line"/>
      <point x="361" y="544" type="line"/>
    </contour>
  </outline>
</glyph>
<glyph name="twosuperior.color0" format="2">
  <advance width="600"/>
  <unicode hex="00B2"/>
  <outline>
    <contour>
      <point x="32" y="664" type="line"/>
      <point x="280" y="664" type="line"/>
      <point x="278" y="771" type="line"/>
      <point x="99" y="771" type="line"/>
      <point x="32" y="665" type="line"/>
    </contour>
  </outline>
</glyph>
<glyph name="twosuperior.color1" format="2">
  <advance width="600"/>
  <unicode hex="00B2"/>
  <outline>
    <contour>
      <point x="103" y="490" type="line"/>
      <point x="343" y="685" type="line"/>
      <point x="278" y="771" type="line"/>
      <point x="36" y="571" type="line"/>
      <point x="36" y="570" type="line"/>
    </contour>
  </outline>
</glyph>
<glyph name="twosuperior.color2" format="2">
  <advance width="600"/>
  <unicode hex="00B2"/>
  <outline>
    <contour>
      <point x="36" y="463" type="line"/>
      <point x="356" y="463" type="line"/>
      <point x="356" y="570" type="line"/>
      <point x="36" y="570" type="line"/>
    </contour>
  </outline>
</glyph>
<glyph name="twosuperior" format="2">
  <advance width="388"/>
  <unicode hex="00B2"/>
  <outline>
    <contour>
      <point x="32" y="664" type="line"/>
      <point x="280" y="664" type="line"/>
      <point x="278" y="771" type="line"/>
      <point x="99" y="771" type="line"/>
      <point x="32" y="665" type="line"/>
    </contour>
    <contour>
      <point x="103" y="490" type="line"/>
      <point x="343" y="685" type="line"/>
      <point x="278" y="771" type="line"/>
      <point x="36" y="571" type="line"/>
      <point x="36" y="570" type="line"/>
    </contour>
    <contour>
      <point x="36" y="463" type="line"/>
      <point x="356" y="463" type="line"/>
      <point x="356" y="570" type="line"/>
      <point x="36" y="570" type="line"/>
    </contour>
  </outline>
</glyph>
<glyph name="threesuperior.color0" format="2">
  <advance width="600"/>
  <unicode hex="00B3"/>
  <outline>
    <contour>
      <point x="107" y="463" type="line"/>
      <point x="236" y="463" type="line"/>
      <point x="236" y="549" type="line"/>
      <point x="9" y="549" type="line"/>
      <point x="9" y="548" type="line"/>
    </contour>
  </outline>
</glyph>
<glyph name="threesuperior.color2" format="2">
  <advance width="600"/>
  <unicode hex="00B3"/>
  <outline>
    <contour>
      <point x="12" y="694" type="line"/>
      <point x="236" y="694" type="line"/>
      <point x="236" y="771" type="line"/>
      <point x="109" y="771" type="line"/>
      <point x="12" y="695" type="line"/>
    </contour>
  </outline>
</glyph>
<glyph name="threesuperior.color3" format="2">
  <advance width="600"/>
  <unicode hex="00B3"/>
  <outline>
    <contour>
      <point x="236" y="625" type="line"/>
      <point x="358" y="625" type="line"/>
      <point x="358" y="694" type="line"/>
      <point x="237" y="771" type="line"/>
      <point x="236" y="771" type="line"/>
    </contour>
  </outline>
</glyph>
<glyph name="threesuperior.color4" format="2">
  <advance width="600"/>
  <unicode hex="00B3"/>
  <outline>
    <contour>
      <point x="236" y="463" type="line"/>
      <point x="237" y="463" type="line"/>
      <point x="358" y="517" type="line"/>
      <point x="358" y="585" type="line"/>
      <point x="237" y="655" type="line"/>
      <point x="236" y="655" type="line"/>
    </contour>
  </outline>
</glyph>
<glyph name="threesuperior" format="2">
  <advance width="401.25"/>
  <unicode hex="00B3"/>
  <outline>
    <contour>
      <point x="107" y="463" type="line"/>
      <point x="236" y="463" type="line"/>
      <point x="236" y="549" type="line"/>
      <point x="9" y="549" type="line"/>
      <point x="9" y="548" type="line"/>
    </contour>
    <contour>
      <point x="56" y="590" type="line"/>
      <point x="236" y="590" type="line"/>
      <point x="236" y="655" type="line"/>
      <point x="56" y="655" type="line"/>
    </contour>
    <contour>
      <point x="12" y="694" type="line"/>
      <point x="236" y="694" type="line"/>
      <point x="236" y="771" type="line"/>
      <point x="109" y="771" type="line"/>
      <point x="12" y="695" type="line"/>
    </contour>
    <contour>
      <point x="236" y="625" type="line"/>
      <point x="358" y="625" type="line"/>
      <point x="358" y="694" type="line"/>
      <point x="237" y="771" type="line"/>
      <point x="236" y="771" type="line"/>
    </contour>
    <contour>
      <point x="236" y="463" type="line"/>
      <point x="237" y="463" type="line"/>
      <point x="358" y="517" type="line"/>
      <point x="358" y="585" type="line"/>
      <point x="237" y="655" type="line"/>
      <point x="236" y="655" type="line"/>
    </contour>
  </outline>
</glyph>
<glyph name="acute" format="2">
  <advance width="600"/>
  <unicode hex="00B4"/>
  <anchor x="272" y="523" name="_top"/>
  <outline>
    <contour>
      <point x="212" y="585" type="line"/>
      <point x="299" y="585" type="line"/>
      <point x="385" y="789" type="line"/>
      <point x="385" y="790" type="line"/>
      <point x="246" y="790" type="line"/>
    </contour>
  </outline>
</glyph>
<glyph name="micro.color1" format="2">
  <advance width="600"/>
  <unicode hex="00B5"/>
  <outline>
    <contour>
      <point x="206" y="-1" type="line"/>
      <point x="390" y="-1" type="line"/>
      <point x="390" y="157" type="line"/>
      <point x="206" y="158" type="line"/>
    </contour>
  </outline>
</glyph>
<glyph name="micro.color3" format="2">
  <advance width="600"/>
  <unicode hex="00B5"/>
  <outline>
    <contour>
      <point x="390" y="-1" type="line"/>
      <point x="391" y="-1" type="line"/>
      <point x="556" y="158" type="line"/>
      <point x="556" y="523" type="line"/>
      <point x="390" y="523" type="line"/>
    </contour>
  </outline>
</glyph>
<glyph name="micro" format="2">
  <advance width="690.75"/>
  <unicode hex="00B5"/>
  <outline>
    <contour>
      <point x="40" y="-200" type="line"/>
      <point x="206" y="-200" type="line"/>
      <point x="206" y="523" type="line"/>
      <point x="205" y="523" type="line"/>
      <point x="40" y="437" type="line"/>
    </contour>
    <contour>
      <point x="206" y="-1" type="line"/>
      <point x="390" y="-1" type="line"/>
      <point x="390" y="157" type="line"/>
      <point x="206" y="158" type="line"/>
    </contour>
    <contour>
      <point x="491" y="-1" type="line"/>
      <point x="651" y="-1" type="line"/>
      <point x="651" y="158" type="line"/>
      <point x="390" y="157" type="line"/>
    </contour>
    <contour>
      <point x="390" y="-1" type="line"/>
      <point x="391" y="-1" type="line"/>
      <point x="556" y="158" type="line"/>
      <point x="556" y="523" type="line"/>
      <point x="390" y="523" type="line"/>
    </contour>
  </outline>
</glyph>
<glyph name="paragraph.color0" format="2">
  <advance width="600"/>
  <unicode hex="00B6"/>
  <outline>
    <contour>
      <point x="221" y="564" type="line"/>
      <point x="773" y="564" type="line"/>
      <point x="773" y="723" type="line"/>
      <point x="221" y="723" type="line"/>
    </contour>
  </outline>
</glyph>
<glyph name="paragraph.color1" format="2">
  <advance width="600"/>
  <unicode hex="00B6"/>
  <outline>
    <contour>
      <point x="212" y="218" type="line"/>
      <point x="397" y="218" type="line"/>
      <point x="397" y="377" type="line"/>
      <point x="55" y="377" type="line"/>
      <point x="55" y="376" type="line"/>
    </contour>
  </outline>
</glyph>
<glyph name="paragraph.color2" format="2">
  <advance width="600"/>
  <unicode hex="00B6"/>
  <outline>
    <contour>
      <point x="55" y="377" type="line"/>
      <point x="221" y="377" type="line"/>
      <point x="221" y="723" type="line"/>
      <point x="220" y="723" type="line"/>
      <point x="55" y="569" type="line"/>
    </contour>
  </outline>
</glyph>
<glyph name="paragraph" format="2">
  <advance width="857.25"/>
  <unicode hex="00B6"/>
  <outline>
    <contour>
      <point x="221" y="564" type="line"/>
      <point x="773" y="564" type="line"/>
      <point x="773" y="723" type="line"/>
      <point x="221" y="723" type="line"/>
    </contour>
    <contour>
      <point x="212" y="218" type="line"/>
      <point x="397" y="218" type="line"/>
      <point x="397" y="377" type="line"/>
      <point x="55" y="377" type="line"/>
      <point x="55" y="376" type="line"/>
    </contour>
    <contour>
      <point x="55" y="377" type="line"/>
      <point x="221" y="377" type="line"/>
      <point x="221" y="723" type="line"/>
      <point x="220" y="723" type="line"/>
      <point x="55" y="569" type="line"/>
    </contour>
    <contour>
      <point x="397" y="0" type="line"/>
      <point x="564" y="0" type="line"/>
      <point x="564" y="564" type="line"/>
      <point x="397" y="564" type="line"/>
    </contour>
    <contour>
      <point x="606" y="0" type="line"/>
      <point x="773" y="0" type="line"/>
      <point x="773" y="564" type="line"/>
      <point x="606" y="564" type="line"/>
    </contour>
  </outline>
</glyph>
<glyph name="periodcentered" format="2">
  <advance width="245.75"/>
  <unicode hex="00B7"/>
  <outline>
    <contour>
      <point x="34" y="212" type="line"/>
      <point x="217" y="212" type="line"/>
      <point x="217" y="371" type="line"/>
      <point x="34" y="371" type="line"/>
    </contour>
  </outline>
</glyph>
<glyph name="cedilla.color0" format="2">
  <advance width="600"/>
  <unicode hex="00B8"/>
  <outline>
    <contour>
      <point x="296" y="-106" type="line"/>
      <point x="433" y="-106" type="line"/>
      <point x="433" y="-105" type="line"/>
      <point x="375" y="-30" type="line"/>
      <point x="339" y="-30" type="line"/>
    </contour>
  </outline>
</glyph>
<glyph name="cedilla.color1" format="2">
  <advance width="600"/>
  <unicode hex="00B8"/>
  <outline>
    <contour>
      <point x="211" y="-106" type="line"/>
      <point x="296" y="-106" type="line"/>
      <point x="364" y="-1" type="line"/>
      <point x="364" y="0" type="line"/>
      <point x="280" y="0" type="line"/>
      <point x="211" y="-105" type="line"/>
    </contour>
  </outline>
</glyph>
<glyph name="cedilla.color2" format="2">
  <advance width="600"/>
  <unicode hex="00B8"/>
  <outline>
    <contour>
      <point x="220" y="-222" type="line"/>
      <point x="346" y="-222" type="line"/>
      <point x="346" y="-148" type="line"/>
      <point x="170" y="-148" type="line"/>
      <point x="170" y="-149" type="line"/>
    </contour>
  </outline>
</glyph>
<glyph name="cedilla.color3" format="2">
  <advance width="600"/>
  <unicode hex="00B8"/>
  <outline>
    <contour>
      <point x="346" y="-222" type="line"/>
      <point x="347" y="-222" type="line"/>
      <point x="433" y="-176" type="line"/>
      <point x="433" y="-106" type="line"/>
      <point x="346" y="-106" type="line"/>
    </contour>
  </outline>
</glyph>
<glyph name="onesuperior.color1" format="2">
  <advance width="600"/>
  <unicode hex="00B9"/>
  <outline>
    <contour>
      <point x="32" y="460" type="line"/>
      <point x="160" y="460" type="line"/>
      <point x="160" y="567" type="line"/>
      <point x="32" y="567" type="line"/>
    </contour>
  </outline>
</glyph>
<glyph name="onesuperior.color2" format="2">
  <advance width="600"/>
  <unicode hex="00B9"/>
  <outline>
    <contour>
      <point x="199" y="460" type="line"/>
      <point x="385" y="460" type="line"/>
      <point x="385" y="567" type="line"/>
      <point x="281" y="567" type="line"/>
    </contour>
  </outline>
</glyph>
<glyph name="onesuperior.color3" format="2">
  <advance width="600"/>
  <unicode hex="00B9"/>
  <outline>
    <contour>
      <point x="94" y="664" type="line"/>
      <point x="160" y="664" type="line"/>
      <point x="243" y="771" type="line"/>
      <point x="94" y="771" type="line"/>
    </contour>
  </outline>
</glyph>
<glyph name="onesuperior" format="2">
  <advance width="417.25"/>
  <unicode hex="00B9"/>
  <outline>
    <contour>
      <point x="160" y="460" type="line"/>
      <point x="199" y="460" type="line"/>
      <point x="281" y="567" type="line"/>
      <point x="281" y="771" type="line"/>
      <point x="243" y="771" type="line"/>
      <point x="160" y="664" type="line"/>
    </contour>
    <contour>
      <point x="32" y="460" type="line"/>
      <point x="160" y="460" type="line"/>
      <point x="160" y="567" type="line"/>
      <point x="32" y="567" type="line"/>
    </contour>
    <contour>
      <point x="199" y="460" type="line"/>
      <point x="385" y="460" type="line"/>
      <point x="385" y="567" type="line"/>
      <point x="281" y="567" type="line"/>
    </contour>
    <contour>
      <point x="94" y="664" type="line"/>
      <point x="160" y="664" type="line"/>
      <point x="243" y="771" type="line"/>
      <point x="94" y="771" type="line"/>
    </contour>
  </outline>
</glyph>
<glyph name="ordmasculine.color1" format="2">
  <advance width="600"/>
  <unicode hex="00BA"/>
  <outline>
    <contour>
      <point x="133" y="493" type="line"/>
      <point x="320" y="493" type="line"/>
      <point x="320" y="584" type="line"/>
      <point x="47" y="584" type="line"/>
      <point x="47" y="583" type="line"/>
    </contour>
  </outline>
</glyph>
<glyph name="ordmasculine.color3" format="2">
  <advance width="600"/>
  <unicode hex="00BA"/>
  <outline>
    <contour>
      <point x="320" y="493" type="line"/>
      <point x="321" y="493" type="line"/>
      <point x="418" y="578" type="line"/>
      <point x="418" y="691" type="line"/>
      <point x="320" y="691" type="line"/>
    </contour>
  </outline>
</glyph>
<glyph name="ordmasculine" format="2">
  <advance width="465.25"/>
  <unicode hex="00BA"/>
  <outline>
    <contour>
      <point x="146" y="691" type="line"/>
      <point x="418" y="691" type="line"/>
      <point x="418" y="692" type="line"/>
      <point x="332" y="783" type="line"/>
      <point x="146" y="783" type="line"/>
    </contour>
    <contour>
      <point x="133" y="493" type="line"/>
      <point x="320" y="493" type="line"/>
      <point x="320" y="584" type="line"/>
      <point x="47" y="584" type="line"/>
      <point x="47" y="583" type="line"/>
    </contour>
    <contour>
      <point x="47" y="584" type="line"/>
      <point x="146" y="584" type="line"/>
      <point x="146" y="783" type="line"/>
      <point x="145" y="783" type="line"/>
      <point x="47" y="697" type="line"/>
    </contour>
    <contour>
      <point x="320" y="493" type="line"/>
      <point x="321" y="493" type="line"/>
      <point x="418" y="578" type="line"/>
      <point x="418" y="691" type="line"/>
      <point x="320" y="691" type="line"/>
    </contour>
  </outline>
</glyph>
<glyph name="guillemetright.color0" format="2">
  <advance width="600"/>
  <unicode hex="00BB"/>
  <outline>
    <contour>
      <point x="432" y="265" type="line"/>
      <point x="432" y="266" type="line"/>
      <point x="215" y="511" type="line"/>
      <point x="30" y="511" type="line"/>
      <point x="30" y="510" type="line"/>
      <point x="247" y="265" type="line"/>
    </contour>
  </outline>
</glyph>
<glyph name="guillemetright.color1" format="2">
  <advance width="600"/>
  <unicode hex="00BB"/>
  <outline>
    <contour>
      <point x="452" y="25" type="line"/>
      <point x="669" y="264" type="line"/>
      <point x="669" y="265" type="line"/>
      <point x="483" y="265" type="line"/>
      <point x="266" y="29" type="line"/>
      <point x="266" y="25" type="line"/>
    </contour>
  </outline>
</glyph>
<glyph name="guillemetright.color2" format="2">
  <advance width="600"/>
  <unicode hex="00BB"/>
  <outline>
    <contour>
      <point x="669" y="265" type="line"/>
      <point x="669" y="266" type="line"/>
      <point x="452" y="511" type="line"/>
      <point x="266" y="511" type="line"/>
      <point x="266" y="510" type="line"/>
      <point x="483" y="265" type="line"/>
    </contour>
  </outline>
</glyph>
<glyph name="guillemetright.color3" format="2">
  <advance width="600"/>
  <unicode hex="00BB"/>
  <outline>
    <contour>
      <point x="215" y="25" type="line"/>
      <point x="432" y="264" type="line"/>
      <point x="432" y="265" type="line"/>
      <point x="247" y="265" type="line"/>
      <point x="30" y="29" type="line"/>
      <point x="30" y="25" type="line"/>
    </contour>
  </outline>
</glyph>
<glyph name="guillemetright" format="2">
  <advance width="706"/>
  <unicode hex="00BB"/>
  <outline>
    <contour>
      <point x="432" y="265" type="line"/>
      <point x="432" y="266" type="line"/>
      <point x="215" y="511" type="line"/>
      <point x="30" y="511" type="line"/>
      <point x="30" y="510" type="line"/>
      <point x="247" y="265" type="line"/>
    </contour>
    <contour>
      <point x="452" y="25" type="line"/>
      <point x="669" y="264" type="line"/>
      <point x="669" y="265" type="line"/>
      <point x="483" y="265" type="line"/>
      <point x="266" y="29" type="line"/>
      <point x="266" y="25" type="line"/>
    </contour>
    <contour>
      <point x="669" y="265" type="line"/>
      <point x="669" y="266" type="line"/>
      <point x="452" y="511" type="line"/>
      <point x="266" y="511" type="line"/>
      <point x="266" y="510" type="line"/>
      <point x="483" y="265" type="line"/>
    </contour>
    <contour>
      <point x="215" y="25" type="line"/>
      <point x="432" y="264" type="line"/>
      <point x="432" y="265" type="line"/>
      <point x="247" y="265" type="line"/>
      <point x="30" y="29" type="line"/>
      <point x="30" y="25" type="line"/>
    </contour>
  </outline>
</glyph>
<glyph name="onequarter.color2" format="2">
  <advance width="600"/>
  <unicode hex="00BC"/>
  <outline>
    <contour>
      <point x="199" y="460" type="line"/>
      <point x="385" y="460" type="line"/>
      <point x="385" y="567" type="line"/>
      <point x="281" y="567" type="line"/>
    </contour>
  </outline>
</glyph>
<glyph name="onequarter.color4" format="2">
  <advance width="600"/>
  <unicode hex="00BC"/>
  <outline>
    <contour>
      <point x="104" y="0" type="line"/>
      <point x="284" y="0" type="line"/>
      <point x="791" y="722" type="line"/>
      <point x="791" y="723" type="line"/>
      <point x="611" y="723" type="line"/>
      <point x="104" y="1" type="line"/>
    </contour>
  </outline>
</glyph>
<glyph name="onequarter.color5" format="2">
  <advance width="600"/>
  <unicode hex="00BC"/>
  <outline>
    <contour>
      <point x="530" y="71" type="line"/>
      <point x="687" y="71" type="line"/>
      <point x="687" y="179" type="line"/>
      <point x="538" y="179" type="line"/>
    </contour>
  </outline>
</glyph>
<glyph name="onequarter.color6" format="2">
  <advance width="600"/>
  <unicode hex="00BC"/>
  <outline>
    <contour>
      <point x="530" y="71" type="line"/>
      <point x="740" y="307" type="line"/>
      <point x="740" y="308" type="line"/>
      <point x="598" y="308" type="line"/>
      <point x="447" y="140" type="line"/>
    </contour>
  </outline>
</glyph>
